<svg width="146" height="47" viewBox="0 0 146 47" fill="none" xmlns="http://www.w3.org/2000/svg">
<path d="M17.5513 14.6021C17.5513 15.8439 17.3576 16.9434 16.9702 17.9004C16.5828 18.8574 16.0189 19.6663 15.2783 20.3271C14.5378 20.9766 13.6263 21.4722 12.5439 21.814C11.473 22.1558 10.2083 22.3267 8.75 22.3267H6.9043V29.3848C6.9043 29.4987 6.86442 29.6012 6.78467 29.6924C6.71631 29.7835 6.59668 29.8576 6.42578 29.9146C6.25488 29.9715 6.02702 30.0171 5.74219 30.0513C5.45736 30.0854 5.09277 30.1025 4.64844 30.1025C4.21549 30.1025 3.85091 30.0854 3.55469 30.0513C3.26986 30.0171 3.04199 29.9715 2.87109 29.9146C2.7002 29.8576 2.58057 29.7835 2.51221 29.6924C2.44385 29.6012 2.40967 29.4987 2.40967 29.3848V9.49219C2.40967 8.95671 2.54639 8.55794 2.81982 8.2959C3.10465 8.02246 3.47493 7.88574 3.93066 7.88574H9.14307C9.66715 7.88574 10.1628 7.90853 10.6299 7.9541C11.1084 7.98828 11.6781 8.07373 12.3389 8.21045C12.9997 8.33577 13.6662 8.57503 14.3384 8.92822C15.022 9.28141 15.603 9.73145 16.0815 10.2783C16.5601 10.8138 16.9246 11.4461 17.1753 12.1753C17.4259 12.8931 17.5513 13.702 17.5513 14.6021ZM12.8516 14.9268C12.8516 14.152 12.7148 13.514 12.4414 13.0127C12.168 12.5114 11.8319 12.1411 11.4331 11.9019C11.0343 11.6626 10.6128 11.5145 10.1685 11.4575C9.73551 11.3892 9.28548 11.355 8.81836 11.355H6.9043V18.8574H8.9209C9.63867 18.8574 10.2368 18.7606 10.7153 18.5669C11.2052 18.3732 11.604 18.1055 11.9116 17.7637C12.2192 17.4105 12.4528 16.9946 12.6123 16.5161C12.7718 16.0262 12.8516 15.4964 12.8516 14.9268ZM30.5737 15.5933C30.5737 16.0034 30.5623 16.3395 30.5396 16.6016C30.5168 16.8636 30.4826 17.0687 30.437 17.2168C30.3914 17.3649 30.3288 17.4674 30.249 17.5244C30.1807 17.5814 30.0895 17.6099 29.9756 17.6099C29.8844 17.6099 29.7819 17.5928 29.668 17.5586C29.554 17.513 29.423 17.4674 29.2749 17.4219C29.1382 17.3763 28.9844 17.3364 28.8135 17.3022C28.6426 17.2567 28.4546 17.2339 28.2495 17.2339C28.0103 17.2339 27.771 17.2852 27.5317 17.3877C27.2925 17.4788 27.0418 17.627 26.7798 17.832C26.5291 18.0371 26.2614 18.3105 25.9766 18.6523C25.7031 18.9941 25.4069 19.4157 25.0879 19.917V29.4189C25.0879 29.5329 25.0537 29.6354 24.9854 29.7266C24.917 29.8063 24.7974 29.8747 24.6265 29.9316C24.467 29.9886 24.2505 30.0285 23.9771 30.0513C23.7036 30.0854 23.3561 30.1025 22.9346 30.1025C22.513 30.1025 22.1655 30.0854 21.8921 30.0513C21.6187 30.0285 21.3965 29.9886 21.2256 29.9316C21.0661 29.8747 20.9521 29.8063 20.8838 29.7266C20.8154 29.6354 20.7812 29.5329 20.7812 29.4189V14.1748C20.7812 14.0609 20.8097 13.964 20.8667 13.8843C20.9237 13.7931 21.0262 13.7191 21.1743 13.6621C21.3224 13.6051 21.5104 13.5653 21.7383 13.5425C21.9775 13.5083 22.2738 13.4912 22.627 13.4912C22.9915 13.4912 23.2935 13.5083 23.5327 13.5425C23.772 13.5653 23.9543 13.6051 24.0796 13.6621C24.2163 13.7191 24.3132 13.7931 24.3701 13.8843C24.4271 13.964 24.4556 14.0609 24.4556 14.1748V16.0718C24.8543 15.5021 25.2303 15.035 25.5835 14.6704C25.9367 14.2944 26.2728 13.9982 26.5918 13.7817C26.9108 13.5653 27.2298 13.4172 27.5488 13.3374C27.8678 13.2463 28.1868 13.2007 28.5059 13.2007C28.654 13.2007 28.8135 13.2121 28.9844 13.2349C29.1553 13.2463 29.3319 13.2747 29.5142 13.3203C29.6965 13.3545 29.856 13.4001 29.9927 13.457C30.1294 13.5026 30.2262 13.5539 30.2832 13.6108C30.3516 13.6678 30.3971 13.7305 30.4199 13.7988C30.4541 13.8672 30.4826 13.964 30.5054 14.0894C30.5282 14.2033 30.5452 14.3799 30.5566 14.6191C30.568 14.8584 30.5737 15.1831 30.5737 15.5933ZM48.1934 21.6431C48.1934 22.9419 48.0225 24.1268 47.6807 25.1978C47.3389 26.2687 46.8205 27.1916 46.1255 27.9663C45.4305 28.741 44.5589 29.3392 43.5107 29.7607C42.4626 30.1823 41.2378 30.3931 39.8364 30.3931C38.4806 30.3931 37.3014 30.2051 36.2988 29.8291C35.2962 29.4531 34.4645 28.9062 33.8037 28.1885C33.1429 27.4707 32.653 26.5877 32.334 25.5396C32.015 24.4914 31.8555 23.2951 31.8555 21.9507C31.8555 20.6519 32.0264 19.467 32.3682 18.396C32.7214 17.3136 33.2454 16.3908 33.9404 15.6274C34.6354 14.8527 35.5013 14.2546 36.5381 13.833C37.5863 13.4115 38.811 13.2007 40.2124 13.2007C41.5796 13.2007 42.7645 13.3887 43.7671 13.7646C44.7697 14.1292 45.5957 14.6704 46.2451 15.3882C46.9059 16.106 47.3958 16.9889 47.7148 18.0371C48.0339 19.0853 48.1934 20.2873 48.1934 21.6431ZM43.7671 21.814C43.7671 21.062 43.7044 20.3727 43.5791 19.7461C43.4652 19.1081 43.2658 18.5555 42.981 18.0884C42.6961 17.6213 42.3145 17.2567 41.8359 16.9946C41.3688 16.7326 40.7764 16.6016 40.0586 16.6016C39.4206 16.6016 38.8623 16.7212 38.3838 16.9604C37.9053 17.1883 37.5122 17.5301 37.2046 17.9858C36.897 18.4302 36.6634 18.9714 36.5039 19.6094C36.3558 20.236 36.2817 20.9538 36.2817 21.7627C36.2817 22.5146 36.3444 23.2096 36.4697 23.8477C36.5951 24.4743 36.7944 25.0212 37.0679 25.4883C37.3527 25.9554 37.7344 26.32 38.2129 26.582C38.6914 26.8327 39.2839 26.958 39.9902 26.958C40.6396 26.958 41.2036 26.8441 41.6821 26.6162C42.1606 26.377 42.5537 26.0352 42.8613 25.5908C43.1689 25.1465 43.3968 24.611 43.5449 23.9844C43.693 23.3464 43.7671 22.6229 43.7671 21.814ZM56.2427 29.9316C56.2427 31.1279 56.1401 32.0964 55.9351 32.8369C55.73 33.5775 55.4167 34.1984 54.9951 34.6997C54.585 35.2124 54.0666 35.5941 53.4399 35.8447C52.8133 36.1068 52.0785 36.2378 51.2354 36.2378C50.7682 36.2378 50.3695 36.2036 50.0391 36.1353C49.7087 36.0783 49.4694 36.0156 49.3213 35.9473C49.1732 35.8789 49.0706 35.7935 49.0137 35.6909C48.9567 35.5884 48.9168 35.4688 48.894 35.332C48.8713 35.2067 48.8542 35.0586 48.8428 34.8877C48.8314 34.7282 48.8257 34.5174 48.8257 34.2554C48.8257 33.9364 48.8371 33.6686 48.8599 33.4521C48.8713 33.2471 48.8997 33.0819 48.9453 32.9565C48.9909 32.8312 49.0422 32.7401 49.0991 32.6831C49.1561 32.6261 49.2301 32.5977 49.3213 32.5977C49.3783 32.5977 49.4922 32.609 49.6631 32.6318C49.8454 32.666 50.0391 32.6831 50.2441 32.6831C50.5404 32.6831 50.7967 32.6375 51.0132 32.5464C51.2297 32.4552 51.4062 32.3071 51.543 32.1021C51.6797 31.9084 51.7822 31.652 51.8506 31.333C51.9189 31.0254 51.9531 30.5298 51.9531 29.8462V14.209C51.9531 14.0951 51.9873 13.9982 52.0557 13.9185C52.124 13.8273 52.238 13.7533 52.3975 13.6963C52.557 13.6279 52.7734 13.5767 53.0469 13.5425C53.3203 13.5083 53.6678 13.4912 54.0894 13.4912C54.5109 13.4912 54.8584 13.5083 55.1318 13.5425C55.4053 13.5767 55.6217 13.6279 55.7812 13.6963C55.9521 13.7533 56.0718 13.8273 56.1401 13.9185C56.2085 13.9982 56.2427 14.0951 56.2427 14.209V29.9316ZM56.5674 9.01367C56.5674 9.87956 56.3908 10.4777 56.0376 10.8081C55.6958 11.1385 55.0407 11.3037 54.0723 11.3037C53.1152 11.3037 52.4658 11.1442 52.124 10.8252C51.7822 10.5062 51.6113 9.93083 51.6113 9.09912C51.6113 8.23324 51.7879 7.63509 52.1411 7.30469C52.4943 6.96289 53.1494 6.79199 54.1064 6.79199C55.0749 6.79199 55.7243 6.95719 56.0547 7.2876C56.3965 7.60661 56.5674 8.18197 56.5674 9.01367ZM74.6484 21.3525C74.6484 21.8766 74.5288 22.264 74.2896 22.5146C74.0617 22.7653 73.7427 22.8906 73.3325 22.8906H64.0527C64.0527 23.54 64.1268 24.1325 64.2749 24.668C64.4344 25.1921 64.6794 25.6421 65.0098 26.0181C65.3516 26.3826 65.7845 26.6618 66.3086 26.8555C66.8441 27.0492 67.4821 27.146 68.2227 27.146C68.9746 27.146 69.6354 27.0947 70.2051 26.9922C70.7747 26.8783 71.2646 26.7586 71.6748 26.6333C72.0964 26.4966 72.4438 26.377 72.7173 26.2744C72.9907 26.1605 73.2129 26.1035 73.3838 26.1035C73.4863 26.1035 73.5718 26.1263 73.6401 26.1719C73.7085 26.2061 73.7655 26.2744 73.811 26.377C73.8566 26.4795 73.8851 26.6276 73.8965 26.8213C73.9193 27.0036 73.9307 27.2371 73.9307 27.522C73.9307 27.7726 73.925 27.9891 73.9136 28.1714C73.9022 28.3423 73.8851 28.4904 73.8623 28.6157C73.8395 28.741 73.8053 28.8493 73.7598 28.9404C73.7142 29.0202 73.6515 29.0999 73.5718 29.1797C73.5034 29.2594 73.304 29.3677 72.9736 29.5044C72.6432 29.6411 72.2217 29.7778 71.709 29.9146C71.1963 30.0399 70.6095 30.1481 69.9487 30.2393C69.2879 30.3418 68.5815 30.3931 67.8296 30.3931C66.4738 30.3931 65.2832 30.2222 64.2578 29.8804C63.2438 29.5386 62.395 29.0202 61.7114 28.3252C61.0278 27.6302 60.5151 26.7529 60.1733 25.6934C59.8429 24.6338 59.6777 23.3919 59.6777 21.9678C59.6777 20.612 59.8543 19.3929 60.2075 18.3105C60.5607 17.2168 61.0734 16.2939 61.7456 15.542C62.4178 14.7786 63.2324 14.1976 64.1895 13.7988C65.1579 13.4001 66.2459 13.2007 67.4536 13.2007C68.7297 13.2007 69.8177 13.3887 70.7178 13.7646C71.6292 14.1406 72.3755 14.6647 72.9565 15.3369C73.5376 15.9977 73.9648 16.7839 74.2383 17.6953C74.5117 18.6068 74.6484 19.598 74.6484 20.6689V21.3525ZM70.4785 20.1221C70.5127 18.9144 70.2677 17.9688 69.7437 17.2852C69.231 16.5902 68.4334 16.2427 67.3511 16.2427C66.8042 16.2427 66.3257 16.3452 65.9155 16.5503C65.5168 16.7554 65.1807 17.0345 64.9072 17.3877C64.6452 17.7295 64.4401 18.1396 64.292 18.6182C64.1553 19.0853 64.0755 19.5866 64.0527 20.1221H70.4785ZM89.7388 26.9922C89.7388 27.2884 89.7274 27.5391 89.7046 27.7441C89.6932 27.9378 89.6704 28.103 89.6362 28.2397C89.6134 28.3765 89.5793 28.4904 89.5337 28.5815C89.4995 28.6613 89.4141 28.7695 89.2773 28.9062C89.1406 29.0316 88.9071 29.1911 88.5767 29.3848C88.2463 29.5671 87.8703 29.7323 87.4487 29.8804C87.0272 30.0285 86.5658 30.1481 86.0645 30.2393C85.5745 30.3304 85.0675 30.376 84.5435 30.376C83.37 30.376 82.3275 30.1937 81.416 29.8291C80.516 29.4645 79.7583 28.929 79.1431 28.2227C78.5278 27.5049 78.0607 26.6333 77.7417 25.6079C77.4341 24.5825 77.2803 23.409 77.2803 22.0874C77.2803 20.5607 77.4683 19.2448 77.8442 18.1396C78.2316 17.0231 78.7671 16.1003 79.4507 15.3711C80.1343 14.6419 80.9432 14.1007 81.8774 13.7476C82.8117 13.3944 83.8371 13.2178 84.9536 13.2178C85.4093 13.2178 85.8537 13.2576 86.2866 13.3374C86.731 13.4172 87.1411 13.5254 87.5171 13.6621C87.9045 13.7988 88.2463 13.9526 88.5425 14.1235C88.8501 14.2944 89.0666 14.4425 89.1919 14.5679C89.3172 14.6932 89.4027 14.8014 89.4482 14.8926C89.5052 14.9723 89.5451 15.0806 89.5679 15.2173C89.6021 15.354 89.6248 15.5249 89.6362 15.73C89.659 15.9237 89.6704 16.1629 89.6704 16.4478C89.6704 17.1086 89.6134 17.5757 89.4995 17.8491C89.3856 18.1112 89.2375 18.2422 89.0552 18.2422C88.8615 18.2422 88.6564 18.1624 88.4399 18.0029C88.2235 17.8434 87.9671 17.6668 87.6709 17.4731C87.3747 17.2795 87.0215 17.1029 86.6113 16.9434C86.2012 16.7839 85.7113 16.7041 85.1416 16.7041C84.0251 16.7041 83.1706 17.137 82.5781 18.0029C81.9857 18.8574 81.6895 20.1164 81.6895 21.7798C81.6895 22.6001 81.7635 23.3236 81.9116 23.9502C82.0597 24.5768 82.2762 25.1009 82.561 25.5225C82.8573 25.944 83.2218 26.263 83.6548 26.4795C84.0991 26.6846 84.6118 26.7871 85.1929 26.7871C85.7853 26.7871 86.2923 26.7017 86.7139 26.5308C87.1468 26.3485 87.5228 26.1491 87.8418 25.9326C88.1608 25.7161 88.4285 25.5225 88.645 25.3516C88.8615 25.1693 89.0438 25.0781 89.1919 25.0781C89.2944 25.0781 89.3799 25.1066 89.4482 25.1636C89.5166 25.2205 89.5679 25.3288 89.6021 25.4883C89.6476 25.6364 89.6818 25.8301 89.7046 26.0693C89.7274 26.3086 89.7388 26.6162 89.7388 26.9922ZM101.89 27.915C101.89 28.4163 101.855 28.8037 101.787 29.0771C101.73 29.3392 101.65 29.5272 101.548 29.6411C101.445 29.7437 101.292 29.8405 101.086 29.9316C100.893 30.0114 100.659 30.0798 100.386 30.1367C100.124 30.2051 99.8332 30.2563 99.5142 30.2905C99.2065 30.3247 98.8932 30.3418 98.5742 30.3418C97.7197 30.3418 96.9792 30.2336 96.3525 30.0171C95.7259 29.8006 95.2075 29.4702 94.7974 29.0259C94.3872 28.5701 94.0853 28.0005 93.8916 27.3169C93.6979 26.6333 93.6011 25.8244 93.6011 24.8901V17.0801H91.7725C91.556 17.0801 91.3908 16.9491 91.2769 16.687C91.1629 16.4136 91.106 15.9635 91.106 15.3369C91.106 15.0065 91.1174 14.7274 91.1401 14.4995C91.1743 14.2716 91.2199 14.0951 91.2769 13.9697C91.3338 13.833 91.4022 13.7362 91.4819 13.6792C91.5731 13.6222 91.6756 13.5938 91.7896 13.5938H93.6011V10.1929C93.6011 10.0789 93.6296 9.9764 93.6865 9.88525C93.7549 9.79411 93.8688 9.72005 94.0283 9.66309C94.1992 9.59473 94.4214 9.54915 94.6948 9.52637C94.9797 9.49219 95.3271 9.4751 95.7373 9.4751C96.1589 9.4751 96.5063 9.49219 96.7798 9.52637C97.0646 9.54915 97.2868 9.59473 97.4463 9.66309C97.6058 9.72005 97.7197 9.79411 97.7881 9.88525C97.8564 9.9764 97.8906 10.0789 97.8906 10.1929V13.5938H101.206C101.32 13.5938 101.417 13.6222 101.497 13.6792C101.588 13.7362 101.662 13.833 101.719 13.9697C101.776 14.0951 101.816 14.2716 101.838 14.4995C101.873 14.7274 101.89 15.0065 101.89 15.3369C101.89 15.9635 101.833 16.4136 101.719 16.687C101.605 16.9491 101.44 17.0801 101.223 17.0801H97.8906V24.2407C97.8906 25.0724 98.0216 25.6991 98.2837 26.1206C98.5457 26.5308 99.0129 26.7358 99.6851 26.7358C99.9129 26.7358 100.118 26.7188 100.3 26.6846C100.483 26.639 100.642 26.5934 100.779 26.5479C100.927 26.4909 101.047 26.4453 101.138 26.4111C101.24 26.3656 101.331 26.3428 101.411 26.3428C101.479 26.3428 101.542 26.3656 101.599 26.4111C101.667 26.4453 101.719 26.5251 101.753 26.6504C101.787 26.7643 101.816 26.9238 101.838 27.1289C101.873 27.334 101.89 27.596 101.89 27.915ZM115.732 25.1123C115.732 25.9782 115.567 26.7415 115.237 27.4023C114.918 28.0632 114.462 28.6157 113.87 29.0601C113.277 29.5044 112.576 29.8348 111.768 30.0513C110.959 30.2791 110.081 30.3931 109.136 30.3931C108.566 30.3931 108.019 30.3475 107.495 30.2563C106.982 30.1766 106.521 30.0741 106.111 29.9487C105.701 29.812 105.359 29.6753 105.085 29.5386C104.812 29.4019 104.613 29.2765 104.487 29.1626C104.362 29.0373 104.265 28.8493 104.197 28.5986C104.128 28.3366 104.094 27.9549 104.094 27.4536C104.094 27.1232 104.106 26.8612 104.128 26.6675C104.151 26.4624 104.185 26.3029 104.231 26.189C104.277 26.0636 104.333 25.9839 104.402 25.9497C104.47 25.9041 104.556 25.8813 104.658 25.8813C104.784 25.8813 104.966 25.9554 105.205 26.1035C105.456 26.2402 105.763 26.394 106.128 26.5649C106.493 26.7358 106.914 26.8953 107.393 27.0435C107.882 27.1916 108.435 27.2656 109.05 27.2656C109.438 27.2656 109.779 27.2257 110.076 27.146C110.383 27.0662 110.645 26.9523 110.862 26.8042C111.09 26.6561 111.261 26.4681 111.375 26.2402C111.488 26.0124 111.545 25.7503 111.545 25.4541C111.545 25.1123 111.437 24.8218 111.221 24.5825C111.016 24.3319 110.736 24.1154 110.383 23.9331C110.042 23.7508 109.648 23.5799 109.204 23.4204C108.771 23.2609 108.321 23.0843 107.854 22.8906C107.398 22.6969 106.948 22.4748 106.504 22.2241C106.071 21.9735 105.678 21.6659 105.325 21.3013C104.983 20.9367 104.704 20.498 104.487 19.9854C104.282 19.4727 104.18 18.8574 104.18 18.1396C104.18 17.4105 104.322 16.744 104.607 16.1401C104.892 15.5249 105.302 15.0008 105.837 14.5679C106.373 14.1349 107.022 13.7988 107.786 13.5596C108.56 13.3203 109.426 13.2007 110.383 13.2007C110.862 13.2007 111.323 13.2349 111.768 13.3032C112.223 13.3716 112.633 13.457 112.998 13.5596C113.363 13.6621 113.67 13.776 113.921 13.9014C114.172 14.0153 114.348 14.1178 114.451 14.209C114.565 14.2887 114.644 14.3742 114.69 14.4653C114.736 14.5451 114.77 14.6476 114.792 14.7729C114.815 14.8869 114.832 15.035 114.844 15.2173C114.867 15.3882 114.878 15.6047 114.878 15.8667C114.878 16.1743 114.867 16.425 114.844 16.6187C114.832 16.8123 114.804 16.9661 114.758 17.0801C114.724 17.194 114.673 17.2738 114.604 17.3193C114.536 17.3535 114.456 17.3706 114.365 17.3706C114.263 17.3706 114.103 17.3136 113.887 17.1997C113.67 17.0744 113.397 16.9434 113.066 16.8066C112.747 16.6699 112.371 16.5446 111.938 16.4307C111.517 16.3053 111.033 16.2427 110.486 16.2427C110.098 16.2427 109.762 16.2826 109.478 16.3623C109.193 16.4421 108.959 16.556 108.777 16.7041C108.595 16.8522 108.458 17.0288 108.367 17.2339C108.276 17.4276 108.23 17.6383 108.23 17.8662C108.23 18.2194 108.338 18.5156 108.555 18.7549C108.771 18.9941 109.056 19.2049 109.409 19.3872C109.762 19.5695 110.161 19.7404 110.605 19.8999C111.061 20.0594 111.517 20.236 111.973 20.4297C112.44 20.612 112.896 20.8285 113.34 21.0791C113.796 21.3298 114.2 21.6374 114.553 22.002C114.906 22.3665 115.191 22.8052 115.408 23.3179C115.624 23.8192 115.732 24.4173 115.732 25.1123Z" fill="black"/>
<rect x="35" y="6" width="10" height="3" rx="1.5" fill="black"/>
</svg>
