<svg width="166" height="50" viewBox="0 0 166 50" fill="none" xmlns="http://www.w3.org/2000/svg">
<path d="M15.5176 23.3691C15.5176 24.5312 15.3011 25.5509 14.8682 26.4282C14.4352 27.3055 13.8485 28.0404 13.1079 28.6328C12.3674 29.2139 11.5015 29.6525 10.5103 29.9487C9.51904 30.245 8.45947 30.3931 7.33154 30.3931C6.5682 30.3931 5.85612 30.3304 5.19531 30.2051C4.5459 30.0798 3.97054 29.9316 3.46924 29.7607C2.96794 29.5785 2.54639 29.3905 2.20459 29.1968C1.87419 29.0031 1.63493 28.8322 1.48682 28.6841C1.3387 28.536 1.23047 28.3252 1.16211 28.0518C1.10514 27.7669 1.07666 27.3625 1.07666 26.8384C1.07666 26.4852 1.08805 26.189 1.11084 25.9497C1.13363 25.7104 1.16781 25.5168 1.21338 25.3687C1.27035 25.2205 1.3387 25.118 1.41846 25.061C1.5096 24.9927 1.61214 24.9585 1.72607 24.9585C1.88558 24.9585 2.10775 25.0553 2.39258 25.249C2.6888 25.4313 3.06478 25.6364 3.52051 25.8643C3.97624 26.0921 4.51742 26.3029 5.14404 26.4966C5.78206 26.6789 6.51693 26.77 7.34863 26.77C7.89551 26.77 8.38542 26.7074 8.81836 26.582C9.2513 26.4453 9.61589 26.2573 9.91211 26.0181C10.2197 25.7788 10.4533 25.4826 10.6128 25.1294C10.7723 24.7762 10.8521 24.3831 10.8521 23.9502C10.8521 23.4489 10.7153 23.0216 10.4419 22.6685C10.1685 22.3039 9.80957 21.9849 9.36523 21.7114C8.93229 21.4266 8.43669 21.1646 7.87842 20.9253C7.32015 20.6746 6.74479 20.4126 6.15234 20.1392C5.5599 19.8657 4.98454 19.5581 4.42627 19.2163C3.868 18.8631 3.3667 18.4473 2.92236 17.9688C2.48942 17.4788 2.13623 16.9035 1.86279 16.2427C1.58936 15.5819 1.45264 14.79 1.45264 13.8672C1.45264 12.8076 1.64632 11.8791 2.03369 11.0815C2.43245 10.2726 2.96224 9.60612 3.62305 9.08203C4.29525 8.54655 5.08138 8.14779 5.98145 7.88574C6.8929 7.6237 7.85563 7.49268 8.86963 7.49268C9.39372 7.49268 9.91781 7.53255 10.4419 7.6123C10.966 7.69206 11.4559 7.80029 11.9116 7.93701C12.3674 8.07373 12.7718 8.22754 13.125 8.39844C13.4782 8.56934 13.7118 8.71175 13.8257 8.82568C13.9396 8.93962 14.0137 9.03646 14.0479 9.11621C14.0934 9.19596 14.1276 9.3042 14.1504 9.44092C14.1846 9.56624 14.2074 9.73145 14.2188 9.93652C14.2301 10.1302 14.2358 10.3752 14.2358 10.6714C14.2358 11.0018 14.2244 11.2809 14.2017 11.5088C14.1903 11.7367 14.1618 11.9246 14.1162 12.0728C14.082 12.2209 14.0251 12.3291 13.9453 12.3975C13.877 12.4658 13.7801 12.5 13.6548 12.5C13.5295 12.5 13.3301 12.4202 13.0566 12.2607C12.7832 12.1012 12.4471 11.9303 12.0483 11.748C11.6496 11.5544 11.1882 11.3835 10.6641 11.2354C10.14 11.0758 9.56462 10.9961 8.93799 10.9961C8.44808 10.9961 8.02083 11.0588 7.65625 11.1841C7.29167 11.298 6.98405 11.4632 6.7334 11.6797C6.49414 11.8848 6.31185 12.1354 6.18652 12.4316C6.07259 12.7279 6.01562 13.0412 6.01562 13.3716C6.01562 13.8615 6.14665 14.2887 6.40869 14.6533C6.68213 15.0065 7.04102 15.3255 7.48535 15.6104C7.94108 15.8838 8.45378 16.1458 9.02344 16.3965C9.5931 16.6357 10.1742 16.8921 10.7666 17.1655C11.359 17.439 11.9401 17.7523 12.5098 18.1055C13.0794 18.4473 13.5864 18.8631 14.0308 19.353C14.4751 19.8315 14.834 20.4012 15.1074 21.062C15.3809 21.7114 15.5176 22.4805 15.5176 23.3691ZM31.6846 29.4702C31.6846 29.6297 31.6276 29.755 31.5137 29.8462C31.3997 29.9373 31.2174 30 30.9668 30.0342C30.7275 30.0798 30.3687 30.1025 29.8901 30.1025C29.3774 30.1025 29.0015 30.0798 28.7622 30.0342C28.5343 30 28.3691 29.9373 28.2666 29.8462C28.1755 29.755 28.1299 29.6297 28.1299 29.4702V28.2568C27.5033 28.929 26.7855 29.4531 25.9766 29.8291C25.179 30.2051 24.2904 30.3931 23.3105 30.3931C22.5016 30.3931 21.7554 30.2848 21.0718 30.0684C20.3996 29.8633 19.8128 29.5557 19.3115 29.1455C18.8216 28.724 18.4399 28.2056 18.1665 27.5903C17.8931 26.9751 17.7563 26.2573 17.7563 25.437C17.7563 24.5483 17.9272 23.7793 18.269 23.1299C18.6222 22.4691 19.1406 21.9279 19.8242 21.5063C20.5192 21.0734 21.3794 20.7544 22.4048 20.5493C23.4302 20.3442 24.6208 20.2417 25.9766 20.2417H27.4634V19.3188C27.4634 18.8403 27.4121 18.4245 27.3096 18.0713C27.2184 17.7067 27.0589 17.4048 26.8311 17.1655C26.6146 16.9263 26.3184 16.7497 25.9424 16.6357C25.5778 16.5218 25.1221 16.4648 24.5752 16.4648C23.8574 16.4648 23.2137 16.5446 22.644 16.7041C22.0858 16.8636 21.5902 17.0402 21.1572 17.2339C20.7243 17.4276 20.3597 17.6042 20.0635 17.7637C19.7786 17.9232 19.5451 18.0029 19.3628 18.0029C19.2375 18.0029 19.1235 17.9631 19.021 17.8833C18.9299 17.8035 18.8501 17.6896 18.7817 17.5415C18.7248 17.3934 18.6792 17.2111 18.645 16.9946C18.6108 16.7782 18.5938 16.5389 18.5938 16.2769C18.5938 15.9237 18.6222 15.6445 18.6792 15.4395C18.7362 15.2344 18.8444 15.0521 19.0039 14.8926C19.1634 14.7217 19.4425 14.5394 19.8413 14.3457C20.2401 14.1406 20.7072 13.9526 21.2427 13.7817C21.7782 13.6108 22.3592 13.4741 22.9858 13.3716C23.6239 13.2576 24.279 13.2007 24.9512 13.2007C26.1475 13.2007 27.1672 13.3203 28.0103 13.5596C28.8647 13.7874 29.5654 14.1463 30.1123 14.6362C30.6592 15.1147 31.0579 15.7357 31.3086 16.499C31.5592 17.2624 31.6846 18.1681 31.6846 19.2163V29.4702ZM27.4634 22.9419H25.8228C25.1278 22.9419 24.5353 22.9932 24.0454 23.0957C23.5555 23.1982 23.1567 23.3521 22.8491 23.5571C22.5415 23.7622 22.3136 24.0129 22.1655 24.3091C22.0288 24.5939 21.9604 24.9243 21.9604 25.3003C21.9604 25.9383 22.1598 26.4396 22.5586 26.8042C22.9688 27.1688 23.5327 27.3511 24.2505 27.3511C24.8543 27.3511 25.4069 27.1973 25.9082 26.8896C26.4209 26.582 26.9393 26.132 27.4634 25.5396V22.9419ZM50.5518 29.4189C50.5518 29.5329 50.5176 29.6354 50.4492 29.7266C50.3809 29.8063 50.2669 29.8747 50.1074 29.9316C49.9479 29.9886 49.7257 30.0285 49.4409 30.0513C49.1675 30.0854 48.8257 30.1025 48.4155 30.1025C47.994 30.1025 47.6408 30.0854 47.356 30.0513C47.0825 30.0285 46.866 29.9886 46.7065 29.9316C46.547 29.8747 46.4331 29.8063 46.3647 29.7266C46.2964 29.6354 46.2622 29.5329 46.2622 29.4189V20.7202C46.2622 19.9797 46.2052 19.3986 46.0913 18.9771C45.9888 18.5555 45.835 18.1966 45.6299 17.9004C45.4248 17.5928 45.1571 17.3592 44.8267 17.1997C44.5076 17.0288 44.1317 16.9434 43.6987 16.9434C43.1519 16.9434 42.5993 17.1427 42.041 17.5415C41.4827 17.9403 40.9017 18.5213 40.2979 19.2847V29.4189C40.2979 29.5329 40.2637 29.6354 40.1953 29.7266C40.127 29.8063 40.0073 29.8747 39.8364 29.9316C39.6769 29.9886 39.4604 30.0285 39.187 30.0513C38.9136 30.0854 38.5661 30.1025 38.1445 30.1025C37.723 30.1025 37.3755 30.0854 37.1021 30.0513C36.8286 30.0285 36.6064 29.9886 36.4355 29.9316C36.276 29.8747 36.1621 29.8063 36.0938 29.7266C36.0254 29.6354 35.9912 29.5329 35.9912 29.4189V6.9458C35.9912 6.83187 36.0254 6.72933 36.0938 6.63818C36.1621 6.54704 36.276 6.47298 36.4355 6.41602C36.6064 6.34766 36.8286 6.29639 37.1021 6.26221C37.3755 6.22803 37.723 6.21094 38.1445 6.21094C38.5661 6.21094 38.9136 6.22803 39.187 6.26221C39.4604 6.29639 39.6769 6.34766 39.8364 6.41602C40.0073 6.47298 40.127 6.54704 40.1953 6.63818C40.2637 6.72933 40.2979 6.83187 40.2979 6.9458V15.3711C41.0384 14.6419 41.7904 14.1007 42.5537 13.7476C43.3285 13.383 44.1317 13.2007 44.9634 13.2007C46.0002 13.2007 46.8717 13.3716 47.5781 13.7134C48.2959 14.0552 48.8713 14.5223 49.3042 15.1147C49.7485 15.7072 50.0675 16.4022 50.2612 17.1997C50.4549 17.9858 50.5518 18.9429 50.5518 20.0708V29.4189ZM59.0967 29.4189C59.0967 29.5329 59.0625 29.6354 58.9941 29.7266C58.9258 29.8063 58.8062 29.8747 58.6353 29.9316C58.4757 29.9886 58.2593 30.0285 57.9858 30.0513C57.7124 30.0854 57.3649 30.1025 56.9434 30.1025C56.5218 30.1025 56.1743 30.0854 55.9009 30.0513C55.6274 30.0285 55.4053 29.9886 55.2344 29.9316C55.0749 29.8747 54.9609 29.8063 54.8926 29.7266C54.8242 29.6354 54.79 29.5329 54.79 29.4189V14.209C54.79 14.0951 54.8242 13.9982 54.8926 13.9185C54.9609 13.8273 55.0749 13.7533 55.2344 13.6963C55.4053 13.6279 55.6274 13.5767 55.9009 13.5425C56.1743 13.5083 56.5218 13.4912 56.9434 13.4912C57.3649 13.4912 57.7124 13.5083 57.9858 13.5425C58.2593 13.5767 58.4757 13.6279 58.6353 13.6963C58.8062 13.7533 58.9258 13.8273 58.9941 13.9185C59.0625 13.9982 59.0967 14.0951 59.0967 14.209V29.4189ZM59.4214 9.01367C59.4214 9.87956 59.2448 10.4777 58.8916 10.8081C58.5384 11.1385 57.8833 11.3037 56.9263 11.3037C55.9578 11.3037 55.3027 11.1442 54.9609 10.8252C54.6305 10.5062 54.4653 9.93083 54.4653 9.09912C54.4653 8.23324 54.6362 7.63509 54.978 7.30469C55.3312 6.96289 55.992 6.79199 56.9604 6.79199C57.9175 6.79199 58.5669 6.95719 58.9087 7.2876C59.2505 7.60661 59.4214 8.18197 59.4214 9.01367ZM67.71 29.4189C67.71 29.5329 67.6758 29.6354 67.6074 29.7266C67.5391 29.8063 67.4194 29.8747 67.2485 29.9316C67.089 29.9886 66.8726 30.0285 66.5991 30.0513C66.3257 30.0854 65.9782 30.1025 65.5566 30.1025C65.1351 30.1025 64.7876 30.0854 64.5142 30.0513C64.2407 30.0285 64.0186 29.9886 63.8477 29.9316C63.6882 29.8747 63.5742 29.8063 63.5059 29.7266C63.4375 29.6354 63.4033 29.5329 63.4033 29.4189V6.9458C63.4033 6.83187 63.4375 6.72933 63.5059 6.63818C63.5742 6.54704 63.6882 6.47298 63.8477 6.41602C64.0186 6.34766 64.2407 6.29639 64.5142 6.26221C64.7876 6.22803 65.1351 6.21094 65.5566 6.21094C65.9782 6.21094 66.3257 6.22803 66.5991 6.26221C66.8726 6.29639 67.089 6.34766 67.2485 6.41602C67.4194 6.47298 67.5391 6.54704 67.6074 6.63818C67.6758 6.72933 67.71 6.83187 67.71 6.9458V29.4189Z" fill="#0092E4"/>
<rect x="21" y="7" width="10" height="3" rx="1.5" fill="#0092E4"/>
<path d="M8.05957 37.5283C8.05957 37.6605 8.05273 37.7744 8.03906 37.8701C8.02995 37.9658 8.014 38.0433 7.99121 38.1025C7.97298 38.1572 7.94792 38.196 7.91602 38.2188C7.88867 38.2415 7.85449 38.2529 7.81348 38.2529C7.75423 38.2529 7.65853 38.2119 7.52637 38.1299C7.39421 38.0479 7.21875 37.959 7 37.8633C6.78125 37.7676 6.51921 37.6787 6.21387 37.5967C5.91309 37.5146 5.56217 37.4736 5.16113 37.4736C4.73275 37.4736 4.34538 37.5488 3.99902 37.6992C3.65267 37.8451 3.35645 38.0547 3.11035 38.3281C2.86426 38.597 2.67513 38.9229 2.54297 39.3057C2.41081 39.6839 2.34473 40.1032 2.34473 40.5635C2.34473 41.0693 2.41081 41.516 2.54297 41.9033C2.67969 42.2861 2.86882 42.6074 3.11035 42.8672C3.35189 43.127 3.64128 43.3229 3.97852 43.4551C4.32031 43.5872 4.69629 43.6533 5.10645 43.6533C5.30697 43.6533 5.50521 43.6305 5.70117 43.585C5.89714 43.5394 6.07943 43.471 6.24805 43.3799V41.3291H4.57324C4.49121 41.3291 4.42741 41.279 4.38184 41.1787C4.33626 41.0739 4.31348 40.8984 4.31348 40.6523C4.31348 40.5247 4.31803 40.4176 4.32715 40.3311C4.34082 40.2445 4.35905 40.1761 4.38184 40.126C4.40462 40.0713 4.43197 40.0326 4.46387 40.0098C4.49577 39.9824 4.53223 39.9688 4.57324 39.9688H7.56055C7.63346 39.9688 7.69727 39.9824 7.75195 40.0098C7.8112 40.0326 7.86133 40.069 7.90234 40.1191C7.94792 40.1693 7.9821 40.2308 8.00488 40.3037C8.02767 40.3721 8.03906 40.4518 8.03906 40.543V44.0635C8.03906 44.2002 8.014 44.321 7.96387 44.4258C7.91829 44.526 7.82031 44.6058 7.66992 44.665C7.52409 44.7243 7.3418 44.7858 7.12305 44.8496C6.9043 44.9134 6.67643 44.9681 6.43945 45.0137C6.20703 45.0592 5.97005 45.0934 5.72852 45.1162C5.49154 45.139 5.25228 45.1504 5.01074 45.1504C4.30436 45.1504 3.6709 45.0501 3.11035 44.8496C2.55436 44.6445 2.08268 44.3506 1.69531 43.9678C1.30794 43.5804 1.01172 43.111 0.806641 42.5596C0.601562 42.0036 0.499023 41.3747 0.499023 40.6729C0.499023 39.9482 0.608398 39.2988 0.827148 38.7246C1.0459 38.1458 1.35579 37.6559 1.75684 37.2549C2.15788 36.8493 2.64095 36.5394 3.20605 36.3252C3.77572 36.111 4.40918 36.0039 5.10645 36.0039C5.48926 36.0039 5.83789 36.0312 6.15234 36.0859C6.4668 36.1361 6.74023 36.1999 6.97266 36.2773C7.20964 36.3503 7.4056 36.43 7.56055 36.5166C7.71549 36.6032 7.82259 36.6784 7.88184 36.7422C7.94564 36.806 7.99121 36.8971 8.01855 37.0156C8.0459 37.1296 8.05957 37.3005 8.05957 37.5283ZM16.8741 44.7676C16.8741 44.8177 16.865 44.861 16.8468 44.8975C16.8285 44.9294 16.7852 44.9567 16.7169 44.9795C16.6485 45.0023 16.5483 45.0182 16.4161 45.0273C16.2839 45.0365 16.1039 45.041 15.8761 45.041C15.6846 45.041 15.532 45.0365 15.418 45.0273C15.3041 45.0182 15.213 45.0023 15.1446 44.9795C15.0808 44.9521 15.0352 44.9202 15.0079 44.8838C14.9805 44.8428 14.9578 44.7949 14.9395 44.7402L14.1466 42.7646C14.0509 42.5413 13.9574 42.3431 13.8663 42.1699C13.7751 41.9967 13.6726 41.8532 13.5587 41.7393C13.4493 41.6208 13.3217 41.5319 13.1759 41.4727C13.03 41.4134 12.8614 41.3838 12.67 41.3838H12.1095V44.7539C12.1095 44.7995 12.0935 44.8405 12.0616 44.877C12.0343 44.9134 11.9864 44.943 11.918 44.9658C11.8497 44.9886 11.7585 45.0068 11.6446 45.0205C11.5307 45.0342 11.3848 45.041 11.2071 45.041C11.0339 45.041 10.8881 45.0342 10.7696 45.0205C10.6557 45.0068 10.5645 44.9886 10.4962 44.9658C10.4278 44.943 10.38 44.9134 10.3526 44.877C10.3253 44.8405 10.3116 44.7995 10.3116 44.7539V36.7217C10.3116 36.5212 10.3617 36.3776 10.462 36.291C10.5668 36.1999 10.6944 36.1543 10.8448 36.1543H13.1348C13.3673 36.1543 13.5587 36.1589 13.7091 36.168C13.8595 36.1771 13.9962 36.1885 14.1192 36.2021C14.4747 36.2523 14.7937 36.3389 15.0763 36.4619C15.3634 36.585 15.6049 36.7467 15.8009 36.9473C16.0014 37.1432 16.154 37.3779 16.2589 37.6514C16.3637 37.9202 16.4161 38.2301 16.4161 38.5811C16.4161 38.8773 16.3774 39.1484 16.2999 39.3945C16.227 39.6361 16.1176 39.8525 15.9718 40.0439C15.8259 40.2354 15.6459 40.4017 15.4317 40.543C15.2175 40.6842 14.9737 40.7982 14.7003 40.8848C14.8324 40.9486 14.9555 41.026 15.0694 41.1172C15.1879 41.2083 15.2973 41.32 15.3975 41.4521C15.5024 41.5798 15.6003 41.7279 15.6915 41.8965C15.7826 42.0605 15.8715 42.2474 15.9581 42.457L16.7032 44.2002C16.7716 44.3734 16.8171 44.501 16.8399 44.583C16.8627 44.6605 16.8741 44.722 16.8741 44.7676ZM14.5567 38.7656C14.5567 38.474 14.4906 38.2279 14.3585 38.0273C14.2263 37.8268 14.0098 37.6855 13.7091 37.6035C13.6179 37.5807 13.5131 37.5625 13.3946 37.5488C13.2807 37.5352 13.1212 37.5283 12.9161 37.5283H12.1095V40.0371H13.0255C13.2807 40.0371 13.504 40.0075 13.6954 39.9482C13.8868 39.8844 14.0463 39.7979 14.1739 39.6885C14.3015 39.5745 14.3972 39.4401 14.461 39.2852C14.5248 39.1302 14.5567 38.957 14.5567 38.7656ZM25.8664 44.3301C25.9211 44.4941 25.9552 44.624 25.9689 44.7197C25.9826 44.8154 25.9643 44.8883 25.9142 44.9385C25.8641 44.984 25.7752 45.0114 25.6476 45.0205C25.52 45.0342 25.3446 45.041 25.1213 45.041C24.8888 45.041 24.7065 45.0365 24.5744 45.0273C24.4468 45.0228 24.3488 45.0114 24.2804 44.9932C24.2121 44.9704 24.1642 44.9408 24.1369 44.9043C24.1095 44.8678 24.0867 44.82 24.0685 44.7607L23.4738 42.9834H20.1515L19.591 44.7129C19.5727 44.7767 19.5477 44.8314 19.5158 44.877C19.4884 44.918 19.4406 44.9521 19.3722 44.9795C19.3084 45.0023 19.215 45.0182 19.092 45.0273C18.9735 45.0365 18.8162 45.041 18.6203 45.041C18.4106 45.041 18.2466 45.0342 18.1281 45.0205C18.0096 45.0068 17.9276 44.9749 17.882 44.9248C17.8364 44.8701 17.8205 44.7949 17.8341 44.6992C17.8478 44.6035 17.882 44.4759 17.9367 44.3164L20.6642 36.4688C20.6916 36.3913 20.7235 36.3298 20.7599 36.2842C20.7964 36.234 20.8533 36.1976 20.9308 36.1748C21.0129 36.1475 21.1245 36.1315 21.2658 36.127C21.4071 36.1178 21.5939 36.1133 21.8263 36.1133C22.0952 36.1133 22.3094 36.1178 22.4689 36.127C22.6284 36.1315 22.7515 36.1475 22.838 36.1748C22.9292 36.1976 22.993 36.234 23.0295 36.2842C23.0705 36.3343 23.1046 36.4027 23.132 36.4893L25.8664 44.3301ZM21.8058 37.8428H21.799L20.548 41.6025H23.0568L21.8058 37.8428ZM33.5871 38.8408C33.5871 39.3376 33.5097 39.7773 33.3547 40.1602C33.1998 40.543 32.9742 40.8665 32.678 41.1309C32.3817 41.3906 32.0172 41.5889 31.5842 41.7256C31.1558 41.8623 30.65 41.9307 30.0666 41.9307H29.3284V44.7539C29.3284 44.7995 29.3124 44.8405 29.2805 44.877C29.2532 44.9134 29.2053 44.943 29.137 44.9658C29.0686 44.9886 28.9774 45.0068 28.8635 45.0205C28.7496 45.0342 28.6038 45.041 28.426 45.041C28.2528 45.041 28.107 45.0342 27.9885 45.0205C27.8746 45.0068 27.7834 44.9886 27.7151 44.9658C27.6467 44.943 27.5989 44.9134 27.5715 44.877C27.5442 44.8405 27.5305 44.7995 27.5305 44.7539V36.7969C27.5305 36.5827 27.5852 36.4232 27.6946 36.3184C27.8085 36.209 27.9566 36.1543 28.1389 36.1543H30.2239C30.4335 36.1543 30.6317 36.1634 30.8186 36.1816C31.01 36.1953 31.2379 36.2295 31.5022 36.2842C31.7665 36.3343 32.0331 36.43 32.302 36.5713C32.5754 36.7126 32.8079 36.8926 32.9993 37.1113C33.1907 37.3255 33.3365 37.5785 33.4368 37.8701C33.537 38.1572 33.5871 38.4808 33.5871 38.8408ZM31.7073 38.9707C31.7073 38.6608 31.6526 38.4056 31.5432 38.2051C31.4338 38.0046 31.2994 37.8564 31.1399 37.7607C30.9804 37.665 30.8118 37.6058 30.634 37.583C30.4608 37.5557 30.2808 37.542 30.094 37.542H29.3284V40.543H30.135C30.4221 40.543 30.6614 40.5042 30.8528 40.4268C31.0487 40.3493 31.2082 40.2422 31.3313 40.1055C31.4543 39.9642 31.5478 39.7979 31.6116 39.6064C31.6754 39.4105 31.7073 39.1986 31.7073 38.9707ZM42.306 44.7539C42.306 44.7995 42.29 44.8405 42.2581 44.877C42.2308 44.9134 42.1829 44.943 42.1146 44.9658C42.0462 44.9886 41.9551 45.0068 41.8411 45.0205C41.7272 45.0342 41.5836 45.041 41.4105 45.041C41.2327 45.041 41.0846 45.0342 40.9661 45.0205C40.8522 45.0068 40.7611 44.9886 40.6927 44.9658C40.6289 44.943 40.581 44.9134 40.5491 44.877C40.5218 44.8405 40.5081 44.7995 40.5081 44.7539V41.1787H37.1995V44.7539C37.1995 44.7995 37.1859 44.8405 37.1585 44.877C37.1312 44.9134 37.0833 44.943 37.015 44.9658C36.9466 44.9886 36.8555 45.0068 36.7415 45.0205C36.6276 45.0342 36.4818 45.041 36.304 45.041C36.1308 45.041 35.985 45.0342 35.8665 45.0205C35.7526 45.0068 35.6614 44.9886 35.5931 44.9658C35.5247 44.943 35.4746 44.9134 35.4427 44.877C35.4154 44.8405 35.4017 44.7995 35.4017 44.7539V36.4004C35.4017 36.3548 35.4154 36.3138 35.4427 36.2773C35.4746 36.2409 35.5247 36.2113 35.5931 36.1885C35.6614 36.1657 35.7526 36.1475 35.8665 36.1338C35.985 36.1201 36.1308 36.1133 36.304 36.1133C36.4818 36.1133 36.6276 36.1201 36.7415 36.1338C36.8555 36.1475 36.9466 36.1657 37.015 36.1885C37.0833 36.2113 37.1312 36.2409 37.1585 36.2773C37.1859 36.3138 37.1995 36.3548 37.1995 36.4004V39.6475H40.5081V36.4004C40.5081 36.3548 40.5218 36.3138 40.5491 36.2773C40.581 36.2409 40.6289 36.2113 40.6927 36.1885C40.7611 36.1657 40.8522 36.1475 40.9661 36.1338C41.0846 36.1201 41.2327 36.1133 41.4105 36.1133C41.5836 36.1133 41.7272 36.1201 41.8411 36.1338C41.9551 36.1475 42.0462 36.1657 42.1146 36.1885C42.1829 36.2113 42.2308 36.2409 42.2581 36.2773C42.29 36.3138 42.306 36.3548 42.306 36.4004V44.7539ZM46.4584 44.7539C46.4584 44.7995 46.4424 44.8405 46.4105 44.877C46.3832 44.9134 46.3354 44.943 46.267 44.9658C46.1986 44.9886 46.1075 45.0068 45.9936 45.0205C45.8796 45.0342 45.7338 45.041 45.5561 45.041C45.3829 45.041 45.237 45.0342 45.1186 45.0205C45.0046 45.0068 44.9135 44.9886 44.8451 44.9658C44.7768 44.943 44.7266 44.9134 44.6947 44.877C44.6674 44.8405 44.6537 44.7995 44.6537 44.7539V36.4004C44.6537 36.3548 44.6674 36.3138 44.6947 36.2773C44.7266 36.2409 44.7768 36.2113 44.8451 36.1885C44.918 36.1657 45.0115 36.1475 45.1254 36.1338C45.2393 36.1201 45.3829 36.1133 45.5561 36.1133C45.7338 36.1133 45.8796 36.1201 45.9936 36.1338C46.1075 36.1475 46.1986 36.1657 46.267 36.1885C46.3354 36.2113 46.3832 36.2409 46.4105 36.2773C46.4424 36.3138 46.4584 36.3548 46.4584 36.4004V44.7539ZM54.9243 43.6602C54.9243 43.7741 54.9197 43.8721 54.9106 43.9541C54.9061 44.0316 54.897 44.0999 54.8833 44.1592C54.8696 44.2139 54.8514 44.2617 54.8286 44.3027C54.8058 44.3438 54.7693 44.3916 54.7192 44.4463C54.6691 44.4964 54.5711 44.5625 54.4253 44.6445C54.284 44.7266 54.1085 44.8063 53.8989 44.8838C53.6938 44.9567 53.4568 45.0182 53.188 45.0684C52.9236 45.1185 52.6365 45.1436 52.3266 45.1436C51.7205 45.1436 51.1736 45.0501 50.686 44.8633C50.1984 44.6764 49.7837 44.3984 49.4419 44.0293C49.1001 43.6556 48.838 43.1908 48.6557 42.6348C48.4735 42.0788 48.3823 41.4316 48.3823 40.6934C48.3823 39.9414 48.4826 39.2738 48.6831 38.6904C48.8836 38.1071 49.1639 37.6172 49.5239 37.2207C49.8839 36.8242 50.3146 36.5234 50.8159 36.3184C51.3218 36.1133 51.8777 36.0107 52.4839 36.0107C52.73 36.0107 52.9669 36.0312 53.1948 36.0723C53.4227 36.1133 53.6323 36.168 53.8237 36.2363C54.0197 36.3001 54.1951 36.3753 54.3501 36.4619C54.505 36.5485 54.6121 36.6237 54.6714 36.6875C54.7352 36.7467 54.7785 36.7969 54.8013 36.8379C54.824 36.8789 54.8423 36.9313 54.8559 36.9951C54.8696 37.0589 54.8787 37.1341 54.8833 37.2207C54.8924 37.3073 54.897 37.4144 54.897 37.542C54.897 37.6787 54.8924 37.7949 54.8833 37.8906C54.8742 37.9863 54.8582 38.0638 54.8354 38.123C54.8126 38.1823 54.7853 38.2256 54.7534 38.2529C54.7215 38.2803 54.685 38.2939 54.644 38.2939C54.5757 38.2939 54.4891 38.2552 54.3843 38.1777C54.2794 38.0957 54.1427 38.0068 53.9741 37.9111C53.81 37.8109 53.6118 37.722 53.3794 37.6445C53.1515 37.5625 52.8781 37.5215 52.5591 37.5215C52.2082 37.5215 51.8937 37.5944 51.6157 37.7402C51.3423 37.8815 51.1076 38.0866 50.9116 38.3555C50.7202 38.6198 50.5744 38.9411 50.4741 39.3193C50.3738 39.6976 50.3237 40.1237 50.3237 40.5977C50.3237 41.1172 50.3761 41.5684 50.4809 41.9512C50.5903 42.3294 50.743 42.6416 50.9389 42.8877C51.1395 43.1338 51.3787 43.3184 51.6567 43.4414C51.9393 43.5599 52.256 43.6191 52.6069 43.6191C52.9259 43.6191 53.2016 43.5827 53.4341 43.5098C53.6665 43.4323 53.8647 43.348 54.0288 43.2568C54.1974 43.1657 54.3341 43.0837 54.4389 43.0107C54.5483 42.9378 54.6326 42.9014 54.6919 42.9014C54.7374 42.9014 54.7739 42.9105 54.8013 42.9287C54.8286 42.9469 54.8514 42.9834 54.8696 43.0381C54.8878 43.0928 54.9015 43.1702 54.9106 43.2705C54.9197 43.3662 54.9243 43.4961 54.9243 43.6602ZM57.3951 46.7705C57.3723 46.8298 57.3427 46.8776 57.3062 46.9141C57.2698 46.9505 57.2173 46.9801 57.149 47.0029C57.0852 47.0257 57.0031 47.0417 56.9029 47.0508C56.8072 47.0645 56.6841 47.0713 56.5337 47.0713C56.3469 47.0713 56.1942 47.0622 56.0757 47.0439C55.9573 47.0257 55.8661 46.9984 55.8023 46.9619C55.7431 46.9255 55.7089 46.8776 55.6998 46.8184C55.6906 46.7637 55.6998 46.6976 55.7271 46.6201L59.815 35.1426C59.8332 35.0833 59.8606 35.0355 59.897 34.999C59.9335 34.958 59.9836 34.9261 60.0474 34.9033C60.1112 34.8805 60.1933 34.8646 60.2935 34.8555C60.3983 34.8418 60.5237 34.835 60.6695 34.835C60.8609 34.835 61.0136 34.8441 61.1275 34.8623C61.246 34.8805 61.3349 34.9079 61.3941 34.9443C61.4533 34.9808 61.4875 35.0286 61.4966 35.0879C61.5058 35.1426 61.4989 35.2087 61.4761 35.2861L57.3951 46.7705ZM72.3825 44.542C72.3551 44.6514 72.3164 44.7402 72.2663 44.8086C72.2207 44.8724 72.15 44.9225 72.0543 44.959C71.9586 44.9909 71.8356 45.0114 71.6852 45.0205C71.5348 45.0342 71.3434 45.041 71.111 45.041C70.8512 45.041 70.6416 45.0342 70.4821 45.0205C70.3271 45.0114 70.2041 44.9909 70.1129 44.959C70.0218 44.9225 69.9557 44.8724 69.9147 44.8086C69.8737 44.7402 69.8418 44.6514 69.819 44.542L68.4039 38.9365H68.3903L67.0504 44.542C67.0276 44.6468 66.9957 44.7334 66.9547 44.8018C66.9137 44.8656 66.8476 44.9157 66.7565 44.9521C66.6699 44.9886 66.5491 45.0114 66.3942 45.0205C66.2438 45.0342 66.0433 45.041 65.7926 45.041C65.5283 45.041 65.3164 45.0342 65.1569 45.0205C65.0019 45.0114 64.8789 44.9909 64.7877 44.959C64.6966 44.9225 64.6305 44.8724 64.5895 44.8086C64.5485 44.7402 64.5143 44.6514 64.487 44.542L62.4772 36.8242C62.4362 36.6602 62.4134 36.5326 62.4088 36.4414C62.4043 36.3457 62.4293 36.2728 62.484 36.2227C62.5433 36.1725 62.6367 36.1429 62.7643 36.1338C62.8965 36.1201 63.0788 36.1133 63.3112 36.1133C63.5254 36.1133 63.694 36.1178 63.817 36.127C63.9446 36.1315 64.0403 36.1475 64.1041 36.1748C64.1679 36.1976 64.2112 36.234 64.234 36.2842C64.2568 36.3298 64.275 36.3958 64.2887 36.4824L65.8405 43.2568H65.8473L67.4606 36.5303C67.4788 36.4437 67.5016 36.373 67.5289 36.3184C67.5608 36.2637 67.611 36.2227 67.6793 36.1953C67.7523 36.1634 67.8502 36.1429 67.9733 36.1338C68.0963 36.1201 68.2604 36.1133 68.4655 36.1133C68.6842 36.1133 68.8574 36.1178 68.985 36.127C69.1172 36.1361 69.2174 36.1566 69.2858 36.1885C69.3587 36.2158 69.4111 36.2568 69.443 36.3115C69.4749 36.3662 69.5 36.4391 69.5182 36.5303L71.1862 43.2568H71.1998L72.7516 36.5029C72.7653 36.43 72.7835 36.3685 72.8063 36.3184C72.8291 36.2637 72.8724 36.2227 72.9362 36.1953C73 36.1634 73.0911 36.1429 73.2096 36.1338C73.3281 36.1201 73.4944 36.1133 73.7086 36.1133C73.9092 36.1133 74.0641 36.1201 74.1735 36.1338C74.2874 36.1429 74.3694 36.1725 74.4196 36.2227C74.4697 36.2728 74.4902 36.348 74.4811 36.4482C74.4765 36.5439 74.4538 36.6761 74.4127 36.8447L72.3825 44.542ZM81.4226 44.2959C81.4226 44.4281 81.4157 44.5397 81.4021 44.6309C81.393 44.7174 81.377 44.7881 81.3542 44.8428C81.3314 44.8975 81.3018 44.9385 81.2654 44.9658C81.2334 44.9886 81.197 45 81.156 45H76.7126C76.5622 45 76.4346 44.9567 76.3298 44.8701C76.2295 44.779 76.1794 44.6331 76.1794 44.4326V36.7217C76.1794 36.5212 76.2295 36.3776 76.3298 36.291C76.4346 36.1999 76.5622 36.1543 76.7126 36.1543H81.1286C81.1696 36.1543 81.2061 36.1657 81.238 36.1885C81.2699 36.2113 81.2973 36.2523 81.32 36.3115C81.3428 36.3662 81.3588 36.4391 81.3679 36.5303C81.3816 36.6169 81.3884 36.7285 81.3884 36.8652C81.3884 36.9928 81.3816 37.1022 81.3679 37.1934C81.3588 37.2799 81.3428 37.3506 81.32 37.4053C81.2973 37.46 81.2699 37.501 81.238 37.5283C81.2061 37.5511 81.1696 37.5625 81.1286 37.5625H77.9704V39.7227H80.6433C80.6843 39.7227 80.7208 39.7363 80.7527 39.7637C80.7891 39.7865 80.8187 39.8252 80.8415 39.8799C80.8643 39.93 80.8803 40.0007 80.8894 40.0918C80.903 40.1784 80.9099 40.2855 80.9099 40.4131C80.9099 40.5452 80.903 40.6546 80.8894 40.7412C80.8803 40.8278 80.8643 40.8984 80.8415 40.9531C80.8187 41.0033 80.7891 41.0397 80.7527 41.0625C80.7208 41.0853 80.6843 41.0967 80.6433 41.0967H77.9704V43.5918H81.156C81.197 43.5918 81.2334 43.6055 81.2654 43.6328C81.3018 43.6556 81.3314 43.6943 81.3542 43.749C81.377 43.8037 81.393 43.8766 81.4021 43.9678C81.4157 44.0544 81.4226 44.1637 81.4226 44.2959ZM89.8406 42.3477C89.8406 42.6621 89.7973 42.9469 89.7107 43.2021C89.6242 43.4574 89.5034 43.6829 89.3484 43.8789C89.198 44.0749 89.0158 44.2435 88.8016 44.3848C88.5919 44.526 88.3595 44.6423 88.1043 44.7334C87.8491 44.8245 87.5756 44.8929 87.284 44.9385C86.9969 44.9795 86.6756 45 86.3201 45H83.9686C83.8182 45 83.6906 44.9567 83.5857 44.8701C83.4855 44.779 83.4353 44.6331 83.4353 44.4326V36.7217C83.4353 36.5212 83.4855 36.3776 83.5857 36.291C83.6906 36.1999 83.8182 36.1543 83.9686 36.1543H86.1902C86.7325 36.1543 87.1906 36.1999 87.5643 36.291C87.9425 36.3822 88.2592 36.5212 88.5145 36.708C88.7742 36.8903 88.9725 37.1227 89.1092 37.4053C89.2459 37.6878 89.3143 38.0205 89.3143 38.4033C89.3143 38.6175 89.2869 38.8203 89.2322 39.0117C89.1775 39.1986 89.0978 39.3695 88.993 39.5244C88.8881 39.6794 88.7583 39.8161 88.6033 39.9346C88.4529 40.0531 88.2797 40.1488 88.0838 40.2217C88.3344 40.2673 88.5646 40.347 88.7742 40.4609C88.9884 40.5749 89.173 40.723 89.3279 40.9053C89.4874 41.083 89.6128 41.2926 89.7039 41.5342C89.795 41.7757 89.8406 42.0469 89.8406 42.3477ZM87.5164 38.6221C87.5164 38.4443 87.4891 38.2848 87.4344 38.1436C87.3797 38.0023 87.2977 37.8861 87.1883 37.7949C87.0789 37.6992 86.9399 37.6263 86.7713 37.5762C86.6072 37.526 86.3862 37.501 86.1082 37.501H85.199V39.7979H86.2039C86.4637 39.7979 86.671 39.7682 86.826 39.709C86.9809 39.6452 87.1085 39.5609 87.2088 39.4561C87.3136 39.3467 87.3911 39.2214 87.4412 39.0801C87.4913 38.9342 87.5164 38.7816 87.5164 38.6221ZM87.9744 42.4092C87.9744 42.2041 87.9402 42.0218 87.8719 41.8623C87.8035 41.6982 87.7033 41.5615 87.5711 41.4521C87.4389 41.3428 87.2703 41.2585 87.0652 41.1992C86.8602 41.14 86.5936 41.1104 86.2654 41.1104H85.199V43.626H86.4978C86.7485 43.626 86.9581 43.6009 87.1268 43.5508C87.2999 43.4961 87.448 43.4186 87.5711 43.3184C87.6987 43.2135 87.7967 43.0859 87.865 42.9355C87.938 42.7806 87.9744 42.6051 87.9744 42.4092ZM102.644 40.4473C102.644 41.2585 102.536 41.9535 102.322 42.5322C102.113 43.1064 101.81 43.5758 101.413 43.9404C101.017 44.305 100.533 44.5739 99.9638 44.7471C99.3987 44.9157 98.7242 45 97.9404 45H95.8281C95.6777 45 95.5501 44.9567 95.4453 44.8701C95.345 44.779 95.2949 44.6331 95.2949 44.4326V36.7217C95.2949 36.5212 95.345 36.3776 95.4453 36.291C95.5501 36.1999 95.6777 36.1543 95.8281 36.1543H98.0976C98.886 36.1543 99.5537 36.2477 100.101 36.4346C100.652 36.6169 101.115 36.8903 101.488 37.2549C101.866 37.6149 102.154 38.0615 102.35 38.5947C102.546 39.1279 102.644 39.7454 102.644 40.4473ZM100.784 40.5088C100.784 40.0895 100.734 39.6999 100.634 39.3398C100.538 38.9798 100.381 38.6676 100.162 38.4033C99.9479 38.139 99.6699 37.9339 99.3281 37.7881C98.9908 37.6377 98.5465 37.5625 97.9951 37.5625H97.0859V43.5781H98.0224C98.5146 43.5781 98.9293 43.5143 99.2666 43.3867C99.6038 43.2591 99.8841 43.0677 100.107 42.8125C100.335 42.5527 100.504 42.2314 100.613 41.8486C100.727 41.4658 100.784 41.0192 100.784 40.5088ZM109.79 44.2959C109.79 44.4281 109.783 44.5397 109.77 44.6309C109.76 44.7174 109.745 44.7881 109.722 44.8428C109.699 44.8975 109.669 44.9385 109.633 44.9658C109.601 44.9886 109.564 45 109.523 45H105.08C104.93 45 104.802 44.9567 104.697 44.8701C104.597 44.779 104.547 44.6331 104.547 44.4326V36.7217C104.547 36.5212 104.597 36.3776 104.697 36.291C104.802 36.1999 104.93 36.1543 105.08 36.1543H109.496C109.537 36.1543 109.574 36.1657 109.606 36.1885C109.637 36.2113 109.665 36.2523 109.688 36.3115C109.71 36.3662 109.726 36.4391 109.735 36.5303C109.749 36.6169 109.756 36.7285 109.756 36.8652C109.756 36.9928 109.749 37.1022 109.735 37.1934C109.726 37.2799 109.71 37.3506 109.688 37.4053C109.665 37.46 109.637 37.501 109.606 37.5283C109.574 37.5511 109.537 37.5625 109.496 37.5625H106.338V39.7227H109.011C109.052 39.7227 109.088 39.7363 109.12 39.7637C109.157 39.7865 109.186 39.8252 109.209 39.8799C109.232 39.93 109.248 40.0007 109.257 40.0918C109.271 40.1784 109.277 40.2855 109.277 40.4131C109.277 40.5452 109.271 40.6546 109.257 40.7412C109.248 40.8278 109.232 40.8984 109.209 40.9531C109.186 41.0033 109.157 41.0397 109.12 41.0625C109.088 41.0853 109.052 41.0967 109.011 41.0967H106.338V43.5918H109.523C109.564 43.5918 109.601 43.6055 109.633 43.6328C109.669 43.6556 109.699 43.6943 109.722 43.749C109.745 43.8037 109.76 43.8766 109.77 43.9678C109.783 44.0544 109.79 44.1637 109.79 44.2959ZM116.205 44.6855C116.182 44.763 116.153 44.8268 116.116 44.877C116.08 44.9225 116.021 44.959 115.939 44.9863C115.857 45.0091 115.745 45.0228 115.604 45.0273C115.462 45.0365 115.278 45.041 115.05 45.041C114.868 45.041 114.71 45.0387 114.578 45.0342C114.451 45.0342 114.341 45.0296 114.25 45.0205C114.159 45.0114 114.084 44.9977 114.025 44.9795C113.97 44.9613 113.922 44.9385 113.881 44.9111C113.845 44.8838 113.815 44.8519 113.792 44.8154C113.774 44.7744 113.756 44.7243 113.737 44.665L111.106 36.8242C111.051 36.6602 111.017 36.5303 111.003 36.4346C110.994 36.3389 111.017 36.2682 111.071 36.2227C111.131 36.1725 111.229 36.1429 111.365 36.1338C111.502 36.1201 111.693 36.1133 111.94 36.1133C112.149 36.1133 112.313 36.1178 112.432 36.127C112.55 36.1361 112.641 36.152 112.705 36.1748C112.769 36.1976 112.812 36.2318 112.835 36.2773C112.862 36.3229 112.887 36.3799 112.91 36.4482L115.064 43.2705H115.07L117.183 36.4824C117.201 36.4049 117.224 36.3434 117.251 36.2979C117.278 36.2477 117.324 36.209 117.388 36.1816C117.456 36.1543 117.552 36.1361 117.675 36.127C117.798 36.1178 117.967 36.1133 118.181 36.1133C118.39 36.1133 118.552 36.1201 118.666 36.1338C118.785 36.1475 118.864 36.1816 118.905 36.2363C118.951 36.2865 118.965 36.3594 118.946 36.4551C118.933 36.5508 118.899 36.6784 118.844 36.8379L116.205 44.6855ZM125.751 44.2959C125.751 44.4281 125.744 44.5397 125.731 44.6309C125.722 44.7174 125.706 44.7881 125.683 44.8428C125.66 44.8975 125.63 44.9385 125.594 44.9658C125.562 44.9886 125.526 45 125.485 45H121.041C120.891 45 120.763 44.9567 120.658 44.8701C120.558 44.779 120.508 44.6331 120.508 44.4326V36.7217C120.508 36.5212 120.558 36.3776 120.658 36.291C120.763 36.1999 120.891 36.1543 121.041 36.1543H125.457C125.498 36.1543 125.535 36.1657 125.567 36.1885C125.599 36.2113 125.626 36.2523 125.649 36.3115C125.671 36.3662 125.687 36.4391 125.696 36.5303C125.71 36.6169 125.717 36.7285 125.717 36.8652C125.717 36.9928 125.71 37.1022 125.696 37.1934C125.687 37.2799 125.671 37.3506 125.649 37.4053C125.626 37.46 125.599 37.501 125.567 37.5283C125.535 37.5511 125.498 37.5625 125.457 37.5625H122.299V39.7227H124.972C125.013 39.7227 125.049 39.7363 125.081 39.7637C125.118 39.7865 125.147 39.8252 125.17 39.8799C125.193 39.93 125.209 40.0007 125.218 40.0918C125.232 40.1784 125.238 40.2855 125.238 40.4131C125.238 40.5452 125.232 40.6546 125.218 40.7412C125.209 40.8278 125.193 40.8984 125.17 40.9531C125.147 41.0033 125.118 41.0397 125.081 41.0625C125.049 41.0853 125.013 41.0967 124.972 41.0967H122.299V43.5918H125.485C125.526 43.5918 125.562 43.6055 125.594 43.6328C125.63 43.6556 125.66 43.6943 125.683 43.749C125.706 43.8037 125.722 43.8766 125.731 43.9678C125.744 44.0544 125.751 44.1637 125.751 44.2959ZM132.624 44.248C132.624 44.3848 132.617 44.501 132.604 44.5967C132.595 44.6878 132.579 44.7653 132.556 44.8291C132.533 44.8883 132.504 44.9316 132.467 44.959C132.435 44.9863 132.396 45 132.351 45H128.297C128.147 45 128.019 44.9567 127.914 44.8701C127.814 44.779 127.764 44.6331 127.764 44.4326V36.4004C127.764 36.3548 127.778 36.3138 127.805 36.2773C127.837 36.2409 127.887 36.2113 127.955 36.1885C128.024 36.1657 128.115 36.1475 128.229 36.1338C128.347 36.1201 128.493 36.1133 128.666 36.1133C128.844 36.1133 128.99 36.1201 129.104 36.1338C129.218 36.1475 129.309 36.1657 129.377 36.1885C129.446 36.2113 129.493 36.2409 129.521 36.2773C129.553 36.3138 129.569 36.3548 129.569 36.4004V43.5166H132.351C132.396 43.5166 132.435 43.5303 132.467 43.5576C132.504 43.5804 132.533 43.6214 132.556 43.6807C132.579 43.7354 132.595 43.8105 132.604 43.9062C132.617 43.9974 132.624 44.1113 132.624 44.248ZM141.815 40.4746C141.815 41.2083 141.724 41.8646 141.541 42.4434C141.359 43.0221 141.088 43.5143 140.728 43.9199C140.368 44.321 139.921 44.6286 139.388 44.8428C138.859 45.0524 138.246 45.1572 137.549 45.1572C136.861 45.1572 136.259 45.0684 135.744 44.8906C135.234 44.7083 134.808 44.4326 134.466 44.0635C134.124 43.6943 133.867 43.2249 133.694 42.6553C133.525 42.0856 133.441 41.4111 133.441 40.6318C133.441 39.9163 133.532 39.2738 133.714 38.7041C133.897 38.1299 134.168 37.6423 134.528 37.2412C134.888 36.8402 135.332 36.5326 135.861 36.3184C136.394 36.1042 137.011 35.9971 137.713 35.9971C138.383 35.9971 138.973 36.0859 139.484 36.2637C139.999 36.4414 140.427 36.7148 140.769 37.084C141.115 37.4531 141.375 37.9202 141.548 38.4854C141.726 39.0459 141.815 39.709 141.815 40.4746ZM139.928 40.5703C139.928 40.1055 139.892 39.6839 139.819 39.3057C139.746 38.9229 139.62 38.597 139.443 38.3281C139.27 38.0547 139.037 37.8451 138.745 37.6992C138.454 37.5488 138.089 37.4736 137.652 37.4736C137.21 37.4736 136.841 37.5579 136.544 37.7266C136.248 37.8906 136.009 38.1117 135.827 38.3896C135.644 38.6676 135.514 38.9935 135.437 39.3672C135.364 39.7363 135.327 40.1283 135.327 40.543C135.327 41.026 135.364 41.4613 135.437 41.8486C135.51 42.2314 135.633 42.5596 135.806 42.833C135.979 43.1064 136.212 43.3161 136.503 43.4619C136.795 43.6032 137.162 43.6738 137.604 43.6738C138.046 43.6738 138.415 43.5918 138.711 43.4277C139.008 43.2637 139.247 43.0404 139.429 42.7578C139.611 42.4753 139.739 42.1471 139.812 41.7734C139.889 41.3952 139.928 40.9941 139.928 40.5703ZM149.809 38.8408C149.809 39.3376 149.732 39.7773 149.577 40.1602C149.422 40.543 149.196 40.8665 148.9 41.1309C148.604 41.3906 148.239 41.5889 147.806 41.7256C147.378 41.8623 146.872 41.9307 146.289 41.9307H145.55V44.7539C145.55 44.7995 145.534 44.8405 145.502 44.877C145.475 44.9134 145.427 44.943 145.359 44.9658C145.29 44.9886 145.199 45.0068 145.085 45.0205C144.971 45.0342 144.826 45.041 144.648 45.041C144.475 45.041 144.329 45.0342 144.21 45.0205C144.096 45.0068 144.005 44.9886 143.937 44.9658C143.869 44.943 143.821 44.9134 143.793 44.877C143.766 44.8405 143.752 44.7995 143.752 44.7539V36.7969C143.752 36.5827 143.807 36.4232 143.916 36.3184C144.03 36.209 144.178 36.1543 144.361 36.1543H146.446C146.655 36.1543 146.854 36.1634 147.04 36.1816C147.232 36.1953 147.46 36.2295 147.724 36.2842C147.988 36.3343 148.255 36.43 148.524 36.5713C148.797 36.7126 149.03 36.8926 149.221 37.1113C149.413 37.3255 149.558 37.5785 149.659 37.8701C149.759 38.1572 149.809 38.4808 149.809 38.8408ZM147.929 38.9707C147.929 38.6608 147.874 38.4056 147.765 38.2051C147.656 38.0046 147.521 37.8564 147.362 37.7607C147.202 37.665 147.034 37.6058 146.856 37.583C146.683 37.5557 146.503 37.542 146.316 37.542H145.55V40.543H146.357C146.644 40.543 146.883 40.5042 147.075 40.4268C147.271 40.3493 147.43 40.2422 147.553 40.1055C147.676 39.9642 147.77 39.7979 147.833 39.6064C147.897 39.4105 147.929 39.1986 147.929 38.9707ZM156.867 44.2959C156.867 44.4281 156.86 44.5397 156.846 44.6309C156.837 44.7174 156.821 44.7881 156.798 44.8428C156.776 44.8975 156.746 44.9385 156.709 44.9658C156.678 44.9886 156.641 45 156.6 45H152.157C152.006 45 151.879 44.9567 151.774 44.8701C151.674 44.779 151.624 44.6331 151.624 44.4326V36.7217C151.624 36.5212 151.674 36.3776 151.774 36.291C151.879 36.1999 152.006 36.1543 152.157 36.1543H156.573C156.614 36.1543 156.65 36.1657 156.682 36.1885C156.714 36.2113 156.741 36.2523 156.764 36.3115C156.787 36.3662 156.803 36.4391 156.812 36.5303C156.826 36.6169 156.833 36.7285 156.833 36.8652C156.833 36.9928 156.826 37.1022 156.812 37.1934C156.803 37.2799 156.787 37.3506 156.764 37.4053C156.741 37.46 156.714 37.501 156.682 37.5283C156.65 37.5511 156.614 37.5625 156.573 37.5625H153.415V39.7227H156.087C156.128 39.7227 156.165 39.7363 156.197 39.7637C156.233 39.7865 156.263 39.8252 156.286 39.8799C156.308 39.93 156.324 40.0007 156.334 40.0918C156.347 40.1784 156.354 40.2855 156.354 40.4131C156.354 40.5452 156.347 40.6546 156.334 40.7412C156.324 40.8278 156.308 40.8984 156.286 40.9531C156.263 41.0033 156.233 41.0397 156.197 41.0625C156.165 41.0853 156.128 41.0967 156.087 41.0967H153.415V43.5918H156.6C156.641 43.5918 156.678 43.6055 156.709 43.6328C156.746 43.6556 156.776 43.6943 156.798 43.749C156.821 43.8037 156.837 43.8766 156.846 43.9678C156.86 44.0544 156.867 44.1637 156.867 44.2959ZM165.442 44.7676C165.442 44.8177 165.433 44.861 165.415 44.8975C165.396 44.9294 165.353 44.9567 165.285 44.9795C165.216 45.0023 165.116 45.0182 164.984 45.0273C164.852 45.0365 164.672 45.041 164.444 45.041C164.253 45.041 164.1 45.0365 163.986 45.0273C163.872 45.0182 163.781 45.0023 163.712 44.9795C163.649 44.9521 163.603 44.9202 163.576 44.8838C163.548 44.8428 163.526 44.7949 163.507 44.7402L162.714 42.7646C162.619 42.5413 162.525 42.3431 162.434 42.1699C162.343 41.9967 162.24 41.8532 162.127 41.7393C162.017 41.6208 161.89 41.5319 161.744 41.4727C161.598 41.4134 161.429 41.3838 161.238 41.3838H160.677V44.7539C160.677 44.7995 160.661 44.8405 160.629 44.877C160.602 44.9134 160.554 44.943 160.486 44.9658C160.418 44.9886 160.326 45.0068 160.212 45.0205C160.099 45.0342 159.953 45.041 159.775 45.041C159.602 45.041 159.456 45.0342 159.337 45.0205C159.224 45.0068 159.132 44.9886 159.064 44.9658C158.996 44.943 158.948 44.9134 158.921 44.877C158.893 44.8405 158.879 44.7995 158.879 44.7539V36.7217C158.879 36.5212 158.93 36.3776 159.03 36.291C159.135 36.1999 159.262 36.1543 159.413 36.1543H161.703C161.935 36.1543 162.127 36.1589 162.277 36.168C162.427 36.1771 162.564 36.1885 162.687 36.2021C163.043 36.2523 163.362 36.3389 163.644 36.4619C163.931 36.585 164.173 36.7467 164.369 36.9473C164.569 37.1432 164.722 37.3779 164.827 37.6514C164.932 37.9202 164.984 38.2301 164.984 38.5811C164.984 38.8773 164.945 39.1484 164.868 39.3945C164.795 39.6361 164.685 39.8525 164.54 40.0439C164.394 40.2354 164.214 40.4017 164 40.543C163.785 40.6842 163.542 40.7982 163.268 40.8848C163.4 40.9486 163.523 41.026 163.637 41.1172C163.756 41.2083 163.865 41.32 163.965 41.4521C164.07 41.5798 164.168 41.7279 164.259 41.8965C164.351 42.0605 164.439 42.2474 164.526 42.457L165.271 44.2002C165.339 44.3734 165.385 44.501 165.408 44.583C165.431 44.6605 165.442 44.722 165.442 44.7676ZM163.125 38.7656C163.125 38.474 163.059 38.2279 162.926 38.0273C162.794 37.8268 162.578 37.6855 162.277 37.6035C162.186 37.5807 162.081 37.5625 161.962 37.5488C161.849 37.5352 161.689 37.5283 161.484 37.5283H160.677V40.0371H161.593C161.849 40.0371 162.072 40.0075 162.263 39.9482C162.455 39.8844 162.614 39.7979 162.742 39.6885C162.869 39.5745 162.965 39.4401 163.029 39.2852C163.093 39.1302 163.125 38.957 163.125 38.7656Z" fill="#A39D9D"/>
</svg>
