<svg width="1235" height="811" viewBox="0 0 1235 811" fill="none" xmlns="http://www.w3.org/2000/svg">
<rect width="1235" height="811" fill="white"/>
<g id="undraw_Party_re_nmwj 1">
<g id="baloon2">
<path id="Vector" d="M712.431 412.632H693.949C693.116 412.632 692.294 412.453 691.543 412.108C690.792 411.763 690.132 411.261 689.613 410.639C689.093 410.017 688.726 409.292 688.539 408.516C688.353 407.741 688.352 406.935 688.536 406.159L691.959 391.73C648.039 384.91 615 339.083 615 284.802C615 225.36 654.562 177 703.19 177C751.818 177 791.38 225.36 791.38 284.802C791.38 339.083 758.342 384.91 714.421 391.73L717.844 406.159C718.028 406.935 718.027 407.741 717.841 408.516C717.654 409.292 717.288 410.017 716.768 410.639C716.248 411.261 715.588 411.763 714.837 412.108C714.087 412.453 713.264 412.632 712.431 412.632V412.632Z" fill="#FF6584"/>
<path id="Vector_2" d="M717.919 410.247H688.317C687.172 410.247 686.074 409.813 685.264 409.039C684.455 408.266 684 407.217 684 406.124C684 405.03 684.455 403.981 685.264 403.208C686.074 402.434 687.172 402 688.317 402H717.919C719.064 402 720.162 402.434 720.972 403.208C721.781 403.981 722.236 405.03 722.236 406.124C722.236 407.217 721.781 408.266 720.972 409.039C720.162 409.813 719.064 410.247 717.919 410.247V410.247Z" fill="#3F3D56"/>
<path id="Vector_3" d="M702.298 402.87C697.769 401.789 693.04 401.714 688.475 402.651C683.91 403.588 679.631 405.511 675.965 408.273C672.358 411.102 669.492 414.697 667.593 418.77C665.695 422.843 664.818 427.283 665.031 431.737C665.934 450.986 686.223 461.332 700.366 471.685C717.078 483.919 732.766 498.035 744.09 515.125C755.305 532.049 762.338 552.104 760.708 572.303C759.299 589.773 751.01 607.093 736.796 618.399C735.005 619.815 733.124 621.123 731.164 622.317C729.167 623.543 731.02 626.604 733.031 625.369C748.606 615.807 758.908 599.866 762.81 582.74C767.152 563.687 763.284 543.852 754.751 526.361C745.888 508.19 731.945 492.743 716.278 479.591C708.506 473.067 700.252 467.145 691.892 461.336C684.54 456.227 676.835 450.726 672.266 443.035C670.01 439.264 668.8 435.005 668.751 430.662C668.703 426.319 669.816 422.036 671.987 418.219C674.252 414.38 677.54 411.181 681.517 408.947C685.495 406.713 690.02 405.523 694.634 405.499C696.887 405.478 699.133 405.74 701.315 406.278C703.623 406.842 704.608 403.434 702.298 402.87H702.298Z" fill="#3F3D56"/>
<path id="Vector_4" d="M667.968 319.872C665.86 319.869 663.837 319.075 662.337 317.66C660.837 316.246 659.98 314.325 659.951 312.311C653.35 293.921 653.35 273.954 659.951 255.564C659.977 253.541 660.84 251.61 662.351 250.193C663.863 248.775 665.901 247.987 668.019 248C670.137 248.013 672.163 248.826 673.656 250.262C675.149 251.697 675.986 253.639 675.985 255.662L675.947 255.865C668.937 274.113 668.938 293.006 675.95 312.018L675.985 312.214C675.982 314.244 675.137 316.19 673.634 317.626C672.131 319.062 670.093 319.869 667.968 319.872V319.872Z" fill="white"/>
</g>
<g id="baloon1">
<path id="Vector_5" d="M453.034 278.598C452.275 278.268 451.604 277.78 451.071 277.167C450.538 276.555 450.157 275.836 449.957 275.063L446.197 260.712C403.779 273.552 352.648 246.893 327.009 198.45C298.932 145.402 311.397 85.1949 354.794 64.2382C398.192 43.2815 456.341 69.39 484.417 122.438C510.057 170.881 502.217 226.017 466.243 251.031L476.113 262.433C476.644 263.046 477.023 263.765 477.223 264.538C477.423 265.31 477.439 266.116 477.268 266.895C477.098 267.674 476.746 268.406 476.239 269.037C475.732 269.669 475.083 270.183 474.34 270.542L457.845 278.507C457.103 278.868 456.284 279.063 455.451 279.079C454.617 279.095 453.791 278.93 453.034 278.598V278.598Z" fill="#CCCCCC"/>
<path id="Vector_6" d="M437.641 265.161C437.126 264.185 437.037 263.053 437.394 262.014C437.751 260.976 438.525 260.115 439.546 259.62L465.964 246.863C466.986 246.371 468.17 246.287 469.257 246.629C470.343 246.97 471.244 247.71 471.76 248.685C472.276 249.66 472.366 250.791 472.009 251.83C471.653 252.868 470.88 253.729 469.86 254.223L443.441 266.98C442.419 267.473 441.235 267.557 440.147 267.216C439.06 266.875 438.159 266.136 437.641 265.161Z" fill="#3F3D56"/>
<path id="Vector_7" d="M468.55 249.095C472.082 246.179 476.267 244.074 480.783 242.943C485.299 241.811 490.027 241.684 494.603 242.569C499.158 243.54 503.414 245.512 507.032 248.329C510.65 251.146 513.53 254.73 515.443 258.796C523.73 276.365 510.51 294.342 502.779 309.676C493.643 327.796 486.31 347.154 484.276 367.286C482.262 387.223 485.458 408.152 496.453 425.476C505.962 440.459 521.54 452.344 539.566 456.309C541.833 456.8 544.13 457.157 546.443 457.378C548.804 457.611 548.596 461.142 546.218 460.906C527.802 459.085 511.079 449.299 499.507 435.697C486.633 420.563 480.716 401.195 480.069 381.908C479.397 361.872 484.543 342.077 492.313 323.588C496.167 314.417 500.736 305.575 505.453 296.788C509.601 289.061 513.879 280.831 514.324 271.998C514.556 267.66 513.623 263.338 511.616 259.441C509.608 255.544 506.591 252.201 502.852 249.73C499.016 247.28 494.571 245.843 489.966 245.563C485.362 245.283 480.761 246.172 476.632 248.138C474.612 249.091 472.731 250.293 471.038 251.713C469.244 253.211 466.756 250.594 468.55 249.095L468.55 249.095Z" fill="#3F3D56"/>
<path id="Vector_8" d="M459.216 159.691L459.155 159.501C456.432 139.512 447.509 122.651 432.634 109.387L432.505 109.222C431.548 107.417 431.378 105.323 432.032 103.399C432.686 101.474 434.11 99.8753 435.995 98.9509C437.879 98.0265 440.07 97.852 442.088 98.4654C444.107 99.0788 445.789 100.43 446.768 102.225C461.345 115.792 470.776 133.611 473.572 152.868C474.504 154.685 474.647 156.78 473.967 158.697C473.288 160.614 471.842 162.195 469.945 163.097C468.048 163.998 465.855 164.146 463.845 163.508C461.835 162.87 460.171 161.497 459.216 159.691V159.691Z" fill="white"/>
</g>
</g>
</svg>
