<svg width="1020" height="437" viewBox="0 0 1020 437" fill="none" xmlns="http://www.w3.org/2000/svg">
<g id="sahilsvg 1">
<path id="Vector" d="M1020 0H0V437H1020V0Z" fill="white"/>
<g id="undraw_Code_thinking_re_gka2 1">
<g id="hand">
<g id="Group 1">
<path id="Vector_2" d="M223.77 243.614C223.78 242.274 223.512 240.946 222.986 239.714C222.459 238.481 221.683 237.371 220.708 236.451C219.733 235.532 218.578 234.823 217.317 234.37C216.056 233.917 214.714 233.729 213.377 233.817C212.04 233.905 210.735 234.268 209.544 234.884C208.353 235.499 207.302 236.353 206.456 237.393C205.61 238.432 204.988 239.635 204.628 240.926C204.267 242.217 204.177 243.569 204.363 244.896L176.348 281.582C175.153 283.973 174.69 286.663 175.016 289.316C175.343 291.969 176.445 294.467 178.184 296.496L180.382 299.06L190.465 297.043L201.893 286.96L200.548 275.532L214.665 253.349L214.647 253.333C217.118 253.176 219.436 252.083 221.131 250.278C222.825 248.473 223.769 246.09 223.77 243.614Z" fill="#FFDBAC"/>
</g>
</g>
<path id="Vector_2_2" d="M30.041 422.968L25.468 405.984L88.8 380.265L95.549 405.331L30.041 422.968Z" fill="#FFDBAC"/>
<path id="Vector_3" d="M14.7441 431.732L0 376.97L0.692642 376.783C6.34562 375.261 12.3716 376.047 17.4451 378.968C22.5186 381.889 26.2241 386.706 27.7466 392.358L27.747 392.36L36.7521 425.807L14.7441 431.732Z" fill="black"/>
<path id="Vector_4" d="M117.278 420.254L103.054 409.91L136.185 350.121L157.179 365.388L117.278 420.254Z" fill="#FFDBAC"/>
<path id="Vector_5" d="M110.879 436.681L65.0128 403.326L65.4346 402.746C68.878 398.011 74.0609 394.838 79.8434 393.925C85.626 393.012 91.5345 394.433 96.2694 397.875L96.2706 397.876L124.284 418.249L110.879 436.681Z" fill="black"/>
<path id="Vector_6" d="M238.192 336.704L202.397 301.932C199.273 298.897 195.159 297.092 190.81 296.849C186.462 296.606 182.172 297.942 178.729 300.609L111.143 375.693L117.193 385.104L181.726 341.41L225.42 398.548L267.098 377.71L238.192 336.704Z" fill="black"/>
<path id="Vector_7" d="M222.731 344.099L196.515 342.082L177.529 337.479C176.456 335.806 174.898 334.501 173.064 333.737C171.229 332.974 169.205 332.79 167.262 333.209C165.319 333.628 163.551 334.63 162.194 336.082C160.837 337.534 159.956 339.365 159.668 341.331C159.381 343.298 159.701 345.305 160.586 347.084C161.47 348.864 162.878 350.33 164.619 351.288C166.361 352.245 168.353 352.648 170.329 352.442C172.306 352.236 174.172 351.431 175.679 350.135L175.676 350.149L187.104 354.854L236.176 371.66L242.226 366.954L222.731 344.099Z" fill="#FFDBAC"/>
<path id="Vector_8" d="M285.92 416.699L271.131 426.11H253.653L172.315 395.86L53.332 417.371L49.971 391.826L158.871 344.099L254.326 375.693L285.92 416.699Z" fill="black"/>
<path id="Vector_9" d="M254.326 253.349C268.805 253.349 280.542 241.611 280.542 227.132C280.542 212.653 268.805 200.916 254.326 200.916C239.847 200.916 228.109 212.653 228.109 227.132C228.109 241.611 239.847 253.349 254.326 253.349Z" fill="#FFDBAC"/>
<path id="Vector_10" d="M322.159 331.804C322.159 347.626 319.666 363.349 314.772 378.395L312.809 384.432L303.398 427.454L293.315 430.143L285.92 420.732L271.131 409.976L260.376 392.499L251.153 377.132L248.276 372.332L238.192 321.915L199.876 300.404L187.104 298.388L189.793 290.993L201.22 275.532L212.648 274.188L216.009 271.499L218.698 272.843L233.521 278.553L281.578 258.249L288.609 259.399L312.809 279.566C318.995 296.287 322.161 313.975 322.159 331.804Z" fill="#7FFF00"/>
<path id="Vector_11" opacity="0.1" d="M314.825 325.949L289.281 342.754L251.153 377.131L248.276 372.332L240.209 331.999H242.226L263.065 293.683L314.825 325.949Z" fill="black"/>
<path id="Vector_12" d="M263.065 289.649L242.226 327.965L230.126 341.41L219.371 344.099L248.276 375.693L289.281 338.721L314.825 321.915L263.065 289.649Z" fill="#7FFF00"/>
<path id="Vector_13" d="M233.935 207.639L231.094 208.732C230.663 208.44 230.293 208.066 230.007 207.631C229.72 207.197 229.522 206.71 229.423 206.198C229.325 205.687 229.328 205.161 229.433 204.651C229.538 204.141 229.742 203.657 230.034 203.225C230.049 203.203 230.065 203.18 230.08 203.158L224.831 202.912C228.201 198.425 232.485 194.704 237.4 191.995C242.316 189.287 247.75 187.653 253.344 187.203C258.938 186.752 264.564 187.494 269.849 189.38C275.135 191.266 279.96 194.253 284.005 198.143C284.244 197.32 286.849 198.921 287.912 200.545C288.27 199.206 290.713 205.68 291.577 210.257C291.977 208.733 293.514 211.193 292.167 213.554C293.021 213.429 293.406 215.613 292.746 216.83C293.68 216.391 293.522 218.999 292.509 220.741C293.842 220.623 292.396 248.072 272.396 246.072C271.003 239.675 271.396 240.072 269.756 231.846C268.993 231.036 268.157 230.298 267.323 229.562L262.81 225.578C257.563 220.946 252.79 215.23 245.799 213.499C240.996 212.309 237.958 212.04 240.576 206.627C238.211 207.614 236.002 209.082 233.615 209.999C233.647 209.242 233.981 208.396 233.935 207.639Z" fill="black"/>
<path id="Vector_14" d="M267.434 234.863C270.033 234.863 272.14 232.756 272.14 230.157C272.14 227.559 270.033 225.452 267.434 225.452C264.835 225.452 262.729 227.559 262.729 230.157C262.729 232.756 264.835 234.863 267.434 234.863Z" fill="#FFDBAC"/>
<g id="Group 3">
<path id="sq1" d="M47.9976 119.022L46.5616 140.585L68.124 142.021L69.56 120.458L47.9976 119.022Z" fill="#7FFF00"/>
</g>
<path id="Vector_15" d="M34.0857 130.472L60.2685 132.216L58.5248 158.398L32.342 156.655L34.0857 130.472ZM59.0543 133.278L35.1482 131.686L33.5562 155.592L57.4622 157.184L59.0543 133.278Z" fill="black"/>
<g id="Group 4">
<path id="sq2" d="M169.85 55.0837L148.722 59.6235L153.262 80.7513L174.39 76.2116L169.85 55.0837Z" fill="#E6E6E6"/>
</g>
<path id="Vector_16" d="M155.02 44.8502L160.533 70.5054L134.878 76.018L129.365 50.3627L155.02 44.8502ZM159.178 69.6297L154.145 46.2053L130.72 51.2385L135.754 74.6629L159.178 69.6297Z" fill="black"/>
<path id="Vector_17" d="M147.65 156.547L131.878 171.32L146.651 187.092L162.423 172.319L147.65 156.547Z" fill="#6600FF"/>
<path id="Vector_18" d="M163.557 154.337L144.405 172.276L126.466 153.124L145.618 135.186L163.557 154.337ZM144.458 170.663L161.944 154.285L145.565 136.798L128.079 153.177L144.458 170.663Z" fill="black"/>
<path id="Vector_19" d="M963.277 0H323.894C321.583 -2.62642e-06 319.295 0.455194 317.16 1.3396C315.024 2.22401 313.084 3.52029 311.45 5.15446C309.816 6.78864 308.52 8.72868 307.635 10.8638C306.751 12.999 306.296 15.2874 306.296 17.5985V373.851C306.296 376.162 306.751 378.45 307.635 380.585C308.52 382.721 309.816 384.661 311.45 386.295C313.084 387.929 315.024 389.225 317.16 390.11C319.295 390.994 321.583 391.449 323.894 391.449H963.277C967.945 391.449 972.421 389.595 975.721 386.295C979.021 382.994 980.876 378.518 980.876 373.851V17.5985C980.876 12.9311 979.021 8.45484 975.721 5.15448C972.421 1.85412 967.945 2.65218e-06 963.277 0Z" fill="black"/>
<path id="Vector_20" d="M957.281 31.1014H329.89V385.014H957.281V31.1014Z" fill="white"/>
<path id="Vector_21" d="M643.049 21.4493C646.603 21.4493 649.484 18.5683 649.484 15.0145C649.484 11.4607 646.603 8.57971 643.049 8.57971C639.496 8.57971 636.615 11.4607 636.615 15.0145C636.615 18.5683 639.496 21.4493 643.049 21.4493Z" fill="white"/>
<path id="Vector_22" d="M777.858 385.015H329.89V31.102L777.858 385.015Z" fill="#F2F2F2"/>
<g id="circle">
<path id="Vector_23" d="M428.058 358.531C461.365 358.531 488.365 331.531 488.365 298.224C488.365 264.918 461.365 237.917 428.058 237.917C394.751 237.917 367.751 264.918 367.751 298.224C367.751 331.531 394.751 358.531 428.058 358.531Z" fill="#6600FF"/>
</g>
<path id="Vector_24" d="M441.483 343.551C426.646 343.551 412.143 339.151 399.806 330.908C387.47 322.665 377.855 310.949 372.177 297.242C366.5 283.535 365.014 268.452 367.909 253.9C370.803 239.348 377.948 225.982 388.439 215.491C398.93 205 412.296 197.855 426.848 194.96C441.4 192.066 456.483 193.552 470.19 199.229C483.898 204.907 495.613 214.522 503.856 226.858C512.099 239.195 516.499 253.698 516.499 268.535C516.499 278.386 514.558 288.141 510.788 297.242C507.019 306.343 501.493 314.613 494.527 321.579C487.561 328.545 479.292 334.07 470.19 337.84C461.089 341.61 451.334 343.551 441.483 343.551ZM441.483 194.5C426.84 194.5 412.526 198.842 400.351 206.977C388.176 215.112 378.687 226.675 373.083 240.203C367.48 253.731 366.014 268.617 368.87 282.978C371.727 297.34 378.778 310.532 389.132 320.886C399.486 331.24 412.678 338.291 427.039 341.147C441.401 344.004 456.287 342.538 469.815 336.934C483.343 331.331 494.906 321.842 503.041 309.667C511.176 297.492 515.518 283.178 515.518 268.535C515.518 258.812 513.603 249.185 509.883 240.203C506.162 231.22 500.709 223.059 493.834 216.184C486.959 209.309 478.797 203.856 469.815 200.135C460.833 196.415 451.205 194.5 441.483 194.5Z" fill="black"/>
<g id="plane">
<path id="Vector_25" d="M812.042 214.97H753.437V227.215H812.042V214.97Z" fill="black"/>
</g>
<path id="Vector_26" d="M867.488 148.627H697.991V153.875H867.488V148.627Z" fill="black"/>
<path id="Vector_27" d="M867.488 169.246H697.991V174.494H867.488V169.246Z" fill="black"/>
<path id="Vector_28" d="M867.488 189.866H697.991V195.114H867.488V189.866Z" fill="black"/>
<path id="Vector_29" d="M912.893 52.2816H888.401V76.7733H912.893V52.2816Z" fill="#6600FF"/>
<path id="Vector_30" d="M924.264 88.1445H894.524V58.4045H924.264V88.1445ZM895.818 86.8515H922.971V59.6976H895.817L895.818 86.8515Z" fill="black"/>
<path id="Vector_31" d="M998.491 378.58H937.262V374.168C937.262 374.053 937.239 373.94 937.195 373.833C937.151 373.727 937.087 373.631 937.006 373.55C936.925 373.468 936.828 373.404 936.722 373.36C936.616 373.316 936.502 373.293 936.387 373.293H915.394C915.279 373.293 915.166 373.316 915.06 373.36C914.953 373.404 914.857 373.468 914.776 373.55C914.695 373.631 914.63 373.727 914.586 373.833C914.542 373.939 914.52 374.053 914.52 374.168V378.58H901.399V374.168C901.399 374.053 901.376 373.94 901.333 373.833C901.289 373.727 901.224 373.631 901.143 373.55C901.062 373.468 900.965 373.404 900.859 373.36C900.753 373.316 900.639 373.293 900.524 373.293H879.532C879.417 373.293 879.303 373.316 879.197 373.36C879.091 373.404 878.994 373.468 878.913 373.55C878.832 373.631 878.767 373.727 878.723 373.833C878.679 373.94 878.657 374.053 878.657 374.168V378.58H865.536V374.168C865.536 374.053 865.514 373.94 865.47 373.833C865.426 373.727 865.361 373.631 865.28 373.55C865.199 373.468 865.102 373.404 864.996 373.36C864.89 373.316 864.776 373.293 864.662 373.293H843.669C843.554 373.293 843.44 373.316 843.334 373.36C843.228 373.404 843.131 373.468 843.05 373.55C842.969 373.631 842.904 373.727 842.86 373.833C842.817 373.94 842.794 374.053 842.794 374.168V378.58H829.673V374.168C829.673 374.053 829.651 373.94 829.607 373.833C829.563 373.727 829.498 373.631 829.417 373.55C829.336 373.468 829.24 373.404 829.133 373.36C829.027 373.316 828.914 373.293 828.799 373.293H807.806C807.691 373.293 807.577 373.316 807.471 373.36C807.365 373.404 807.268 373.468 807.187 373.55C807.106 373.631 807.042 373.727 806.998 373.833C806.954 373.939 806.931 374.053 806.931 374.168V378.58H793.811V374.168C793.811 374.053 793.788 373.94 793.744 373.833C793.7 373.727 793.636 373.631 793.554 373.55C793.473 373.468 793.377 373.404 793.271 373.36C793.164 373.316 793.051 373.293 792.936 373.293H771.943C771.828 373.293 771.714 373.316 771.608 373.36C771.502 373.404 771.406 373.468 771.324 373.55C771.243 373.631 771.179 373.727 771.135 373.833C771.091 373.94 771.068 374.053 771.068 374.168V378.58H757.948V374.168C757.948 374.053 757.925 373.94 757.881 373.833C757.837 373.727 757.773 373.631 757.691 373.55C757.61 373.468 757.514 373.404 757.408 373.36C757.302 373.316 757.188 373.293 757.073 373.293H736.08C735.965 373.293 735.851 373.316 735.745 373.36C735.639 373.404 735.543 373.468 735.461 373.55C735.38 373.631 735.316 373.727 735.272 373.833C735.228 373.94 735.205 374.053 735.205 374.168V378.58H722.085V374.168C722.085 374.053 722.062 373.94 722.018 373.833C721.974 373.727 721.91 373.631 721.829 373.55C721.747 373.468 721.651 373.404 721.545 373.36C721.439 373.316 721.325 373.293 721.21 373.293H556.766C556.651 373.293 556.537 373.316 556.431 373.36C556.325 373.404 556.228 373.468 556.147 373.55C556.066 373.631 556.001 373.727 555.957 373.833C555.914 373.94 555.891 374.053 555.891 374.168V378.58H542.77V374.168C542.77 374.053 542.748 373.94 542.704 373.833C542.66 373.727 542.595 373.631 542.514 373.55C542.433 373.468 542.336 373.404 542.23 373.36C542.124 373.316 542.01 373.293 541.896 373.293H520.903C520.788 373.293 520.674 373.316 520.568 373.36C520.462 373.404 520.365 373.468 520.284 373.55C520.203 373.631 520.139 373.727 520.095 373.833C520.051 373.94 520.028 374.053 520.028 374.168V378.58H506.907V374.168C506.907 374.053 506.885 373.94 506.841 373.833C506.797 373.727 506.733 373.631 506.651 373.55C506.57 373.468 506.474 373.404 506.368 373.36C506.261 373.316 506.148 373.293 506.033 373.293H485.04C484.925 373.293 484.811 373.316 484.705 373.36C484.599 373.404 484.503 373.468 484.421 373.55C484.34 373.631 484.276 373.727 484.232 373.833C484.188 373.94 484.165 374.053 484.165 374.168V378.58H471.045V374.168C471.045 374.053 471.022 373.94 470.978 373.833C470.934 373.727 470.87 373.631 470.788 373.55C470.707 373.468 470.611 373.404 470.505 373.36C470.398 373.316 470.285 373.293 470.17 373.293H449.177C449.062 373.293 448.948 373.316 448.842 373.36C448.736 373.404 448.64 373.468 448.558 373.55C448.477 373.631 448.413 373.727 448.369 373.833C448.325 373.94 448.302 374.053 448.302 374.168V378.58H435.182V374.168C435.182 374.053 435.159 373.94 435.115 373.833C435.071 373.727 435.007 373.631 434.925 373.55C434.844 373.468 434.748 373.404 434.642 373.36C434.536 373.316 434.422 373.293 434.307 373.293H413.314C413.199 373.293 413.085 373.316 412.979 373.36C412.873 373.404 412.777 373.468 412.696 373.55C412.614 373.631 412.55 373.727 412.506 373.833C412.462 373.94 412.439 374.053 412.439 374.168V378.58H399.319V374.168C399.319 374.053 399.296 373.94 399.252 373.833C399.208 373.727 399.144 373.631 399.063 373.55C398.981 373.468 398.885 373.404 398.779 373.36C398.673 373.316 398.559 373.293 398.444 373.293H377.451C377.219 373.293 376.997 373.386 376.833 373.55C376.669 373.714 376.576 373.936 376.576 374.168V378.58H363.456V374.168C363.456 374.053 363.433 373.94 363.389 373.833C363.345 373.727 363.281 373.631 363.2 373.55C363.118 373.468 363.022 373.404 362.916 373.36C362.81 373.316 362.696 373.293 362.581 373.293H341.588C341.356 373.293 341.134 373.386 340.97 373.55C340.806 373.714 340.714 373.936 340.714 374.168V378.58H300.477C294.909 378.58 289.57 380.791 285.633 384.728C281.696 388.665 279.484 394.005 279.484 399.573V409.065C279.484 414.633 281.696 419.972 285.633 423.909C289.57 427.846 294.909 430.058 300.477 430.058H998.491C1004.06 430.058 1009.4 427.846 1013.34 423.909C1017.27 419.972 1019.48 414.633 1019.48 409.065V399.573C1019.48 396.816 1018.94 394.086 1017.89 391.539C1016.83 388.992 1015.28 386.678 1013.34 384.728C1011.39 382.779 1009.07 381.233 1006.52 380.178C1003.98 379.123 1001.25 378.58 998.491 378.58Z" fill="black"/>
</g>
</g>
</svg>
