<svg width="1096" height="575" viewBox="0 0 1096 575" fill="none" xmlns="http://www.w3.org/2000/svg">
<g id="undraw_contact_us_15o2 1">
<g id="Group" opacity="0.1">
<path id="Vector" opacity="0.1" d="M479.42 377.02C485.705 377.02 490.8 370.349 490.8 362.12C490.8 353.891 485.705 347.22 479.42 347.22C473.135 347.22 468.04 353.891 468.04 362.12C468.04 370.349 473.135 377.02 479.42 377.02Z" fill="#3F3D56"/>
<path id="Vector_2" opacity="0.1" d="M488.43 298.37C490.018 295.598 490.839 292.454 490.81 289.26C490.81 281.03 485.71 274.36 479.42 274.36C473.13 274.36 468 281.05 468 289.28C467.971 292.474 468.792 295.618 470.38 298.39C468.82 301.171 468.001 304.306 468.001 307.495C468.001 310.684 468.82 313.819 470.38 316.6C468.82 319.381 468.001 322.516 468.001 325.705C468.001 328.894 468.82 332.029 470.38 334.81C468.79 337.581 467.968 340.726 468 343.92C468 352.14 473.1 358.82 479.38 358.82C485.66 358.82 490.77 352.14 490.77 343.92C490.802 340.726 489.98 337.581 488.39 334.81C489.95 332.029 490.769 328.894 490.769 325.705C490.769 322.516 489.95 319.381 488.39 316.6C489.95 313.819 490.769 310.684 490.769 307.495C490.769 304.306 489.95 301.171 488.39 298.39L488.43 298.37Z" fill="#3F3D56"/>
<path id="Vector_3" opacity="0.1" d="M479.42 285.97C485.705 285.97 490.8 279.299 490.8 271.07C490.8 262.841 485.705 256.17 479.42 256.17C473.135 256.17 468.04 262.841 468.04 271.07C468.04 279.299 473.135 285.97 479.42 285.97Z" fill="#3F3D56"/>
<path id="Vector_4" opacity="0.1" d="M479.42 267.76C485.705 267.76 490.8 261.089 490.8 252.86C490.8 244.631 485.705 237.96 479.42 237.96C473.135 237.96 468.04 244.631 468.04 252.86C468.04 261.089 473.135 267.76 479.42 267.76Z" fill="#3F3D56"/>
<path id="Vector_5" opacity="0.1" d="M436.82 128.23C435.26 126.253 433.844 124.168 432.58 121.99L462.48 117.08L430.14 117.32C427.044 110.566 425.358 103.251 425.186 95.8231C425.014 88.3951 426.36 81.0102 429.14 74.12L472.53 96.63L432.53 67.21C436.249 60.6725 441.28 54.9749 447.307 50.4755C453.334 45.9761 460.226 42.7721 467.551 41.065C474.876 39.3578 482.475 39.1844 489.87 40.5556C497.265 41.9268 504.296 44.813 510.522 49.0328C516.748 53.2526 522.034 58.7147 526.047 65.0757C530.06 71.4368 532.714 78.5592 533.842 85.9954C534.969 93.4316 534.547 101.021 532.6 108.285C530.653 115.55 527.225 122.334 522.53 128.21C524.955 131.29 527.04 134.623 528.75 138.15L489.92 158.37L531.31 144.48C534.219 153.072 534.939 162.254 533.404 171.194C531.869 180.134 528.128 188.55 522.52 195.68C528.846 203.722 532.782 213.381 533.877 223.554C534.972 233.728 533.182 244.004 528.712 253.207C524.242 262.411 517.272 270.171 508.6 275.601C499.927 281.03 489.902 283.909 479.67 283.909C469.438 283.909 459.413 281.03 450.74 275.601C442.068 270.171 435.098 262.411 430.628 253.207C426.158 244.004 424.368 233.728 425.463 223.554C426.558 213.381 430.494 203.722 436.82 195.68C429.26 186.07 425.149 174.197 425.149 161.97C425.149 149.743 429.26 137.87 436.82 128.26V128.23Z" fill="#6C63FF"/>
<path id="Vector_6" opacity="0.1" d="M534.19 161.94C534.21 174.171 530.097 186.049 522.52 195.65C528.846 203.692 532.782 213.351 533.877 223.524C534.972 233.698 533.182 243.973 528.712 253.177C524.242 262.381 517.272 270.141 508.6 275.571C499.927 281 489.902 283.879 479.67 283.879C469.438 283.879 459.413 281 450.74 275.571C442.068 270.141 435.098 262.381 430.628 253.177C426.158 243.973 424.368 233.698 425.463 223.524C426.558 213.351 430.494 203.692 436.82 195.65C429.51 186.37 534.19 155.82 534.19 161.94Z" fill="black"/>
</g>
<g id="Group_2" opacity="0.1">
<path id="Vector_7" opacity="0.1" d="M612.28 341.39C616.98 341.39 620.79 336.407 620.79 330.26C620.79 324.113 616.98 319.13 612.28 319.13C607.58 319.13 603.77 324.113 603.77 330.26C603.77 336.407 607.58 341.39 612.28 341.39Z" fill="#3F3D56"/>
<path id="Vector_8" opacity="0.1" d="M619 282.63C620.183 280.561 620.794 278.214 620.77 275.83C620.77 269.68 616.96 264.69 612.27 264.69C607.58 264.69 603.76 269.69 603.76 275.83C603.734 278.215 604.349 280.563 605.54 282.63C604.373 284.708 603.76 287.052 603.76 289.435C603.76 291.818 604.373 294.162 605.54 296.24C604.373 298.318 603.76 300.662 603.76 303.045C603.76 305.428 604.373 307.772 605.54 309.85C604.349 311.917 603.734 314.265 603.76 316.65C603.76 322.8 607.57 327.79 612.27 327.79C616.97 327.79 620.77 322.79 620.77 316.65C620.794 314.266 620.183 311.919 619 309.85C620.158 307.769 620.765 305.427 620.765 303.045C620.765 300.663 620.158 298.321 619 296.24C620.158 294.159 620.765 291.817 620.765 289.435C620.765 287.053 620.158 284.711 619 282.63Z" fill="#3F3D56"/>
<path id="Vector_9" opacity="0.1" d="M612.28 273.35C616.98 273.35 620.79 268.367 620.79 262.22C620.79 256.073 616.98 251.09 612.28 251.09C607.58 251.09 603.77 256.073 603.77 262.22C603.77 268.367 607.58 273.35 612.28 273.35Z" fill="#3F3D56"/>
<path id="Vector_10" opacity="0.1" d="M612.28 259.74C616.98 259.74 620.79 254.757 620.79 248.61C620.79 242.463 616.98 237.48 612.28 237.48C607.58 237.48 603.77 242.463 603.77 248.61C603.77 254.757 607.58 259.74 612.28 259.74Z" fill="#3F3D56"/>
<path id="Vector_11" opacity="0.1" d="M580.44 155.48C579.272 154.005 578.213 152.448 577.27 150.82L599.62 147.15L575.45 147.33C573.131 142.284 571.866 136.817 571.732 131.265C571.598 125.713 572.598 120.192 574.67 115.04L607.1 131.87L577.19 109.87C579.987 105.018 583.754 100.795 588.257 97.4641C592.759 94.1332 597.899 91.7661 603.357 90.5105C608.815 89.2549 614.473 89.1378 619.978 90.1665C625.483 91.1952 630.717 93.3476 635.353 96.4893C639.989 99.6311 643.928 103.695 646.924 108.427C649.919 113.159 651.907 118.457 652.764 123.992C653.62 129.526 653.327 135.178 651.901 140.594C650.476 146.01 647.95 151.074 644.48 155.47C646.29 157.774 647.849 160.265 649.13 162.9L620.13 177.97L651.06 167.59C653.233 174.011 653.77 180.872 652.622 187.552C651.475 194.233 648.68 200.522 644.49 205.85C649.224 211.858 652.171 219.076 652.993 226.68C653.816 234.284 652.482 241.967 649.144 248.848C645.805 255.729 640.597 261.532 634.114 265.591C627.632 269.651 620.138 271.804 612.49 271.804C604.842 271.804 597.348 269.651 590.866 265.591C584.383 261.532 579.175 255.729 575.836 248.848C572.498 241.967 571.164 234.284 571.987 226.68C572.809 219.076 575.756 211.858 580.49 205.85C574.84 198.669 571.769 189.797 571.769 180.66C571.769 171.523 574.84 162.651 580.49 155.47L580.44 155.48Z" fill="#6C63FF"/>
<path id="Vector_12" opacity="0.1" d="M653.2 180.67C653.214 189.809 650.141 198.685 644.48 205.86C649.214 211.868 652.16 219.086 652.983 226.69C653.806 234.294 652.472 241.977 649.134 248.858C645.795 255.739 640.587 261.542 634.104 265.601C627.622 269.661 620.128 271.814 612.48 271.814C604.832 271.814 597.338 269.661 590.856 265.601C584.373 261.542 579.165 255.739 575.826 248.858C572.488 241.977 571.154 234.294 571.976 226.69C572.799 219.086 575.746 211.868 580.48 205.86C575 198.93 653.2 176.1 653.2 180.67Z" fill="black"/>
</g>
<g id="Group_3" opacity="0.1">
<path id="Vector_13" opacity="0.1" d="M101.281 339.211C107.566 339.211 112.661 332.54 112.661 324.311C112.661 316.082 107.566 309.411 101.281 309.411C94.9956 309.411 89.9006 316.082 89.9006 324.311C89.9006 332.54 94.9956 339.211 101.281 339.211Z" fill="#3F3D56"/>
<path id="Vector_14" opacity="0.1" d="M110.281 260.561C111.868 257.789 112.69 254.645 112.661 251.451C112.661 243.221 107.561 236.551 101.281 236.551C95.0006 236.551 89.9006 243.221 89.9006 251.451C89.8686 254.644 90.6865 257.788 92.2706 260.561C90.7161 263.344 89.9 266.478 89.9 269.666C89.9 272.854 90.7161 275.988 92.2706 278.771C90.7161 281.554 89.9 284.688 89.9 287.876C89.9 291.064 90.7161 294.198 92.2706 296.981C90.6834 299.753 89.8652 302.898 89.9006 306.091C89.9006 314.311 94.9906 320.991 101.281 320.991C107.571 320.991 112.691 314.331 112.691 306.111C112.723 302.917 111.901 299.772 110.311 297.001C111.871 294.22 112.69 291.085 112.69 287.896C112.69 284.707 111.871 281.572 110.311 278.791C111.871 276.01 112.69 272.875 112.69 269.686C112.69 266.497 111.871 263.362 110.311 260.581L110.281 260.561Z" fill="#3F3D56"/>
<path id="Vector_15" opacity="0.1" d="M101.281 248.161C107.566 248.161 112.661 241.49 112.661 233.261C112.661 225.032 107.566 218.361 101.281 218.361C94.9956 218.361 89.9006 225.032 89.9006 233.261C89.9006 241.49 94.9956 248.161 101.281 248.161Z" fill="#3F3D56"/>
<path id="Vector_16" opacity="0.1" d="M101.281 229.951C107.566 229.951 112.661 223.28 112.661 215.051C112.661 206.822 107.566 200.151 101.281 200.151C94.9956 200.151 89.9006 206.822 89.9006 215.051C89.9006 223.28 94.9956 229.951 101.281 229.951Z" fill="#3F3D56"/>
<path id="Vector_17" opacity="0.1" d="M58.6907 90.4211C57.1344 88.4419 55.7177 86.3568 54.4507 84.1811L84.3607 79.2711L51.9907 79.5611C48.8945 72.807 47.2089 65.4922 47.0369 58.0642C46.865 50.6362 48.2103 43.2513 50.9907 36.3611L94.3907 58.8711L54.3907 29.4511C58.1188 22.933 63.1532 17.2554 69.1782 12.774C75.2033 8.29261 82.0891 5.10412 89.4041 3.4084C96.719 1.71268 104.305 1.54627 111.688 2.91963C119.07 4.29299 126.089 7.17649 132.305 11.3894C138.52 15.6023 143.799 21.0538 147.809 27.4021C151.82 33.7504 154.475 40.8587 155.61 48.2814C156.745 55.7041 156.334 63.2812 154.403 70.5377C152.473 77.7942 149.064 84.5736 144.391 90.4511C146.815 93.5313 148.901 96.8639 150.611 100.391L111.771 120.561L153.171 106.671C156.073 115.265 156.788 124.446 155.252 133.385C153.715 142.324 149.976 150.74 144.371 157.871C150.697 165.913 154.633 175.572 155.728 185.746C156.823 195.919 155.033 206.195 150.563 215.398C146.093 224.602 139.123 232.362 130.45 237.792C121.778 243.221 111.753 246.1 101.521 246.1C91.2888 246.1 81.2634 243.221 72.5909 237.792C63.9183 232.362 56.9485 224.602 52.4786 215.398C48.0086 206.195 46.2188 195.919 47.3138 185.746C48.4088 175.572 52.3444 165.913 58.6707 157.871C51.1104 148.261 47 136.389 47 124.161C47 111.934 51.1104 100.061 58.6707 90.4511L58.6907 90.4211Z" fill="#6C63FF"/>
<path id="Vector_18" opacity="0.1" d="M156.041 124.131C156.06 136.362 151.948 148.24 144.371 157.841C150.697 165.883 154.633 175.542 155.728 185.716C156.823 195.889 155.033 206.165 150.563 215.368C146.093 224.572 139.123 232.332 130.45 237.762C121.778 243.191 111.752 246.07 101.521 246.07C91.2888 246.07 81.2634 243.191 72.5908 237.762C63.9183 232.332 56.9485 224.572 52.4785 215.368C48.0086 206.165 46.2187 195.889 47.3138 185.716C48.4088 175.542 52.3444 165.883 58.6706 157.841C51.3606 148.561 156.041 118.011 156.041 124.131Z" fill="black"/>
</g>
<g id="Group_4" opacity="0.1">
<path id="Vector_19" opacity="0.1" d="M171.44 335.39C176.14 335.39 179.95 330.407 179.95 324.26C179.95 318.113 176.14 313.13 171.44 313.13C166.74 313.13 162.93 318.113 162.93 324.26C162.93 330.407 166.74 335.39 171.44 335.39Z" fill="#3F3D56"/>
<path id="Vector_20" opacity="0.1" d="M178.17 276.63C179.353 274.561 179.964 272.214 179.94 269.83C179.94 263.68 176.14 258.69 171.44 258.69C166.74 258.69 162.93 263.69 162.93 269.83C162.909 272.214 163.523 274.562 164.71 276.63C163.543 278.708 162.93 281.052 162.93 283.435C162.93 285.818 163.543 288.162 164.71 290.24C163.543 292.318 162.93 294.662 162.93 297.045C162.93 299.428 163.543 301.772 164.71 303.85C163.523 305.918 162.909 308.265 162.93 310.65C162.93 316.8 166.74 321.79 171.44 321.79C176.14 321.79 179.94 316.79 179.94 310.65C179.964 308.266 179.353 305.919 178.17 303.85C179.328 301.769 179.935 299.427 179.935 297.045C179.935 294.663 179.328 292.321 178.17 290.24C179.328 288.159 179.935 285.817 179.935 283.435C179.935 281.053 179.328 278.711 178.17 276.63Z" fill="#3F3D56"/>
<path id="Vector_21" opacity="0.1" d="M171.44 267.35C176.14 267.35 179.95 262.367 179.95 256.22C179.95 250.073 176.14 245.09 171.44 245.09C166.74 245.09 162.93 250.073 162.93 256.22C162.93 262.367 166.74 267.35 171.44 267.35Z" fill="#3F3D56"/>
<path id="Vector_22" opacity="0.1" d="M171.44 253.74C176.14 253.74 179.95 248.757 179.95 242.61C179.95 236.463 176.14 231.48 171.44 231.48C166.74 231.48 162.93 236.463 162.93 242.61C162.93 248.757 166.74 253.74 171.44 253.74Z" fill="#3F3D56"/>
<path id="Vector_23" opacity="0.1" d="M139.6 149.48C138.436 148.003 137.376 146.446 136.43 144.82L158.78 141.15L134.61 141.33C132.291 136.284 131.026 130.817 130.892 125.265C130.758 119.713 131.758 114.192 133.83 109.04L166.26 125.87L136.35 103.87C139.147 99.0182 142.914 94.795 147.417 91.4641C151.919 88.1332 157.059 85.7661 162.517 84.5105C167.975 83.2549 173.633 83.1378 179.138 84.1665C184.643 85.1952 189.877 87.3476 194.513 90.4893C199.149 93.6311 203.088 97.6947 206.084 102.427C209.079 107.159 211.067 112.457 211.924 117.992C212.78 123.526 212.487 129.178 211.061 134.594C209.636 140.01 207.11 145.074 203.64 149.47C205.457 151.769 207.016 154.261 208.29 156.9L179.29 171.97L210.22 161.59C212.392 168.011 212.929 174.872 211.782 181.552C210.635 188.233 207.84 194.522 203.65 199.85C208.384 205.858 211.33 213.076 212.153 220.68C212.976 228.284 211.642 235.967 208.304 242.848C204.965 249.729 199.757 255.532 193.274 259.591C186.792 263.651 179.298 265.804 171.65 265.804C164.002 265.804 156.508 263.651 150.025 259.591C143.543 255.532 138.335 249.729 134.996 242.848C131.658 235.967 130.324 228.284 131.146 220.68C131.969 213.076 134.916 205.858 139.65 199.85C134 192.669 130.929 183.797 130.929 174.66C130.929 165.523 134 156.651 139.65 149.47L139.6 149.48Z" fill="#6C63FF"/>
<path id="Vector_24" opacity="0.1" d="M212.36 174.67C212.374 183.809 209.301 192.685 203.64 199.86C208.374 205.868 211.32 213.086 212.143 220.69C212.966 228.294 211.632 235.977 208.294 242.858C204.955 249.739 199.747 255.542 193.264 259.601C186.782 263.661 179.288 265.814 171.64 265.814C163.992 265.814 156.498 263.661 150.016 259.601C143.533 255.542 138.325 249.739 134.986 242.858C131.648 235.977 130.314 228.294 131.137 220.69C131.959 213.086 134.906 205.868 139.64 199.86C134.14 192.93 212.36 170.1 212.36 174.67Z" fill="black"/>
</g>
<path id="Vector_25" opacity="0.1" d="M991.83 198.36C988.26 197.686 984.57 198.09 981.23 199.52C979.225 200.413 977.055 200.875 974.86 200.875C972.665 200.875 970.495 200.413 968.49 199.52C966.118 198.479 963.548 197.966 960.958 198.016C958.368 198.066 955.82 198.678 953.49 199.81C952.163 200.515 950.683 200.886 949.18 200.89C943.1 200.89 938.05 194.77 937 186.7C938.197 185.808 939.214 184.699 940 183.43C943.56 177.69 949.07 174 955.27 174C961.47 174 966.91 177.64 970.47 183.32C971.53 185.036 973.017 186.448 974.785 187.419C976.553 188.39 978.543 188.887 980.56 188.86H980.72C985.61 188.81 989.8 192.69 991.83 198.36Z" fill="#6C63FF"/>
<path id="Vector_26" opacity="0.1" d="M391.26 104.96C388.758 104.487 386.172 104.769 383.83 105.77C382.428 106.396 380.91 106.72 379.375 106.72C377.84 106.72 376.322 106.396 374.92 105.77C373.261 105.041 371.463 104.683 369.652 104.719C367.84 104.755 366.058 105.186 364.43 105.98C363.503 106.463 362.475 106.72 361.43 106.73C357.18 106.73 353.64 102.45 352.9 96.8C353.748 96.1782 354.471 95.4011 355.03 94.51C357.52 90.51 361.38 87.91 365.72 87.91C370.06 87.91 373.87 90.46 376.36 94.43C377.104 95.6317 378.145 96.6207 379.384 97.3006C380.623 97.9804 382.017 98.3282 383.43 98.31H383.54C386.9 98.29 389.83 101.01 391.26 104.96Z" fill="#6C63FF"/>
<path id="Vector_27" opacity="0.1" d="M269.59 183.37C272.089 182.898 274.672 183.18 277.01 184.18C278.413 184.807 279.933 185.13 281.47 185.13C283.007 185.13 284.527 184.807 285.93 184.18C287.589 183.452 289.386 183.094 291.197 183.128C293.008 183.163 294.79 183.59 296.42 184.38C297.344 184.872 298.373 185.133 299.42 185.14C303.67 185.14 307.21 180.85 307.94 175.2C307.092 174.58 306.373 173.803 305.82 172.91C303.32 168.91 299.46 166.32 295.13 166.32C290.8 166.32 286.98 168.86 284.48 172.84C283.737 174.04 282.697 175.028 281.46 175.708C280.223 176.388 278.831 176.736 277.42 176.72H277.31C273.94 176.74 271 179.45 269.59 183.37Z" fill="#6C63FF"/>
<g id="cloudC">
<path id="Vector_28" opacity="0.1" d="M998.36 177.59L988.54 183.81L994.54 172.97C992.85 171.625 990.76 170.882 988.6 170.86H988.44C987.77 170.869 987.101 170.819 986.44 170.71L983.06 172.82L984.49 170.22C982.127 169.402 980.085 167.854 978.66 165.8L972.66 169.58L976.42 162.74C972.94 158.56 968.24 156 963.08 156C956.88 156 951.37 159.68 947.8 165.42C946.748 167.136 945.26 168.544 943.488 169.499C941.716 170.455 939.722 170.924 937.71 170.86H937.38C930.54 170.86 925 178.61 925 188.17C925 197.73 930.54 205.49 937.38 205.49C938.882 205.48 940.36 205.11 941.69 204.41C944.019 203.275 946.567 202.66 949.157 202.609C951.747 202.557 954.318 203.069 956.69 204.11C958.693 205.01 960.864 205.475 963.06 205.475C965.256 205.475 967.427 205.01 969.43 204.11C971.783 203.092 974.328 202.592 976.891 202.642C979.455 202.692 981.978 203.291 984.29 204.4C985.605 205.088 987.066 205.452 988.55 205.46C995.39 205.46 1000.93 197.7 1000.93 188.14C1000.97 184.464 1000.09 180.836 998.36 177.59Z" fill="#6C63FF"/>
<path id="Vector_29" opacity="0.1" d="M392.33 165.12L385.46 169.48L389.63 161.89C388.451 160.946 386.99 160.425 385.48 160.41H385.36C384.884 160.419 384.409 160.382 383.94 160.3L381.61 161.78L382.61 159.96C380.958 159.385 379.531 158.304 378.53 156.87L374.36 159.51L377 154.73C375.891 153.298 374.478 152.131 372.863 151.313C371.247 150.495 369.47 150.047 367.66 150C363.32 150 359.46 152.58 356.97 156.6C356.232 157.802 355.189 158.787 353.948 159.456C352.706 160.126 351.31 160.455 349.9 160.41H349.67C344.88 160.41 341 165.83 341 172.53C341 179.23 344.88 184.65 349.67 184.65C350.717 184.642 351.746 184.381 352.67 183.89C354.298 183.1 356.079 182.673 357.888 182.638C359.697 182.604 361.493 182.963 363.15 183.69C364.56 184.333 366.09 184.674 367.64 184.69C369.166 184.687 370.675 184.367 372.07 183.75C373.717 183.037 375.498 182.686 377.292 182.721C379.086 182.755 380.852 183.174 382.47 183.95C383.396 184.435 384.425 184.689 385.47 184.69C390.25 184.69 394.13 179.26 394.13 172.57C394.17 169.974 393.551 167.411 392.33 165.12Z" fill="#6C63FF"/>
<path id="Vector_30" opacity="0.1" d="M120.773 231.11L127.653 235.47L123.472 227.89C124.654 226.943 126.118 226.419 127.632 226.4H127.743C128.221 226.407 128.699 226.373 129.173 226.3L131.502 227.77L130.502 225.96C132.151 225.384 133.575 224.303 134.572 222.87L138.743 225.51L136.143 220.72C137.252 219.29 138.665 218.124 140.281 217.308C141.896 216.491 143.673 216.045 145.483 216C149.812 216 153.682 218.58 156.173 222.6C156.91 223.8 157.951 224.785 159.19 225.454C160.43 226.123 161.824 226.453 163.232 226.41H163.472C168.252 226.41 172.132 231.84 172.132 238.53C172.132 245.22 168.252 250.65 163.472 250.65C162.427 250.645 161.397 250.388 160.472 249.9C158.844 249.106 157.062 248.675 155.251 248.639C153.439 248.603 151.641 248.961 149.983 249.69C148.577 250.339 147.05 250.68 145.502 250.69C143.973 250.689 142.461 250.369 141.063 249.75C139.417 249.037 137.638 248.687 135.846 248.721C134.053 248.756 132.289 249.175 130.673 249.95C129.747 250.435 128.718 250.689 127.673 250.69C122.883 250.69 119.002 245.27 119.002 238.57C118.956 235.974 119.565 233.408 120.773 231.11Z" fill="#6C63FF"/>
</g>
<path id="Vector_31" d="M626.221 418.781C628.831 413.941 625.871 408.021 622.471 403.711C619.071 399.401 614.911 394.911 615.001 389.421C615.131 381.531 623.511 376.861 630.201 372.681C635.17 369.566 639.751 365.874 643.851 361.681C645.566 360.067 646.984 358.165 648.041 356.061C649.431 352.981 649.391 349.461 649.301 346.061C649.015 334.801 648.458 323.548 647.631 312.301" stroke="#3F3D56" stroke-width="4" stroke-miterlimit="10"/>
<path id="Vector_32" d="M660.361 311.741C660.265 309.679 659.651 307.673 658.576 305.91C657.502 304.147 656.001 302.682 654.211 301.651L651.451 307.101L651.541 300.501C649.038 299.764 646.366 299.842 643.91 300.722C641.454 301.603 639.341 303.241 637.876 305.401C636.412 307.561 635.671 310.13 635.762 312.737C635.853 315.345 636.769 317.857 638.38 319.909C639.991 321.962 642.212 323.45 644.724 324.158C647.235 324.866 649.907 324.758 652.352 323.849C654.798 322.94 656.892 321.278 658.332 319.101C659.771 316.925 660.482 314.348 660.361 311.741Z" fill="#6C63FF"/>
<path id="Vector_33" d="M638.401 395.061C637.163 397.468 635.166 399.4 632.719 400.557C630.272 401.715 627.512 402.033 624.866 401.464C622.22 400.895 619.835 399.469 618.081 397.408C616.326 395.347 615.3 392.764 615.161 390.061C615.069 388.357 615.342 386.652 615.961 385.061C616.868 382.741 618.457 380.75 620.518 379.352C622.579 377.953 625.015 377.211 627.506 377.225C629.997 377.239 632.425 378.008 634.47 379.43C636.515 380.852 638.081 382.861 638.961 385.191L631.271 391.451L639.731 389.451C639.741 391.4 639.285 393.324 638.401 395.061Z" fill="#6C63FF"/>
<path id="Vector_34" d="M632.321 371.161C629.3 371.304 626.333 370.329 623.984 368.423C621.636 366.517 620.072 363.813 619.59 360.827C619.108 357.842 619.741 354.783 621.37 352.235C622.999 349.687 625.509 347.827 628.421 347.011L628.351 352.081L631.141 346.561C634.404 346.409 637.593 347.558 640.007 349.757C642.422 351.956 643.864 355.024 644.016 358.286C644.169 361.548 643.019 364.738 640.82 367.152C638.622 369.567 635.554 371.009 632.291 371.161H632.321Z" fill="#6C63FF"/>
<path id="Vector_35" d="M662.211 351.271C660.303 351.37 658.397 351.023 656.646 350.257C654.895 349.492 653.346 348.329 652.122 346.862C650.898 345.394 650.033 343.661 649.594 341.801C649.156 339.941 649.157 338.004 649.597 336.144C650.037 334.284 650.904 332.552 652.129 331.086C653.354 329.619 654.904 328.458 656.656 327.694C658.408 326.93 660.313 326.584 662.222 326.685C664.13 326.785 665.989 327.328 667.651 328.271L665.481 334.271L669.911 329.891C671.703 331.534 672.969 333.67 673.548 336.031C674.127 338.392 673.995 340.871 673.167 343.157C672.339 345.442 670.853 347.432 668.896 348.874C666.94 350.316 664.6 351.147 662.171 351.261L662.211 351.271Z" fill="#6C63FF"/>
<path id="Vector_36" opacity="0.1" d="M658.701 315.021C655.861 315.331 653.101 316.211 650.241 316.391C647.381 316.571 644.241 315.881 642.461 313.671C641.624 312.383 640.863 311.048 640.181 309.671C639.404 308.458 638.339 307.455 637.081 306.751C636.285 308.311 635.831 310.023 635.749 311.773C635.667 313.523 635.96 315.27 636.607 316.898C637.254 318.525 638.242 319.996 639.503 321.212C640.764 322.427 642.27 323.36 643.921 323.946C645.571 324.533 647.328 324.761 649.073 324.615C650.819 324.469 652.513 323.952 654.043 323.099C655.572 322.245 656.902 321.075 657.944 319.667C658.985 318.258 659.714 316.644 660.081 314.931C659.631 314.941 659.161 314.971 658.701 315.021Z" fill="black"/>
<path id="Vector_37" opacity="0.1" d="M662.211 351.271C660.089 351.372 657.977 350.921 656.08 349.963C654.183 349.005 652.567 347.573 651.388 345.805C650.209 344.037 649.507 341.994 649.352 339.875C649.197 337.755 649.593 335.632 650.501 333.711C651.477 334.37 652.316 335.213 652.971 336.191C653.707 337.593 654.522 338.952 655.411 340.261C657.331 342.511 660.611 343.261 663.581 343.111C666.551 342.961 669.421 342.111 672.381 341.861C672.791 341.861 673.201 341.801 673.621 341.791C673.009 344.397 671.564 346.732 669.505 348.443C667.446 350.154 664.885 351.147 662.211 351.271Z" fill="black"/>
<path id="Vector_38" opacity="0.1" d="M632.321 371.161C630.221 371.26 628.13 370.818 626.248 369.879C624.367 368.94 622.757 367.535 621.573 365.797C620.389 364.059 619.669 362.047 619.483 359.952C619.298 357.858 619.652 355.75 620.511 353.831C621.526 354.499 622.411 355.346 623.121 356.331C623.928 357.767 624.819 359.152 625.791 360.481C627.861 362.791 631.361 363.611 634.501 363.481C637.641 363.351 640.501 362.671 643.501 362.481C642.755 364.901 641.281 367.032 639.281 368.585C637.281 370.138 634.851 371.038 632.321 371.161Z" fill="black"/>
<path id="Vector_39" opacity="0.1" d="M638.401 395.061C637.163 397.468 635.166 399.4 632.719 400.557C630.272 401.715 627.512 402.033 624.866 401.464C622.22 400.895 619.835 399.469 618.081 397.408C616.326 395.347 615.3 392.764 615.161 390.061C615.069 388.357 615.342 386.652 615.961 385.061C616.975 385.727 617.885 386.539 618.661 387.471C619.831 388.891 620.601 390.471 621.961 391.841C624.471 394.311 628.541 395.331 632.151 395.421C634.24 395.428 636.327 395.307 638.401 395.061Z" fill="black"/>
<path id="Vector_40" d="M94.0007 420.451C96.6107 415.611 93.6507 409.691 90.2507 405.381C86.8507 401.071 82.6907 396.561 82.7807 391.091C82.9107 383.201 91.2907 378.531 97.9807 374.351C102.949 371.236 107.531 367.544 111.631 363.351C113.345 361.737 114.763 359.835 115.821 357.731C117.211 354.651 117.171 351.131 117.081 347.731C116.787 336.471 116.231 325.218 115.411 313.971" stroke="#3F3D56" stroke-width="4" stroke-miterlimit="10"/>
<path id="Vector_41" d="M128.141 313.411C128.044 311.348 127.43 309.343 126.355 307.58C125.281 305.817 123.78 304.352 121.991 303.321L119.231 308.771L119.321 302.171C116.818 301.434 114.145 301.512 111.689 302.392C109.233 303.273 107.12 304.911 105.656 307.071C104.191 309.23 103.451 311.8 103.541 314.407C103.632 317.015 104.549 319.526 106.159 321.579C107.77 323.632 109.992 325.12 112.503 325.828C115.014 326.536 117.686 326.428 120.132 325.519C122.578 324.61 124.671 322.948 126.111 320.771C127.55 318.595 128.261 316.018 128.141 313.411Z" fill="#6C63FF"/>
<path id="Vector_42" d="M106.181 396.731C104.942 399.138 102.945 401.07 100.498 402.227C98.0516 403.385 95.2915 403.703 92.6452 403.134C89.999 402.565 87.6142 401.139 85.8599 399.078C84.1056 397.016 83.0796 394.434 82.9407 391.731C82.8487 390.026 83.1214 388.322 83.7407 386.731C84.6473 384.411 86.2358 382.42 88.2968 381.021C90.3578 379.622 92.7945 378.881 95.2853 378.895C97.7762 378.909 100.204 379.678 102.249 381.1C104.294 382.522 105.86 384.531 106.741 386.861L99.0507 393.121L107.511 391.121C107.52 393.07 107.064 394.994 106.181 396.731Z" fill="#6C63FF"/>
<path id="Vector_43" d="M100.101 372.831C97.0797 372.973 94.112 371.999 91.7637 370.093C89.4155 368.187 87.8511 365.483 87.3689 362.497C86.8867 359.512 87.5206 356.453 89.1495 353.905C90.7784 351.356 93.2884 349.497 96.2007 348.681L96.1307 353.751L98.9207 348.231C100.536 348.156 102.15 348.399 103.671 348.947C105.193 349.496 106.591 350.338 107.787 351.427C108.982 352.516 109.951 353.829 110.639 355.293C111.327 356.756 111.72 358.341 111.796 359.956C111.871 361.571 111.628 363.186 111.079 364.707C110.531 366.228 109.688 367.626 108.6 368.822C107.511 370.017 106.197 370.987 104.734 371.675C103.271 372.363 101.686 372.756 100.071 372.831H100.101Z" fill="#6600FF"/>
<path id="Vector_44" d="M129.991 352.941C128.082 353.04 126.177 352.693 124.426 351.927C122.674 351.162 121.125 349.999 119.901 348.531C118.677 347.064 117.812 345.331 117.374 343.471C116.935 341.611 116.936 339.674 117.376 337.814C117.816 335.954 118.683 334.222 119.908 332.756C121.133 331.289 122.683 330.128 124.435 329.364C126.187 328.6 128.092 328.254 130.001 328.354C131.91 328.455 133.768 328.998 135.431 329.941L133.261 335.941L137.691 331.561C139.482 333.204 140.748 335.34 141.327 337.701C141.906 340.062 141.774 342.541 140.946 344.827C140.118 347.112 138.632 349.102 136.675 350.544C134.719 351.986 132.379 352.817 129.951 352.931L129.991 352.941Z" fill="#6600FF"/>
<path id="Vector_45" opacity="0.1" d="M126.481 316.691C123.641 317.001 120.881 317.881 118.021 318.061C115.161 318.241 112.021 317.551 110.241 315.341C109.404 314.053 108.642 312.718 107.961 311.341C107.183 310.128 106.118 309.125 104.861 308.421C104.064 309.981 103.61 311.693 103.528 313.443C103.446 315.193 103.739 316.94 104.386 318.567C105.034 320.195 106.021 321.666 107.282 322.881C108.543 324.097 110.049 325.029 111.7 325.616C113.35 326.203 115.107 326.431 116.852 326.285C118.598 326.139 120.292 325.622 121.822 324.768C123.352 323.915 124.682 322.745 125.723 321.337C126.764 319.928 127.493 318.314 127.861 316.601C127.411 316.611 126.941 316.641 126.481 316.691Z" fill="black"/>
<path id="Vector_46" opacity="0.1" d="M129.991 352.941C127.868 353.042 125.756 352.591 123.859 351.633C121.962 350.675 120.346 349.242 119.167 347.475C117.988 345.707 117.287 343.664 117.131 341.545C116.976 339.425 117.372 337.302 118.281 335.381C119.257 336.04 120.095 336.883 120.751 337.861C121.486 339.263 122.301 340.622 123.191 341.931C125.111 344.181 128.391 344.931 131.361 344.781C134.331 344.631 137.201 343.781 140.161 343.531C140.571 343.531 140.981 343.471 141.401 343.461C140.788 346.067 139.343 348.402 137.284 350.113C135.225 351.823 132.665 352.816 129.991 352.941Z" fill="black"/>
<path id="Vector_47" opacity="0.1" d="M100.101 372.831C98 372.93 95.9092 372.488 94.0276 371.549C92.146 370.61 90.5363 369.205 89.3521 367.467C88.1678 365.729 87.4485 363.717 87.2627 361.622C87.0769 359.528 87.4308 357.42 88.2907 355.501C89.3053 356.169 90.1897 357.016 90.9007 358.001C91.707 359.437 92.5986 360.822 93.5707 362.151C95.6407 364.461 99.1407 365.281 102.281 365.151C105.421 365.021 108.281 364.341 111.281 364.151C110.534 366.571 109.06 368.702 107.06 370.255C105.06 371.808 102.63 372.707 100.101 372.831Z" fill="black"/>
<path id="Vector_48" opacity="0.1" d="M106.181 396.731C104.942 399.138 102.945 401.07 100.498 402.227C98.0516 403.385 95.2915 403.703 92.6452 403.134C89.999 402.565 87.6142 401.139 85.8599 399.078C84.1056 397.016 83.0796 394.434 82.9407 391.731C82.8487 390.026 83.1214 388.322 83.7407 386.731C84.7547 387.397 85.6645 388.209 86.4407 389.141C87.6107 390.561 88.3807 392.141 89.7407 393.511C92.2507 395.981 96.3207 397.001 99.9307 397.091C102.019 397.097 104.107 396.977 106.181 396.731Z" fill="black"/>
<path id="Vector_49" d="M460.52 335.89C457.91 331.06 460.87 325.14 464.28 320.83C467.69 316.52 471.83 312.03 471.74 306.54C471.62 298.64 463.24 293.98 456.54 289.8C451.574 286.686 446.995 282.994 442.9 278.8C441.177 277.195 439.755 275.295 438.7 273.19C437.32 270.1 437.36 266.59 437.44 263.19C437.74 251.93 438.297 240.677 439.11 229.43" stroke="#3F3D56" stroke-width="4" stroke-miterlimit="10"/>
<path id="Vector_50" d="M426.39 228.86C426.485 226.798 427.097 224.793 428.17 223.03C429.243 221.266 430.742 219.802 432.53 218.77L435.29 224.22L435.21 217.62C436.524 217.238 437.892 217.073 439.26 217.13C441.692 217.243 444.035 218.075 445.994 219.52C447.954 220.965 449.44 222.959 450.266 225.249C451.093 227.539 451.221 230.022 450.636 232.385C450.051 234.748 448.778 236.885 446.979 238.525C445.18 240.165 442.935 241.234 440.528 241.598C438.121 241.962 435.66 241.604 433.456 240.57C431.252 239.536 429.405 237.871 428.147 235.787C426.889 233.702 426.278 231.292 426.39 228.86Z" fill="#6C63FF"/>
<path id="Vector_51" d="M448.34 312.18C449.63 314.692 451.746 316.684 454.331 317.822C456.916 318.96 459.813 319.175 462.538 318.429C465.262 317.684 467.647 316.025 469.293 313.73C470.939 311.435 471.746 308.643 471.578 305.824C471.41 303.005 470.278 300.329 468.371 298.245C466.465 296.161 463.899 294.797 461.106 294.38C458.312 293.964 455.461 294.52 453.029 295.957C450.597 297.393 448.733 299.622 447.75 302.27L455.44 308.53L446.98 306.53C446.973 308.495 447.44 310.433 448.34 312.18Z" fill="#6C63FF"/>
<path id="Vector_52" d="M454.42 288.28C457.442 288.425 460.412 287.453 462.762 285.547C465.113 283.642 466.679 280.938 467.163 277.952C467.647 274.965 467.013 271.905 465.384 269.355C463.755 266.806 461.244 264.946 458.33 264.13L458.39 269.2L455.6 263.68C452.339 263.52 449.148 264.661 446.729 266.853C444.31 269.046 442.86 272.109 442.7 275.37C442.63 276.79 442.809 278.212 443.23 279.57C443.968 281.999 445.44 284.14 447.444 285.7C449.447 287.259 451.884 288.161 454.42 288.28Z" fill="#6C63FF"/>
<path id="Vector_53" d="M424.54 268.37C426.448 268.467 428.353 268.119 430.103 267.352C431.854 266.586 433.402 265.423 434.625 263.954C435.848 262.486 436.712 260.753 437.149 258.893C437.587 257.033 437.585 255.097 437.144 253.238C436.704 251.378 435.836 249.647 434.611 248.181C433.385 246.715 431.836 245.554 430.084 244.791C428.332 244.028 426.427 243.682 424.519 243.783C422.61 243.883 420.752 244.427 419.09 245.37L421.27 251.37L416.79 247.08C415.595 248.163 414.626 249.471 413.94 250.93C413.253 252.389 412.862 253.969 412.79 255.58C412.73 256.719 412.835 257.861 413.1 258.97C413.727 261.567 415.183 263.888 417.247 265.584C419.311 267.28 421.871 268.258 424.54 268.37Z" fill="#6C63FF"/>
<path id="Vector_54" opacity="0.1" d="M428.05 232.14C430.89 232.45 433.65 233.33 436.5 233.51C439.35 233.69 442.5 233 444.29 230.79C445.124 229.502 445.882 228.166 446.56 226.79C447.341 225.576 448.409 224.573 449.67 223.87C450.468 225.431 450.923 227.144 451.006 228.894C451.089 230.645 450.796 232.393 450.149 234.022C449.501 235.651 448.513 237.122 447.251 238.339C445.989 239.555 444.482 240.487 442.83 241.074C441.178 241.661 439.421 241.888 437.674 241.74C435.928 241.593 434.233 241.074 432.703 240.219C431.173 239.364 429.843 238.192 428.803 236.781C427.763 235.371 427.035 233.754 426.67 232.04C427.12 232.05 427.58 232.09 428.05 232.14Z" fill="black"/>
<path id="Vector_55" opacity="0.1" d="M424.54 268.37C426.662 268.468 428.772 268.015 430.667 267.056C432.563 266.098 434.178 264.665 435.356 262.898C436.534 261.131 437.236 259.09 437.392 256.972C437.549 254.854 437.156 252.731 436.25 250.81C435.271 251.469 434.429 252.311 433.77 253.29C433.035 254.692 432.22 256.051 431.33 257.36C429.42 259.61 426.14 260.36 423.17 260.21C420.2 260.06 417.33 259.21 414.37 258.96C413.96 258.96 413.54 258.9 413.13 258.89C413.741 261.497 415.186 263.833 417.245 265.544C419.304 267.255 421.866 268.247 424.54 268.37Z" fill="black"/>
<path id="Vector_56" opacity="0.1" d="M454.42 288.28C456.522 288.381 458.614 287.942 460.497 287.003C462.38 286.065 463.991 284.66 465.176 282.921C466.361 281.182 467.08 279.169 467.265 277.073C467.449 274.977 467.093 272.869 466.23 270.95C465.217 271.616 464.335 272.463 463.63 273.45C462.824 274.885 461.932 276.271 460.96 277.6C458.88 279.91 455.39 280.73 452.24 280.6C449.09 280.47 446.24 279.79 443.24 279.6C443.983 282.022 445.455 284.156 447.456 285.709C449.457 287.263 451.889 288.161 454.42 288.28Z" fill="black"/>
<path id="Vector_57" opacity="0.1" d="M448.34 312.18C449.785 314.966 452.239 317.094 455.201 318.131C458.163 319.167 461.41 319.033 464.276 317.756C467.143 316.48 469.413 314.156 470.624 311.261C471.835 308.366 471.894 305.117 470.79 302.18C469.772 302.84 468.861 303.653 468.09 304.59C466.92 306.01 466.09 307.59 464.79 308.96C462.27 311.43 458.21 312.45 454.59 312.54C452.501 312.541 450.415 312.421 448.34 312.18Z" fill="black"/>
<g id="callP">
<path id="Vector_58" d="M822.64 263.96C819.16 260.48 810.79 255.23 806.64 253.27C801.85 250.97 800.09 251.01 796.7 253.46C793.88 255.46 792.05 257.39 788.81 256.68C785.57 255.97 779.15 251.13 772.94 244.94C766.73 238.75 761.91 232.37 761.22 229.08C760.53 225.79 762.43 224 764.45 221.18C766.89 217.79 766.96 216.03 764.64 211.24C762.64 207.09 757.45 198.74 753.94 195.24C750.43 191.74 749.67 192.51 747.75 193.24C745.774 194.068 743.876 195.072 742.08 196.24C738.6 198.57 736.65 200.51 735.28 203.43C733.91 206.35 732.36 211.77 740.33 225.96C746.209 236.815 753.656 246.745 762.43 255.43V255.43C771.144 264.224 781.108 271.684 792 277.57C806.18 285.57 811.61 283.98 814.53 282.62C817.45 281.26 819.39 279.33 821.71 275.82C822.88 274.025 823.884 272.127 824.71 270.15C825.37 268.23 826.15 267.45 822.64 263.96Z" fill="#6600FF"/>
</g>
<path id="Vector_59" opacity="0.1" d="M779.73 138.23C759.948 138.22 740.607 144.078 724.154 155.062C707.702 166.047 694.877 181.664 687.302 199.939C679.727 218.213 677.742 238.324 681.599 257.727C685.456 277.13 694.981 294.952 708.969 308.941C722.958 322.929 740.78 332.454 760.183 336.311C779.586 340.168 799.697 338.183 817.971 330.608C836.246 323.033 851.863 310.208 862.848 293.756C873.832 277.303 879.69 257.962 879.68 238.18C879.667 211.676 869.132 186.261 850.391 167.519C831.649 148.778 806.234 138.243 779.73 138.23V138.23ZM779.73 324.85C762.588 324.85 745.832 319.767 731.579 310.243C717.326 300.72 706.217 287.184 699.657 271.347C693.098 255.51 691.381 238.084 694.725 221.272C698.07 204.459 706.324 189.016 718.445 176.895C730.566 164.774 746.009 156.52 762.822 153.175C779.634 149.831 797.06 151.548 812.897 158.107C828.734 164.667 842.27 175.776 851.793 190.029C861.317 204.282 866.4 221.038 866.4 238.18C866.4 249.562 864.158 260.832 859.803 271.347C855.447 281.862 849.063 291.417 841.015 299.465C832.967 307.513 823.412 313.897 812.897 318.253C802.382 322.608 791.112 324.85 779.73 324.85Z" fill="black"/>
<g id="mesgP">
<path id="Vector_60" d="M246.16 76.75L216.23 107.2C216.177 107.25 216.135 107.311 216.107 107.378C216.078 107.445 216.063 107.517 216.063 107.59C216.063 107.663 216.078 107.735 216.107 107.802C216.135 107.869 216.177 107.93 216.23 107.98L237.23 130.31C237.732 130.816 238.074 131.459 238.212 132.159C238.35 132.859 238.279 133.584 238.006 134.243C237.734 134.902 237.273 135.466 236.681 135.864C236.089 136.262 235.393 136.476 234.68 136.48C233.72 136.478 232.8 136.097 232.12 135.42L211.23 113.17C211.123 113.065 210.98 113.006 210.83 113.006C210.68 113.006 210.537 113.065 210.43 113.17L205.34 118.31C203.256 120.441 200.767 122.134 198.019 123.29C195.272 124.446 192.321 125.041 189.34 125.04C186.303 125.026 183.299 124.407 180.503 123.219C177.708 122.03 175.178 120.297 173.06 118.12L168.17 113.12C168.063 113.015 167.92 112.956 167.77 112.956C167.62 112.956 167.477 113.015 167.37 113.12L146.53 135.32C146.195 135.656 145.796 135.922 145.358 136.104C144.92 136.286 144.45 136.38 143.975 136.38C143.5 136.38 143.03 136.286 142.592 136.104C142.154 135.922 141.755 135.656 141.42 135.32C141.083 134.985 140.815 134.587 140.633 134.149C140.45 133.71 140.356 133.24 140.356 132.765C140.356 132.29 140.45 131.82 140.633 131.381C140.815 130.943 141.083 130.545 141.42 130.21L162.34 107.93C162.433 107.821 162.484 107.683 162.484 107.54C162.484 107.397 162.433 107.259 162.34 107.15L132.41 76.7C132.333 76.6227 132.235 76.5699 132.128 76.5485C132.021 76.5271 131.91 76.538 131.809 76.5798C131.708 76.6216 131.622 76.6924 131.562 76.7833C131.502 76.8741 131.47 76.9809 131.47 77.09V138.02C131.478 140.375 132.417 142.632 134.083 144.297C135.748 145.963 138.005 146.902 140.36 146.91H238.23C240.585 146.902 242.842 145.963 244.507 144.297C246.173 142.632 247.112 140.375 247.12 138.02V77.14C247.125 77.0266 247.095 76.9145 247.033 76.8189C246.972 76.7234 246.883 76.6492 246.778 76.6065C246.672 76.5637 246.557 76.5546 246.446 76.5803C246.335 76.606 246.236 76.6653 246.16 76.75Z" fill="#6600FF"/>
<path id="Vector_61" d="M189.31 117.81C191.339 117.83 193.351 117.442 195.227 116.669C197.103 115.896 198.804 114.754 200.23 113.31L243.82 68.94C242.273 67.6582 240.329 66.9515 238.32 66.94H140.38C138.37 66.9466 136.425 67.6538 134.88 68.94L178.48 113.31C179.893 114.745 181.58 115.883 183.44 116.656C185.3 117.429 187.296 117.821 189.31 117.81Z" fill="#6600FF"/>
</g>
<path id="Vector_62" opacity="0.1" d="M188.05 7.00001C168.268 6.99012 148.927 12.8479 132.474 23.8322C116.022 34.8166 103.197 50.4339 95.6217 68.7086C88.0467 86.9832 86.0622 107.094 89.9191 126.497C93.776 145.9 103.301 163.722 117.289 177.711C131.278 191.699 149.101 201.224 168.503 205.081C187.906 208.938 208.017 206.953 226.291 199.378C244.566 191.803 260.183 178.978 271.168 162.526C282.152 146.073 288.01 126.732 288 106.95C287.987 80.4457 277.452 55.0307 258.711 36.2893C239.969 17.5479 214.554 7.01326 188.05 7.00001ZM188.05 193.62C170.908 193.62 154.152 188.537 139.899 179.014C125.646 169.49 114.537 155.954 107.977 140.117C101.418 124.28 99.7012 106.854 103.045 90.0415C106.39 73.2292 114.644 57.7861 126.765 45.6651C138.886 33.544 154.329 25.2895 171.142 21.9454C187.954 18.6012 205.38 20.3175 221.217 26.8774C237.054 33.4372 250.59 44.5459 260.114 58.7987C269.637 73.0516 274.72 89.8083 274.72 106.95C274.72 129.936 265.589 151.981 249.335 168.235C233.081 184.489 211.036 193.62 188.05 193.62Z" fill="black"/>
<g id="arrP">
<path id="Vector_63" d="M312.85 267.53L273 359.47L276.72 363.19L312.86 347.25L349 363.19L352.72 359.47L312.85 267.53Z" fill="#6600FF"/>
</g>
<path id="Vector_64" opacity="0.1" d="M312.85 215.37C293.07 215.36 273.731 221.217 257.279 232.199C240.828 243.181 228.003 258.795 220.426 277.067C212.85 295.339 210.862 315.447 214.715 334.848C218.568 354.25 228.088 372.073 242.072 386.063C256.055 400.053 273.873 409.582 293.273 413.445C312.672 417.307 332.781 415.33 351.057 407.763C369.332 400.195 384.953 387.378 395.943 370.932C406.934 354.486 412.8 335.15 412.8 315.37C412.8 288.857 402.271 263.429 383.528 244.677C364.785 225.925 339.363 215.383 312.85 215.37V215.37ZM312.85 401.99C295.706 401.99 278.947 396.906 264.694 387.38C250.44 377.854 239.331 364.315 232.773 348.476C226.214 332.636 224.501 315.207 227.849 298.393C231.197 281.579 239.457 266.136 251.583 254.017C263.709 241.898 279.157 233.648 295.972 230.309C312.788 226.971 330.216 228.694 346.052 235.262C361.888 241.829 375.42 252.946 384.938 267.205C394.455 281.465 399.53 298.226 399.52 315.37C399.517 338.355 390.385 360.397 374.131 376.649C357.878 392.9 335.835 402.03 312.85 402.03V401.99Z" fill="black"/>
<g id="girl">
<path id="Vector_65" d="M548.843 143.42C547.937 141.207 547.007 139 546.053 136.8C545.268 134.653 544.114 132.66 542.643 130.91C542.085 130.28 541.404 129.77 540.643 129.41C539.806 129.101 538.925 128.926 538.033 128.89C536.674 128.719 535.3 128.682 533.933 128.78C533.403 128.62 532.803 128.41 532.213 128.17C535.172 127.393 537.803 125.685 539.719 123.3C541.634 120.915 542.733 117.977 542.853 114.92C542.853 114.72 542.853 114.51 542.853 114.31C542.861 112.439 542.501 110.584 541.792 108.852C541.083 107.12 540.04 105.545 538.722 104.216C537.404 102.887 535.838 101.831 534.112 101.108C532.386 100.384 530.535 100.008 528.663 100C526.029 99.995 523.447 100.733 521.213 102.13C518.264 101.461 515.175 101.812 512.45 103.125C509.726 104.438 507.527 106.636 506.213 109.36C504.557 110.945 503.248 112.856 502.37 114.974C501.492 117.091 501.064 119.368 501.113 121.66C501.113 121.87 501.113 122.09 501.113 122.29C501.373 130.06 506.393 136.29 512.733 136.92C512.056 137.225 511.434 137.64 510.893 138.15C508.953 140.02 508.633 142.99 508.423 145.69L508.273 147.69L504.913 148.89C504.807 148.928 504.712 148.995 504.641 149.083C504.569 149.171 504.523 149.277 504.507 149.389C504.492 149.502 504.508 149.616 504.553 149.721C504.598 149.825 504.671 149.914 504.763 149.98L507.973 152.27C507.973 152.46 507.973 152.65 507.973 152.84C507.973 153.03 507.973 153.27 508.033 153.49C507.485 153.973 507.06 154.58 506.793 155.26C506.481 156.31 506.382 157.412 506.503 158.5L506.623 161.29C506.608 163.39 506.894 165.481 507.473 167.5C507.893 168.74 509.713 171.73 511.023 171.75C509.813 177.25 509.493 188.85 509.493 188.85C509.343 189 509.763 189.14 510.493 189.26C511.213 194.78 513.563 210.26 517.733 217.07C518.39 219.29 518.914 221.548 519.303 223.83C519.303 223.83 520.493 238.54 522.063 242.91C523.403 246.63 524.463 255.81 524.753 258.47C524.482 258.54 524.234 258.683 524.039 258.884C523.843 259.085 523.706 259.336 523.643 259.61C522.853 261.99 517.733 265.61 517.733 265.61C516.164 266.394 514.682 267.343 513.313 268.44C511.703 269.89 511.763 271.2 518.913 270.38C532.713 268.79 535.073 264.38 535.073 264.38C535.073 264.38 534.853 263.64 534.523 262.68C534.102 261.186 533.494 259.752 532.713 258.41C532.513 258.22 532.313 258.54 532.073 259.04C531.032 252.659 530.717 246.182 531.133 239.73C531.133 239.73 531.523 232.97 529.553 228.2C529.115 225.702 529.115 223.148 529.553 220.65C530.343 217.47 526.403 201.96 526.403 201.96L524.143 190.54C524.451 190.93 524.667 191.385 524.773 191.87L524.833 192.1L524.893 192.43C524.916 192.547 524.972 192.654 525.053 192.74C526.593 199.14 530.813 216.87 530.813 219.47C530.813 222.65 534.753 230.6 534.753 230.6C534.753 230.6 536.323 243.72 539.083 248.88C541.183 252.81 541.233 258.57 541.133 261.11C541.133 261.11 540.663 264.38 539.873 265.17C539.245 265.951 538.743 266.825 538.383 267.76L538.293 267.95C538.293 267.95 537.113 270.34 537.903 270.74C540.908 271.919 544.16 272.328 547.363 271.93C547.363 271.93 548.943 269.93 548.943 269.15C548.911 268.674 548.85 268.2 548.763 267.73C548.473 265.85 547.933 262.89 547.923 262.86C548.253 261.58 546.923 258.02 546.923 258.02L546.523 246.89C547.256 239.354 546.313 231.749 543.763 224.62C543.763 224.62 541.763 217.47 542.193 215.48C542.623 213.49 541.403 192.42 541.403 192.42L541.283 192.12C541.177 190.63 541.217 189.132 541.403 187.65C541.793 182.88 540.223 172.94 539.823 172.55C539.497 171.482 539.309 170.376 539.263 169.26C539.353 168.43 539.623 166 539.993 162.98C543.881 162.847 547.76 162.513 551.613 161.98C551.986 161.98 552.344 161.837 552.613 161.58C552.771 161.34 552.852 161.057 552.843 160.77C553.303 154.78 551.113 148.96 548.843 143.42ZM540.913 156.03C541.323 153.18 541.763 150.42 542.203 148.37L542.263 148.55C543.02 150.611 543.655 152.714 544.163 154.85C543.114 155.33 542.027 155.725 540.913 156.03Z" fill="url(#paint0_linear)"/>
<path id="Vector_66" d="M510.283 188.22C510.283 188.22 512.643 209.45 517.753 217.7C518.41 219.893 518.934 222.124 519.323 224.38C519.323 224.38 520.503 238.92 522.073 243.24C523.643 247.56 524.823 259.36 524.823 259.36C524.823 259.36 530.323 265.64 532.293 260.54C531.056 253.802 530.66 246.936 531.113 240.1C531.113 240.1 531.503 233.42 529.543 228.7C529.105 226.233 529.105 223.707 529.543 221.24C530.323 218.09 526.393 202.77 526.393 202.77L523.253 187.44L510.283 188.22Z" fill="#BE6F72"/>
<path id="Vector_67" d="M535.043 264.47C535.043 264.47 532.683 268.79 518.933 270.36C511.793 271.17 511.743 269.88 513.353 268.44C514.718 267.355 516.193 266.417 517.753 265.64C517.753 265.64 522.863 262.11 523.643 259.75C524.423 257.39 527.183 259.36 527.183 259.36C531.113 265.25 531.903 257.78 532.683 258.57C533.466 259.889 534.075 261.304 534.493 262.78C534.823 263.73 535.043 264.47 535.043 264.47Z" fill="#FF6F61"/>
<path id="Vector_68" opacity="0.1" d="M535.043 264.47C535.043 264.47 532.683 268.79 518.933 270.36C511.793 271.17 511.743 269.88 513.353 268.44C514.473 269.15 516.733 269.44 521.283 267.61C527.833 264.93 532.583 263.38 534.493 262.78C534.823 263.73 535.043 264.47 535.043 264.47Z" fill="black"/>
<path id="Vector_69" opacity="0.1" d="M531.113 240.1C531.113 240.1 531.503 233.42 529.543 228.7C529.105 226.233 529.105 223.707 529.543 221.24C530.323 218.09 526.393 202.77 526.393 202.77L523.253 187.44L520.533 187.6L523.643 202.77C523.643 202.77 527.573 218.09 526.793 221.24C526.355 223.707 526.355 226.233 526.793 228.7C528.793 233.42 528.363 240.1 528.363 240.1C527.91 246.936 528.306 253.802 529.543 260.54C529.33 261.18 528.934 261.743 528.403 262.16C529.863 262.82 531.403 262.79 532.293 260.54C531.056 253.802 530.66 246.936 531.113 240.1Z" fill="black"/>
<path id="Vector_70" d="M528.553 101.96C525.931 101.955 523.36 102.686 521.133 104.07C518.193 103.391 515.109 103.728 512.385 105.027C509.661 106.325 507.457 108.508 506.133 111.22C504.484 112.78 503.179 114.668 502.303 116.762C501.426 118.856 500.997 121.11 501.043 123.38C501.043 131.74 506.673 138.51 513.613 138.51C518.613 138.51 522.993 134.95 525.003 129.8C526.158 130.106 527.348 130.261 528.543 130.26C532.296 130.26 535.895 128.769 538.549 126.116C541.203 123.462 542.693 119.863 542.693 116.11C542.693 112.357 541.203 108.758 538.549 106.104C535.895 103.451 532.296 101.96 528.543 101.96H528.553Z" fill="#3F3D56"/>
<path id="Vector_71" d="M540.153 190.19L541.333 193.33C541.333 193.33 542.513 214.16 542.113 216.13C541.713 218.1 543.693 225.13 543.693 225.13C546.235 232.168 547.174 239.683 546.443 247.13L546.833 258.13C546.833 258.13 548.403 262.45 547.623 263.24C546.843 264.03 540.913 262.54 540.913 262.54C540.913 262.54 541.703 254.29 538.913 249.18C536.123 244.07 534.593 231.1 534.593 231.1C534.593 231.1 530.663 223.24 530.663 220.1C530.663 216.96 524.373 191.41 524.373 191.41L540.153 190.19Z" fill="#BE6F72"/>
<path id="Vector_72" d="M509.493 189.8C509.493 189.8 509.893 175.65 511.493 171.33C512.308 169.311 512.895 167.208 513.243 165.06C513.243 165.06 537.033 169.36 539.003 167.79C539.003 167.79 539.393 173.29 539.793 173.68C540.193 174.07 541.793 183.9 541.363 188.62C540.933 193.34 541.363 193.33 541.363 193.33C541.363 193.33 525.243 195.69 524.853 193.33C524.463 190.97 523.283 190.98 523.283 190.98C523.283 190.98 508.713 190.54 509.493 189.8Z" fill="#3F3D56"/>
<g id="Group_5" opacity="0.1">
<path id="Vector_73" opacity="0.1" d="M522.463 189.8C522.463 189.8 512.523 189.53 509.523 188.99C509.523 189.5 509.523 189.8 509.523 189.8C508.743 190.58 523.283 190.98 523.283 190.98C523.481 190.998 523.669 191.075 523.823 191.2C523.293 189.8 522.463 189.8 522.463 189.8Z" fill="black"/>
<path id="Vector_74" opacity="0.1" d="M539.763 173.68C539.363 173.29 538.973 167.79 538.973 167.79C538.77 167.917 538.541 167.998 538.303 168.03C538.443 169.69 538.713 172.24 538.973 172.5C539.233 172.76 540.973 182.72 540.543 187.44C540.113 192.16 540.543 192.15 540.543 192.15C540.543 192.15 527.793 194.02 524.703 192.77C524.703 192.94 524.793 193.13 524.823 193.33C525.213 195.69 541.333 193.33 541.333 193.33C541.333 193.33 540.933 193.33 541.333 188.62C541.733 183.91 540.153 174.08 539.763 173.68Z" fill="black"/>
</g>
<path id="Vector_75" d="M526.813 126.72C527.152 127.477 527.666 128.142 528.313 128.66C528.73 128.969 529.213 129.178 529.723 129.27C528.843 129.78 527.883 130.16 527.003 130.67C525.619 131.6 524.284 132.602 523.003 133.67C521.694 134.723 520.09 135.345 518.413 135.45C519.002 134.657 519.371 133.722 519.483 132.741C519.596 131.759 519.447 130.766 519.053 129.86C518.693 129.266 518.455 128.607 518.353 127.92C518.353 126.79 519.353 125.92 520.283 125.32C521.033 124.81 521.803 124.32 522.583 123.83C523.193 123.45 524.113 122.65 524.883 122.68C525.653 122.71 525.743 123.39 525.883 124.09C526.081 125.002 526.394 125.886 526.813 126.72Z" fill="#BE6F72"/>
<path id="Vector_76" opacity="0.1" d="M526.813 126.72C527.152 127.477 527.666 128.142 528.313 128.66C528.73 128.969 529.213 129.178 529.723 129.27C528.843 129.78 527.883 130.16 527.003 130.67C525.619 131.6 524.284 132.602 523.003 133.67C521.694 134.723 520.09 135.345 518.413 135.45C519.002 134.657 519.371 133.722 519.483 132.741C519.596 131.759 519.447 130.766 519.053 129.86C518.693 129.266 518.455 128.607 518.353 127.92C518.353 126.79 519.353 125.92 520.283 125.32C521.033 124.81 521.803 124.32 522.583 123.83C523.193 123.45 524.113 122.65 524.883 122.68C525.653 122.71 525.743 123.39 525.883 124.09C526.081 125.002 526.394 125.886 526.813 126.72Z" fill="black"/>
<path id="Vector_77" d="M536.023 149.91C541.016 149.91 545.063 145.863 545.063 140.87C545.063 135.877 541.016 131.83 536.023 131.83C531.031 131.83 526.983 135.877 526.983 140.87C526.983 145.863 531.031 149.91 536.023 149.91Z" fill="#BE6F72"/>
<path id="Vector_78" d="M548.793 269.18C548.793 269.97 547.223 271.93 547.223 271.93C544.031 272.322 540.791 271.917 537.793 270.75C537.003 270.36 538.183 268 538.183 268L538.273 267.81C538.634 266.884 539.136 266.021 539.763 265.25C540.543 264.47 541.013 261.25 541.013 261.25C543.453 257.25 547.783 262.98 547.783 262.98C547.783 262.98 548.333 265.98 548.623 267.8C548.723 268.45 548.793 268.98 548.793 269.18Z" fill="#FF6F61"/>
<path id="Vector_79" opacity="0.1" d="M548.793 269.18C548.793 269.97 547.223 271.93 547.223 271.93C544.031 272.322 540.791 271.917 537.793 270.75C537.003 270.36 538.183 268 538.183 268L538.273 267.81C540.951 269.054 543.882 269.656 546.833 269.57L548.623 267.78C548.723 268.45 548.793 268.98 548.793 269.18Z" fill="black"/>
<path id="Vector_80" d="M517.943 130.84C522.826 130.84 526.783 126.882 526.783 122C526.783 117.118 522.826 113.16 517.943 113.16C513.061 113.16 509.103 117.118 509.103 122C509.103 126.882 513.061 130.84 517.943 130.84Z" fill="#BE6F72"/>
<path id="Vector_81" d="M510.813 139.68C508.873 141.53 508.553 144.46 508.353 147.13L508.053 151.04C507.945 152.093 507.922 153.153 507.983 154.21C507.983 154.86 508.143 155.52 508.203 156.21C508.263 156.9 508.283 157.77 508.293 158.56V164.34C508.199 165.533 508.419 166.729 508.933 167.81C509.208 168.333 509.668 168.733 510.223 168.933C510.779 169.133 511.389 169.118 511.933 168.89C512.555 168.411 512.992 167.733 513.173 166.97C514.149 164.625 514.821 162.165 515.173 159.65C515.253 158.78 515.263 157.91 515.343 157.04C515.423 156.17 515.573 155.26 515.703 154.38C516.263 150.7 516.513 146.98 516.763 143.27C516.833 142.17 517.823 137.84 516.383 137.36C515.683 137.13 514.233 137.85 513.563 138.09C512.549 138.429 511.614 138.97 510.813 139.68Z" fill="#BE6F72"/>
<path id="Vector_82" opacity="0.1" d="M510.813 139.68C508.873 141.53 508.553 144.46 508.353 147.13L508.053 151.04C507.945 152.093 507.922 153.153 507.983 154.21C507.983 154.86 508.143 155.52 508.203 156.21C508.263 156.9 508.283 157.77 508.293 158.56V164.34C508.199 165.533 508.419 166.729 508.933 167.81C509.208 168.333 509.668 168.733 510.223 168.933C510.779 169.133 511.389 169.118 511.933 168.89C512.555 168.411 512.992 167.733 513.173 166.97C514.149 164.625 514.821 162.165 515.173 159.65C515.253 158.78 515.263 157.91 515.343 157.04C515.423 156.17 515.573 155.26 515.703 154.38C516.263 150.7 516.513 146.98 516.763 143.27C516.833 142.17 517.823 137.84 516.383 137.36C515.683 137.13 514.233 137.85 513.563 138.09C512.549 138.429 511.614 138.97 510.813 139.68Z" fill="black"/>
<path id="Vector_83" d="M529.143 127.7C529.143 127.7 522.463 132.81 518.533 133.99C518.533 133.99 516.203 136.65 515.803 137.29C515.403 137.93 514.603 144.99 513.803 146.57C513.003 148.15 511.053 151.68 513.803 155.21C513.803 155.21 514.583 158.75 514.193 159.93C513.803 161.11 512.373 165.43 513.673 165.63C514.973 165.83 518.913 168.57 522.443 167.79C525.973 167.01 539.153 170.79 539.153 170.79C539.153 170.79 541.333 150.54 542.913 146.96L539.373 145.78C539.373 145.78 529.553 139.89 535.443 130.85C535.433 130.85 529.913 129.67 529.143 127.7Z" fill="#FF6F61"/>
<path id="Vector_84" d="M504.753 151.37L512.873 157.12C512.976 157.196 513.101 157.236 513.228 157.236C513.356 157.236 513.48 157.196 513.583 157.12L515.783 155.47C515.851 155.412 515.905 155.34 515.943 155.259C515.98 155.177 515.999 155.089 515.999 155C515.999 154.911 515.98 154.823 515.943 154.741C515.905 154.66 515.851 154.588 515.783 154.53L509.533 148.98C509.452 148.906 509.353 148.856 509.245 148.835C509.138 148.814 509.026 148.822 508.923 148.86L504.913 150.3C504.808 150.336 504.714 150.401 504.643 150.487C504.572 150.572 504.525 150.676 504.509 150.786C504.492 150.897 504.506 151.009 504.55 151.112C504.593 151.215 504.663 151.304 504.753 151.37Z" fill="#3F3D56"/>
<path id="Vector_85" d="M507.483 168.69C506.909 166.698 506.623 164.633 506.633 162.56L506.513 159.79C506.393 158.715 506.491 157.626 506.803 156.59C507.112 155.879 507.574 155.246 508.157 154.736C508.739 154.226 509.428 153.851 510.173 153.64C511.666 153.226 513.227 153.113 514.763 153.31C514.971 153.311 515.174 153.366 515.353 153.47C515.51 153.615 515.621 153.803 515.673 154.01C515.901 154.453 516.034 154.939 516.065 155.436C516.096 155.934 516.024 156.432 515.853 156.9C515.621 157.281 515.307 157.606 514.933 157.85C513.843 158.63 512.573 159.15 511.543 160C511.334 160.142 511.174 160.344 511.083 160.58C511.034 160.787 511.034 161.003 511.083 161.21C511.211 161.76 511.385 162.299 511.603 162.82C511.692 163.082 511.847 163.316 512.053 163.5C512.243 163.66 512.493 163.72 512.693 163.87C513.123 164.22 514.023 164.68 513.973 165.23C513.823 167.23 512.623 169.47 512.153 171.45C511.253 175.32 508.063 170.38 507.483 168.69Z" fill="#BE6F72"/>
<g id="Group_6" opacity="0.1">
<path id="Vector_86" opacity="0.1" d="M520.113 167.79H519.893C520.742 167.955 521.615 167.955 522.463 167.79H522.713C521.851 167.664 520.976 167.664 520.113 167.79Z" fill="black"/>
<path id="Vector_87" opacity="0.1" d="M540.743 146.37C539.333 149.54 537.253 166.71 536.883 170.12C538.263 170.48 539.173 170.74 539.173 170.74C539.173 170.74 541.333 150.54 542.913 146.96L540.743 146.37Z" fill="black"/>
</g>
<path id="Vector_88" d="M536.333 141.15C536.407 141.545 536.559 141.921 536.781 142.256C537.002 142.591 537.289 142.878 537.623 143.1C538.458 143.8 539.225 144.576 539.913 145.42C540.902 146.81 541.667 148.345 542.183 149.97C542.934 152.005 543.565 154.082 544.073 156.19C539.073 158.51 533.393 158.4 528.073 159.93C525.783 160.534 523.705 161.763 522.073 163.48C521.26 164.343 520.641 165.371 520.26 166.494C519.879 167.618 519.743 168.81 519.863 169.99C519.871 170.128 519.912 170.262 519.983 170.38C520.07 170.478 520.179 170.554 520.3 170.603C520.422 170.652 520.553 170.671 520.683 170.66C522.013 170.658 523.303 170.215 524.353 169.4C525.391 168.589 526.334 167.663 527.163 166.64C527.678 165.969 528.371 165.456 529.163 165.16C532.053 164.28 535.163 164.33 538.163 164.28C542.65 164.192 547.128 163.838 551.573 163.22C551.736 163.239 551.9 163.222 552.054 163.168C552.209 163.115 552.349 163.027 552.465 162.911C552.58 162.796 552.668 162.655 552.721 162.501C552.775 162.347 552.793 162.182 552.773 162.02C553.213 156.12 551.023 150.36 548.773 144.89C547.873 142.697 546.947 140.513 545.993 138.34C545.208 136.216 544.058 134.247 542.593 132.52C542.037 131.892 541.356 131.388 540.593 131.04C539.733 130.73 538.828 130.561 537.913 130.54C536.458 130.344 534.985 130.317 533.523 130.46C533.29 131.196 533.149 131.959 533.103 132.73C533.183 135.43 534.363 137.96 535.523 140.4C535.673 140.77 536.103 140.79 536.333 141.15Z" fill="#BE6F72"/>
<path id="Vector_89" opacity="0.1" d="M520.323 146.21C519.647 147.368 519.301 148.689 519.323 150.03C519.326 150.56 519.41 151.086 519.573 151.59C519.846 152.297 520.275 152.934 520.827 153.453C521.379 153.972 522.041 154.361 522.763 154.59" stroke="black" stroke-miterlimit="10"/>
<path id="Vector_90" d="M525.413 113.36C524.921 113.358 524.431 113.436 523.963 113.59C522.653 111.59 519.573 110.21 515.963 110.21C511.183 110.21 507.313 112.68 507.313 115.72C507.313 118.76 511.183 121.22 515.963 121.22C517.753 121.239 519.525 120.864 521.153 120.12C521.52 120.878 522.082 121.523 522.782 121.99C523.483 122.456 524.295 122.727 525.135 122.773C525.975 122.819 526.813 122.639 527.56 122.252C528.307 121.866 528.937 121.285 529.384 120.573C529.831 119.86 530.079 119.04 530.102 118.199C530.125 117.358 529.922 116.526 529.515 115.79C529.108 115.054 528.511 114.44 527.786 114.013C527.061 113.585 526.235 113.36 525.393 113.36H525.413Z" fill="#3F3D56"/>
<path id="Vector_91" opacity="0.1" d="M525.803 121.61C524.917 121.61 524.048 121.36 523.298 120.887C522.548 120.415 521.946 119.74 521.563 118.94C519.935 119.684 518.163 120.059 516.373 120.04C511.603 120.04 507.733 117.58 507.733 114.54C507.718 114.357 507.718 114.173 507.733 113.99C507.449 114.523 507.298 115.116 507.293 115.72C507.293 118.72 511.163 121.22 515.943 121.22C517.733 121.239 519.505 120.864 521.133 120.12C521.564 121.013 522.266 121.747 523.138 122.218C524.01 122.689 525.009 122.873 525.992 122.743C526.974 122.614 527.891 122.177 528.612 121.496C529.332 120.815 529.819 119.924 530.003 118.95C529.623 119.742 529.027 120.412 528.285 120.882C527.542 121.353 526.682 121.605 525.803 121.61Z" fill="black"/>
<path id="Vector_92" opacity="0.1" d="M506.143 113.54C507.467 110.828 509.671 108.645 512.395 107.347C515.119 106.048 518.203 105.711 521.143 106.39C523.201 105.12 525.55 104.398 527.966 104.294C530.382 104.191 532.784 104.708 534.942 105.798C537.101 106.887 538.945 108.512 540.296 110.517C541.648 112.522 542.463 114.84 542.663 117.25C542.663 116.86 542.663 116.47 542.663 116.07C542.658 113.555 541.982 111.087 540.705 108.92C539.427 106.754 537.596 104.967 535.398 103.744C533.2 102.521 530.716 101.907 528.201 101.964C525.687 102.021 523.233 102.748 521.093 104.07C518.153 103.391 515.069 103.728 512.345 105.027C509.621 106.325 507.417 108.508 506.093 111.22C504.444 112.78 503.139 114.668 502.263 116.762C501.386 118.856 500.957 121.11 501.003 123.38C501.003 123.78 501.003 124.17 501.003 124.56C501.2 120.353 503.047 116.394 506.143 113.54Z" fill="black"/>
</g>
<path id="Vector_93" d="M836.39 414.37C839 409.54 836.04 403.61 832.63 399.3C829.22 394.99 825.08 390.51 825.17 385.01C825.29 377.12 833.67 372.46 840.37 368.27C845.337 365.157 849.916 361.465 854.01 357.27C855.73 355.663 857.152 353.763 858.21 351.66C859.59 348.57 859.55 345.06 859.47 341.66C859.177 330.393 858.62 319.14 857.8 307.9" stroke="#3F3D56" stroke-width="4" stroke-miterlimit="10"/>
<path id="Vector_94" d="M870.52 307.3C870.425 305.24 869.812 303.236 868.739 301.475C867.666 299.713 866.167 298.25 864.38 297.22L861.62 302.67L861.7 296.07C860.388 295.678 859.018 295.513 857.65 295.58C855.218 295.693 852.874 296.526 850.915 297.971C848.955 299.417 847.469 301.411 846.643 303.702C845.817 305.992 845.689 308.476 846.275 310.839C846.861 313.202 848.135 315.339 849.935 316.978C851.735 318.618 853.981 319.686 856.389 320.049C858.797 320.412 861.258 320.053 863.461 319.017C865.665 317.981 867.511 316.315 868.768 314.229C870.024 312.143 870.634 309.732 870.52 307.3Z" fill="#6C63FF"/>
<path id="Vector_95" d="M848.57 390.63C847.279 393.141 845.163 395.133 842.578 396.269C839.994 397.406 837.096 397.62 834.373 396.875C831.649 396.129 829.264 394.47 827.619 392.175C825.973 389.88 825.166 387.089 825.334 384.27C825.502 381.452 826.633 378.776 828.539 376.692C830.445 374.609 833.01 373.244 835.803 372.827C838.596 372.409 841.447 372.965 843.879 374.4C846.311 375.835 848.176 378.063 849.16 380.71L841.47 386.97L849.93 384.97C849.938 386.939 849.472 388.88 848.57 390.63Z" fill="#6C63FF"/>
<path id="Vector_96" d="M842.49 366.72C839.468 366.865 836.498 365.893 834.148 363.987C831.797 362.082 830.231 359.378 829.747 356.392C829.263 353.405 829.897 350.345 831.526 347.795C833.155 345.246 835.666 343.386 838.58 342.57L838.52 347.64L841.31 342.13C844.572 341.981 847.759 343.132 850.172 345.332C852.586 347.531 854.027 350.598 854.18 353.86C854.257 355.475 854.014 357.089 853.466 358.61C852.919 360.131 852.077 361.529 850.988 362.725C849.9 363.92 848.586 364.889 847.123 365.576C845.659 366.264 844.075 366.656 842.46 366.73L842.49 366.72Z" fill="#6C63FF"/>
<path id="Vector_97" d="M872.37 346.84C870.462 346.937 868.557 346.589 866.807 345.822C865.056 345.056 863.508 343.893 862.285 342.424C861.062 340.956 860.198 339.223 859.761 337.363C859.323 335.503 859.325 333.567 859.766 331.708C860.206 329.848 861.074 328.117 862.299 326.651C863.525 325.185 865.074 324.024 866.826 323.261C868.578 322.498 870.483 322.152 872.391 322.253C874.3 322.353 876.158 322.897 877.82 323.84L875.64 329.84L880.12 325.54C881.314 326.624 882.281 327.932 882.968 329.391C883.654 330.85 884.046 332.43 884.12 334.04C884.18 335.179 884.076 336.321 883.81 337.43C883.183 340.028 881.728 342.351 879.664 344.048C877.6 345.746 875.04 346.726 872.37 346.84Z" fill="#6C63FF"/>
<path id="Vector_98" opacity="0.1" d="M868.87 310.58C866.03 310.9 863.26 311.78 860.41 311.96C857.56 312.14 854.41 311.45 852.62 309.23C851.784 307.943 851.026 306.608 850.35 305.23C849.57 304.019 848.506 303.016 847.25 302.31C846.452 303.871 845.997 305.584 845.914 307.334C845.831 309.085 846.124 310.833 846.771 312.462C847.419 314.091 848.407 315.562 849.669 316.779C850.931 317.995 852.438 318.927 854.09 319.514C855.742 320.101 857.499 320.328 859.246 320.18C860.992 320.033 862.687 319.514 864.217 318.659C865.747 317.804 867.077 316.632 868.117 315.221C869.157 313.811 869.885 312.194 870.25 310.48C869.79 310.5 869.33 310.53 868.87 310.58Z" fill="black"/>
<path id="Vector_99" opacity="0.1" d="M872.37 346.84C870.248 346.938 868.138 346.485 866.243 345.526C864.347 344.568 862.732 343.135 861.554 341.368C860.376 339.601 859.674 337.56 859.518 335.442C859.361 333.324 859.754 331.201 860.66 329.28C861.639 329.935 862.481 330.774 863.14 331.75C863.871 333.154 864.686 334.514 865.58 335.82C867.49 338.08 870.77 338.82 873.74 338.68C876.71 338.54 879.58 337.68 882.54 337.43C882.95 337.43 883.37 337.36 883.78 337.35C883.169 339.958 881.725 342.295 879.666 344.008C877.607 345.72 875.045 346.715 872.37 346.84Z" fill="black"/>
<path id="Vector_100" opacity="0.1" d="M842.49 366.72C840.386 366.823 838.291 366.384 836.405 365.445C834.519 364.505 832.906 363.097 831.721 361.356C830.536 359.614 829.817 357.598 829.635 355.499C829.453 353.4 829.813 351.29 830.68 349.37C831.689 350.041 832.57 350.888 833.28 351.87C834.28 353.22 834.83 354.78 835.95 356.02C838.03 358.34 841.52 359.15 844.67 359.08C847.82 359.01 850.67 358.26 853.67 358.03C852.928 360.453 851.455 362.588 849.455 364.143C847.454 365.699 845.021 366.598 842.49 366.72Z" fill="black"/>
<path id="Vector_101" opacity="0.1" d="M848.57 390.63C847.102 393.377 844.648 395.465 841.702 396.476C838.756 397.486 835.537 397.344 832.692 396.076C829.847 394.809 827.587 392.511 826.368 389.646C825.149 386.78 825.06 383.559 826.12 380.63C827.136 381.293 828.046 382.105 828.82 383.04C830 384.47 830.77 386.04 832.12 387.42C834.64 389.89 838.7 390.9 842.32 391C844.409 390.998 846.496 390.874 848.57 390.63Z" fill="black"/>
<path id="Vector_102" d="M565.681 274.63C566.272 276.569 567.001 278.464 567.861 280.3C570.323 279.78 572.745 279.088 575.111 278.23C574.645 277.536 574.14 276.869 573.601 276.23C573.014 275.591 572.32 275.06 571.551 274.66C570.731 274.474 569.881 274.474 569.061 274.66C567.941 274.63 566.811 274.65 565.681 274.63Z" fill="#FBBEBE"/>
<path id="Vector_103" d="M571.561 277.56C570.97 277.295 570.442 276.906 570.014 276.42C569.586 275.933 569.268 275.36 569.081 274.74C568.7 273.494 568.055 272.345 567.191 271.37C567.009 271.395 566.836 271.466 566.689 271.576C566.542 271.686 566.426 271.832 566.351 272C566.171 272.32 566.061 272.68 565.861 273C565.461 273.57 564.761 273.85 564.261 274.33C563.761 274.81 563.461 275.56 562.921 276.05C562.178 276.597 561.307 276.942 560.391 277.05C558.999 277.364 557.655 277.858 556.391 278.52C555.928 278.797 555.435 279.018 554.921 279.18C554.351 279.265 553.771 279.265 553.201 279.18L549.261 278.9C548.93 278.845 548.592 278.845 548.261 278.9C547.859 279.045 547.517 279.321 547.29 279.684C547.064 280.047 546.965 280.475 547.011 280.9C547.058 281.322 547.193 281.729 547.408 282.094C547.624 282.459 547.914 282.775 548.261 283.02C548.945 283.511 549.701 283.896 550.501 284.16C553.931 285.452 557.464 286.455 561.061 287.16V287.94C563.566 289.17 566.32 289.809 569.111 289.81C569.316 289.822 569.521 289.788 569.711 289.71C569.966 289.519 570.144 289.242 570.211 288.93C571.159 286.168 571.714 283.286 571.861 280.37C571.925 279.629 571.868 278.882 571.691 278.16C571.471 277.45 572.211 277.75 571.531 277.47" fill="#2F2E41"/>
<path id="Vector_104" d="M588.111 275.17C589.938 275.79 591.781 276.363 593.641 276.89C594.641 275.18 596.641 273.99 597.071 272.03C597.096 271.945 597.096 271.855 597.071 271.77C597.022 271.687 596.948 271.621 596.861 271.58C595.524 270.846 594.043 270.412 592.521 270.31C591.321 270.24 590.771 271.49 590.231 272.37C590.021 272.76 588.601 275.36 588.111 275.17Z" fill="#FBBEBE"/>
<path id="Vector_105" d="M590.671 273.95C590.124 273.857 589.603 273.652 589.14 273.348C588.677 273.043 588.282 272.645 587.981 272.18C587.731 271.73 587.451 271.12 586.931 271.18C586.411 271.24 586.241 271.78 586.131 272.25C585.785 274.022 585.279 275.759 584.621 277.44C583.961 279.13 582.842 280.602 581.391 281.69C580.711 282.16 579.961 282.51 579.291 283.01C578.736 283.501 578.144 283.949 577.521 284.35C577.08 284.548 576.625 284.715 576.161 284.85C575.478 285.107 574.827 285.443 574.221 285.85C573.682 286.16 573.225 286.595 572.891 287.12C572.726 287.382 572.63 287.682 572.612 287.992C572.595 288.302 572.656 288.611 572.791 288.89C572.931 289.12 573.118 289.318 573.341 289.469C573.563 289.621 573.816 289.724 574.081 289.77C574.615 289.85 575.157 289.85 575.691 289.77C577.821 289.62 579.951 289.43 582.081 289.24C582.979 289.182 583.871 289.058 584.751 288.87L586.141 288.49C586.935 288.28 587.75 288.159 588.571 288.13C588.81 288.108 589.051 288.132 589.281 288.2C589.771 288.36 590.121 288.85 590.631 288.95C590.97 288.983 591.312 288.938 591.631 288.82C593.185 288.487 594.771 288.323 596.361 288.33C597.061 288.33 597.881 288.15 598.201 287.53C598.601 286.75 597.941 285.88 597.671 285.04C597.542 284.506 597.468 283.959 597.451 283.41C597.332 282.05 596.933 280.729 596.281 279.53C595.741 278.53 595.001 277.43 595.381 276.37C595.57 276.033 595.692 275.663 595.741 275.28C595.591 273.56 591.651 274.17 590.671 273.95Z" fill="#2F2E41"/>
<path id="Vector_106" d="M653.391 224.23C654.959 224.23 656.231 222.95 656.231 221.37C656.231 219.79 654.959 218.51 653.391 218.51C651.822 218.51 650.551 219.79 650.551 221.37C650.551 222.95 651.822 224.23 653.391 224.23Z" fill="#2F2E41"/>
<path id="Vector_107" d="M651.631 219.65C650.871 219.468 650.07 219.582 649.391 219.97C649.063 220.262 648.801 220.62 648.621 221.02C647.985 222.114 647.488 223.283 647.141 224.5C646.891 225.5 646.851 226.63 646.531 227.66C645.951 229.56 644.461 231.17 644.291 233.15C644.211 234.04 644.361 235.08 643.711 235.68C643.552 235.818 643.381 235.941 643.201 236.05C642.751 236.35 642.369 236.742 642.081 237.2C641.885 237.608 641.617 237.977 641.291 238.29C640.711 238.72 639.751 238.68 639.471 239.29C639.191 239.9 639.921 240.73 639.751 241.45C639.581 242.17 638.951 242.31 638.501 242.71C637.971 243.27 637.598 243.96 637.421 244.71C636.47 244.893 635.492 244.867 634.552 244.634C633.613 244.401 632.735 243.966 631.981 243.36C632.641 245.364 632.929 247.472 632.831 249.58C632.881 249.917 632.862 250.261 632.776 250.591C632.69 250.921 632.539 251.23 632.331 251.5C634.587 251.668 636.821 252.056 639.001 252.66C639.945 252.975 640.966 252.975 641.911 252.66C642.417 252.389 642.87 252.03 643.251 251.6C644.451 250.38 645.711 249.05 646.001 247.36C646.073 246.405 646.089 245.447 646.051 244.49C646.165 243.303 646.41 242.133 646.781 241C647.414 238.649 647.839 236.246 648.051 233.82C648.181 232.32 649.481 231.12 650.161 229.82C651.441 227.29 652.761 224.66 652.851 221.82C652.891 220.9 652.571 219.75 651.631 219.65Z" fill="#2F2E41"/>
<path id="Vector_108" opacity="0.1" d="M651.631 219.65C650.871 219.468 650.07 219.582 649.391 219.97C649.063 220.262 648.801 220.62 648.621 221.02C647.985 222.114 647.488 223.283 647.141 224.5C646.891 225.5 646.851 226.63 646.531 227.66C645.951 229.56 644.461 231.17 644.291 233.15C644.211 234.04 644.361 235.08 643.711 235.68C643.552 235.818 643.381 235.941 643.201 236.05C642.751 236.35 642.369 236.742 642.081 237.2C641.885 237.608 641.617 237.977 641.291 238.29C640.711 238.72 639.751 238.68 639.471 239.29C639.191 239.9 639.921 240.73 639.751 241.45C639.581 242.17 638.951 242.31 638.501 242.71C637.971 243.27 637.598 243.96 637.421 244.71C636.47 244.893 635.492 244.867 634.552 244.634C633.613 244.401 632.735 243.966 631.981 243.36C632.641 245.364 632.929 247.472 632.831 249.58C632.881 249.917 632.862 250.261 632.776 250.591C632.69 250.921 632.539 251.23 632.331 251.5C634.587 251.668 636.821 252.056 639.001 252.66C639.945 252.975 640.966 252.975 641.911 252.66C642.417 252.389 642.87 252.03 643.251 251.6C644.451 250.38 645.711 249.05 646.001 247.36C646.073 246.405 646.089 245.447 646.051 244.49C646.165 243.303 646.41 242.133 646.781 241C647.414 238.649 647.839 236.246 648.051 233.82C648.181 232.32 649.481 231.12 650.161 229.82C651.441 227.29 652.761 224.66 652.851 221.82C652.891 220.9 652.571 219.75 651.631 219.65Z" fill="black"/>
<path id="Vector_109" d="M655.141 225.55C656.35 225.55 657.331 224.565 657.331 223.35C657.331 222.135 656.35 221.15 655.141 221.15C653.931 221.15 652.951 222.135 652.951 223.35C652.951 224.565 653.931 225.55 655.141 225.55Z" fill="#E8E8F0"/>
<path id="Vector_110" d="M654.661 221.7C655.149 222.682 655.236 223.816 654.901 224.86C654.556 225.886 654.082 226.863 653.491 227.77C652.983 228.704 652.369 229.576 651.661 230.37C655.041 230.53 658.311 229.21 661.281 227.61C663.681 226.32 666.071 224.73 667.351 222.32C666.969 222.411 666.572 222.421 666.186 222.348C665.8 222.276 665.434 222.123 665.111 221.9C664.466 221.456 663.89 220.921 663.401 220.31L661.711 218.41C661.328 217.992 660.992 217.532 660.711 217.04C660.339 216.366 660.183 215.595 660.261 214.83C659.587 215.533 658.835 216.157 658.021 216.69C656.811 217.48 655.481 218.05 654.261 218.83C653.841 219.11 652.881 219.55 653.131 220.11C653.381 220.67 654.321 221.1 654.661 221.7Z" fill="#FBBEBE"/>
<path id="Vector_111" opacity="0.1" d="M654.661 221.7C655.149 222.682 655.236 223.816 654.901 224.86C654.556 225.886 654.082 226.863 653.491 227.77C652.983 228.704 652.369 229.576 651.661 230.37C655.041 230.53 658.311 229.21 661.281 227.61C663.681 226.32 666.071 224.73 667.351 222.32C666.969 222.411 666.572 222.421 666.186 222.348C665.8 222.276 665.434 222.123 665.111 221.9C664.466 221.456 663.89 220.921 663.401 220.31L661.711 218.41C661.328 217.992 660.992 217.532 660.711 217.04C660.339 216.366 660.183 215.595 660.261 214.83C659.587 215.533 658.835 216.157 658.021 216.69C656.811 217.48 655.481 218.05 654.261 218.83C653.841 219.11 652.881 219.55 653.131 220.11C653.381 220.67 654.321 221.1 654.661 221.7Z" fill="black"/>
<path id="Vector_112" d="M654.701 222.03C654.359 222.512 654.175 223.089 654.175 223.68C654.175 224.271 654.359 224.848 654.701 225.33C654.801 225.45 655.161 226.2 655.311 226.21C655.384 226.204 655.456 226.183 655.521 226.149C655.586 226.114 655.644 226.067 655.691 226.01C656.46 225.208 657.175 224.356 657.831 223.46C658.501 222.566 659.463 221.936 660.551 221.68C661.898 221.629 663.222 222.042 664.301 222.85C664.802 223.079 665.244 223.421 665.591 223.85C665.832 224.291 665.975 224.779 666.011 225.28C666.338 228.298 666.465 231.335 666.391 234.37C666.448 236.562 666.304 238.754 665.961 240.92C665.741 242.03 665.421 243.12 665.271 244.25C665.153 245.245 665.107 246.248 665.131 247.25V251.43C665.104 252.197 665.158 252.964 665.291 253.72C665.491 254.63 665.921 255.48 666.211 256.37C666.51 257.392 666.714 258.44 666.821 259.5L667.391 263.82C667.571 265.18 667.711 266.67 666.881 267.82C666.511 268.31 666.021 268.71 665.641 269.2C664.231 271.04 664.641 273.67 664.091 275.92C663.628 277.567 662.671 279.033 661.351 280.12C660.88 280.586 660.313 280.943 659.689 281.166C659.065 281.389 658.4 281.472 657.741 281.41C655.981 281.08 654.931 279.25 654.451 277.52C653.971 275.79 653.801 273.91 652.761 272.45C651.806 271.345 650.678 270.403 649.421 269.66C648.149 268.906 647.214 267.693 646.811 266.27C646.701 265.64 646.811 264.99 646.701 264.35C646.607 263.545 646.298 262.779 645.808 262.134C645.317 261.488 644.662 260.986 643.911 260.68C643.011 260.33 641.911 260.2 641.391 259.38C642.678 258.574 643.617 257.314 644.021 255.85C644.419 254.396 644.634 252.897 644.661 251.39L644.961 246.39C645.101 244.14 645.161 241.92 646.151 239.9C646.591 239 647.151 238.15 647.601 237.26C648.211 236.009 648.729 234.716 649.151 233.39C649.871 231.33 650.591 229.27 651.231 227.19C651.48 226.18 651.864 225.208 652.371 224.3C652.911 223.36 653.691 222.23 654.701 222.03Z" fill="#E8E8F0"/>
<path id="Vector_113" d="M643.551 254.67H644.881L645.161 252.67C645.197 252.269 645.291 251.874 645.441 251.5C645.661 251.103 645.918 250.727 646.211 250.38C647.511 248.53 647.421 246.08 647.741 243.83C648.321 240.857 649.303 237.977 650.661 235.27L653.241 229.52C653.476 229.05 653.663 228.557 653.801 228.05C653.909 227.49 653.963 226.921 653.961 226.35C653.961 225.46 654.241 222.22 654.271 221.35C654.271 221.02 653.541 221.2 653.391 220.91C653.071 220.27 652.631 222 652.021 222.38C651.448 222.817 651.031 223.427 650.831 224.12C650.271 225.56 649.931 227.12 649.411 228.55C648.959 230.042 648.129 231.393 647.001 232.47C646.471 232.93 645.861 233.3 645.361 233.8C643.761 235.38 643.601 237.89 643.551 240.15C643.511 241.53 643.251 254.67 643.551 254.67Z" fill="#2F2E41"/>
<path id="Vector_114" d="M662.691 219.64C662.073 219.963 661.537 220.425 661.126 220.988C660.715 221.552 660.44 222.203 660.321 222.89C660.093 224.269 659.689 225.613 659.121 226.89C657.501 229.71 653.371 230.53 652.221 233.58C651.932 234.606 651.777 235.664 651.761 236.73C651.561 238.92 650.841 241.03 650.621 243.21C650.511 244.907 650.551 246.61 650.741 248.3L652.191 265.52C652.468 268.053 652.323 270.615 651.761 273.1C653.247 273.312 654.763 273.061 656.101 272.38C657.451 271.76 658.691 270.91 660.001 270.19C662.241 268.95 664.721 268.08 666.691 266.43C667.044 266.149 667.348 265.811 667.591 265.43C667.892 264.707 668.094 263.947 668.191 263.17C668.361 262.561 668.578 261.966 668.841 261.39C669.563 259.652 670.19 257.876 670.721 256.07C671.082 254.875 671.369 253.66 671.581 252.43C671.741 251.43 671.831 250.43 671.911 249.43C672.015 247.879 672.325 246.349 672.831 244.88C674.086 241.369 674.797 237.686 674.941 233.96C674.98 233.424 674.943 232.885 674.831 232.36C674.611 231.717 674.316 231.103 673.951 230.53C673.351 229.4 672.951 228.16 672.431 227.01C671.013 224.477 668.98 222.342 666.521 220.8C665.361 220.01 664.001 219.17 662.691 219.64Z" fill="#2F2E41"/>
<g id="g2">
<path id="Vector_115" d="M681.191 217.08C681.204 215.546 680.857 214.031 680.178 212.655C679.499 211.28 678.506 210.082 677.281 209.16C677.266 206.449 676.293 203.83 674.535 201.766C672.777 199.702 670.345 198.326 667.671 197.88C667.258 195.909 666.333 194.082 664.991 192.581C663.648 191.08 661.934 189.959 660.021 189.33V189.33C659.556 189.185 659.082 189.074 658.601 189H658.461H658.211H658.011H657.791H657.521H656.911C654.254 189.061 651.704 190.061 649.713 191.821C647.721 193.582 646.417 195.99 646.031 198.62C642.521 197.81 639.311 198.86 638.721 201.08C638.573 201.67 638.608 202.29 638.821 202.86C639.421 204.58 641.371 206.23 643.981 207.04L644.321 207.14L644.831 207.27H644.941C644.384 208.455 644.097 209.75 644.101 211.06C644.093 212.668 644.528 214.246 645.359 215.622C646.19 216.998 647.384 218.119 648.811 218.86L648.581 219C648.256 219.296 647.997 219.657 647.821 220.06C647.19 221.176 646.696 222.365 646.351 223.6C646.101 224.66 646.061 225.76 645.751 226.81C645.171 228.74 643.691 230.37 643.521 232.38C643.441 233.28 643.591 234.38 642.951 234.96C642.793 235.097 642.623 235.217 642.441 235.32C641.998 235.633 641.62 236.031 641.331 236.49C641.139 236.906 640.875 237.286 640.551 237.61C639.971 238.04 639.021 238 638.741 238.67C638.461 239.34 639.191 240.13 639.021 240.86C638.851 241.59 638.231 241.73 637.781 242.14C637.257 242.703 636.889 243.392 636.711 244.14C635.765 244.321 634.79 244.291 633.857 244.052C632.924 243.813 632.054 243.372 631.311 242.76C631.566 243.406 631.754 244.076 631.871 244.76C631.001 244.096 630.014 243.601 628.961 243.3C627.776 242.761 626.72 241.977 625.861 241L627.521 240.77L620.191 229.58L618.021 229.13L619.961 232.86C619.799 232.934 619.655 233.043 619.541 233.18C619.427 233.317 619.345 233.477 619.301 233.65C619.198 234.065 619.174 234.496 619.231 234.92C619.33 235.93 619.497 236.932 619.731 237.92L620.291 240.54C620.341 240.78 620.401 241.03 620.471 241.27C619.739 241.234 619.007 241.315 618.301 241.51C616.847 240.969 615.332 240.61 613.791 240.44C613.461 240.373 613.121 240.373 612.791 240.44C612.417 240.617 612.092 240.881 611.841 241.21C610.578 242.675 609.457 244.255 608.491 245.93C604.491 252.79 599.281 258.78 594.351 264.98C590.951 266.36 587.521 267.67 584.091 268.98L576.711 271.8C575.272 272.453 573.711 272.794 572.131 272.8C571.431 272.8 570.561 272.65 570.131 273.25C569.938 273.562 569.787 273.898 569.681 274.25L568.921 274.33C568.571 273.129 567.967 272.018 567.151 271.07C566.971 271.101 566.801 271.175 566.656 271.287C566.512 271.398 566.397 271.544 566.321 271.71C566.141 272.04 566.031 272.4 565.821 272.71C565.431 273.29 564.741 273.57 564.251 274.06C563.761 274.55 563.451 275.31 562.911 275.81C562.175 276.355 561.31 276.699 560.401 276.81C559.031 277.13 557.709 277.631 556.471 278.3C556.018 278.584 555.531 278.809 555.021 278.97C554.458 279.08 553.88 279.1 553.311 279.03L549.411 278.74C549.061 278.696 548.705 278.713 548.361 278.79C547.969 278.949 547.638 279.229 547.416 279.588C547.193 279.948 547.09 280.368 547.121 280.79C547.171 281.214 547.307 281.623 547.52 281.992C547.733 282.362 548.019 282.684 548.361 282.94C549.036 283.438 549.785 283.826 550.581 284.09C553.956 285.404 557.435 286.434 560.981 287.17V287.96C563.462 289.211 566.202 289.862 568.981 289.86C569.187 289.874 569.393 289.836 569.581 289.75C569.836 289.559 570.014 289.282 570.081 288.97C570.91 286.49 571.434 283.917 571.641 281.31V281.31C572.129 281.277 572.607 281.155 573.051 280.95C574.391 280.58 575.731 281.5 577.121 281.65C578.831 281.84 580.411 280.84 582.031 280.23L582.731 280C582.27 280.593 581.724 281.115 581.111 281.55C580.441 282.03 579.691 282.39 579.041 282.89C578.491 283.388 577.902 283.843 577.281 284.25C576.843 284.453 576.392 284.626 575.931 284.77C575.249 285.023 574.601 285.359 574.001 285.77C573.469 286.087 573.02 286.526 572.691 287.05C572.527 287.318 572.431 287.622 572.411 287.936C572.392 288.25 572.45 288.564 572.581 288.85C572.719 289.083 572.906 289.285 573.128 289.44C573.351 289.595 573.604 289.701 573.871 289.75C574.398 289.83 574.934 289.83 575.461 289.75C577.581 289.59 579.691 289.4 581.801 289.21C582.693 289.153 583.579 289.026 584.451 288.83C584.911 288.72 585.371 288.57 585.831 288.44C586.62 288.241 587.428 288.12 588.241 288.08C588.477 288.062 588.714 288.085 588.941 288.15C589.431 288.31 589.781 288.81 590.281 288.91C590.62 288.953 590.964 288.908 591.281 288.78C592.822 288.448 594.394 288.28 595.971 288.28C596.661 288.28 597.471 288.11 597.791 287.47C598.111 286.83 597.531 285.8 597.271 284.95C597.137 284.406 597.064 283.85 597.051 283.29C596.93 281.913 596.536 280.573 595.891 279.35C595.543 278.78 595.252 278.177 595.021 277.55C598.045 276.401 600.938 274.933 603.651 273.17C605.137 272.094 606.803 271.291 608.571 270.8C610.659 270.551 612.776 270.798 614.751 271.52C619.559 272.913 624.289 274.562 628.921 276.46C631.131 277.37 633.331 278.33 635.611 279.02C636.276 279.912 637.079 280.692 637.991 281.33C639.566 282.216 641.334 282.7 643.141 282.74C645.551 282.96 647.971 283.05 650.391 283.01C652.243 283.09 654.09 282.748 655.791 282.01C656.197 281.807 656.576 281.555 656.921 281.26C657.574 281.315 658.231 281.227 658.846 281C659.461 280.774 660.019 280.415 660.481 279.95C661.792 278.827 662.736 277.336 663.191 275.67C663.781 273.39 663.331 270.67 664.731 268.85C665.101 268.35 665.591 267.95 665.961 267.45C666.409 266.765 666.633 265.958 666.601 265.14C666.617 265.108 666.637 265.078 666.661 265.05C666.968 264.315 667.17 263.541 667.261 262.75C667.433 262.128 667.65 261.52 667.911 260.93C668.622 259.166 669.243 257.367 669.771 255.54C670.132 254.325 670.419 253.089 670.631 251.84C670.781 250.84 670.871 249.84 670.951 248.84C671.057 247.264 671.363 245.708 671.861 244.21C673.113 240.643 673.821 236.908 673.961 233.13V232.91C675.803 232.698 677.5 231.805 678.717 230.406C679.935 229.008 680.585 227.204 680.541 225.35C680.541 224.237 680.306 223.136 679.851 222.12C680.735 220.588 681.198 218.849 681.191 217.08ZM645.411 260.55C645.521 260.94 645.651 261.32 645.781 261.7C645.191 261.13 644.621 260.54 644.031 259.96C644.261 260.04 644.501 260.11 644.721 260.2C644.952 260.294 645.173 260.412 645.381 260.55H645.411ZM642.581 258.63C639.121 255.63 635.121 253.3 631.581 250.39C633.511 251.34 635.391 252.45 637.251 253.51C639.458 254.77 641.694 255.98 643.961 257.14C643.589 257.721 643.11 258.226 642.551 258.63H642.581ZM644.051 251.07L644.221 250.9C644.221 251.33 644.221 251.72 644.221 252.09L643.291 251.77C643.548 251.552 643.792 251.318 644.021 251.07H644.051ZM613.621 259.17C615.04 257.563 616.275 255.802 617.301 253.92C618.671 256.31 620.901 258.04 622.791 260.05C619.741 259.66 616.681 259.33 613.621 259.17Z" fill="url(#paint1_linear)"/>
<path id="Vector_116" d="M618.541 230.05L620.721 230.49L628.151 241.48L624.881 241.92L618.541 230.05Z" fill="#2F2E41"/>
<path id="Vector_117" d="M647.121 262.71C635.441 263.41 623.901 259.99 612.201 259.63C610.749 259.534 609.29 259.625 607.861 259.9C606.373 260.304 604.931 260.863 603.561 261.57C597.291 264.49 590.801 266.91 584.321 269.32L576.871 272.09C575.422 272.745 573.851 273.085 572.261 273.09C571.551 273.09 570.681 272.94 570.261 273.53C569.051 275.33 569.621 277.96 570.421 279.98C570.681 280.63 571.121 281.34 571.821 281.41C572.312 281.377 572.793 281.255 573.241 281.05C574.591 280.69 575.941 281.6 577.341 281.75C579.061 281.93 580.661 280.95 582.291 280.35C584.991 279.35 587.931 279.35 590.771 278.91C595.521 278.12 599.931 275.91 604.051 273.4C605.549 272.332 607.225 271.54 609.001 271.06C611.105 270.812 613.237 271.055 615.231 271.77C620.076 273.137 624.846 274.76 629.521 276.63C631.951 277.688 634.442 278.599 636.981 279.36C642.522 280.81 648.381 280.46 653.711 278.36C655.581 277.62 657.611 276.36 657.711 274.3C657.781 273.15 656.881 272.14 656.291 271.15C655.911 270.52 655.521 269.89 655.111 269.28C653.111 266.38 650.671 262.5 647.121 262.71Z" fill="#2F2E41"/>
<path id="Vector_118" opacity="0.1" d="M647.121 262.71C635.441 263.41 623.901 259.99 612.201 259.63C610.749 259.534 609.29 259.625 607.861 259.9C606.373 260.304 604.931 260.863 603.561 261.57C597.291 264.49 590.801 266.91 584.321 269.32L576.871 272.09C575.422 272.745 573.851 273.085 572.261 273.09C571.551 273.09 570.681 272.94 570.261 273.53C569.051 275.33 569.621 277.96 570.421 279.98C570.681 280.63 571.121 281.34 571.821 281.41C572.312 281.377 572.793 281.255 573.241 281.05C574.591 280.69 575.941 281.6 577.341 281.75C579.061 281.93 580.661 280.95 582.291 280.35C584.991 279.35 587.931 279.35 590.771 278.91C595.521 278.12 599.931 275.91 604.051 273.4C605.549 272.332 607.225 271.54 609.001 271.06C611.105 270.812 613.237 271.055 615.231 271.77C620.076 273.137 624.846 274.76 629.521 276.63C631.951 277.688 634.442 278.599 636.981 279.36C642.522 280.81 648.381 280.46 653.711 278.36C655.581 277.62 657.611 276.36 657.711 274.3C657.781 273.15 656.881 272.14 656.291 271.15C655.911 270.52 655.521 269.89 655.111 269.28C653.111 266.38 650.671 262.5 647.121 262.71Z" fill="black"/>
<path id="Vector_119" d="M629.611 243.97C627.538 243.061 625.877 241.415 624.951 239.35C624.761 238.91 624.601 238.44 624.411 238C623.801 236.51 622.848 235.184 621.631 234.13C621.502 233.994 621.347 233.885 621.175 233.811C621.003 233.737 620.818 233.7 620.631 233.7C620.445 233.756 620.278 233.861 620.146 234.003C620.014 234.145 619.922 234.32 619.881 234.51C619.769 234.917 619.742 235.342 619.801 235.76C619.903 236.743 620.07 237.719 620.301 238.68L620.871 241.26C620.946 241.655 621.064 242.04 621.221 242.41C621.465 242.842 621.787 243.226 622.171 243.54C622.691 244.02 623.221 244.48 623.751 244.94C624.057 245.207 624.393 245.438 624.751 245.63C625.309 245.897 625.907 246.072 626.521 246.15C628.907 246.461 631.184 247.338 633.161 248.71C633.161 248.71 633.161 246.98 633.161 246.79C633.136 246.287 632.962 245.804 632.661 245.4C631.745 244.733 630.71 244.247 629.611 243.97V243.97Z" fill="#FBBEBE"/>
<path id="Vector_120" opacity="0.1" d="M629.611 243.97C627.538 243.061 625.877 241.415 624.951 239.35C624.761 238.91 624.601 238.44 624.411 238C623.801 236.51 622.848 235.184 621.631 234.13C621.502 233.994 621.347 233.885 621.175 233.811C621.003 233.737 620.818 233.7 620.631 233.7C620.445 233.756 620.278 233.861 620.146 234.003C620.014 234.145 619.922 234.32 619.881 234.51C619.769 234.917 619.742 235.342 619.801 235.76C619.903 236.743 620.07 237.719 620.301 238.68L620.871 241.26C620.946 241.655 621.064 242.04 621.221 242.41C621.465 242.842 621.787 243.226 622.171 243.54C622.691 244.02 623.221 244.48 623.751 244.94C624.057 245.207 624.393 245.438 624.751 245.63C625.309 245.897 625.907 246.072 626.521 246.15C628.907 246.461 631.184 247.338 633.161 248.71C633.161 248.71 633.161 246.98 633.161 246.79C633.136 246.287 632.962 245.804 632.661 245.4C631.745 244.733 630.71 244.247 629.611 243.97V243.97Z" fill="black"/>
<path id="Vector_121" d="M648.971 265.17C646.541 264.01 644.761 261.86 642.791 260.01C639.041 256.48 634.451 254.01 630.501 250.68C627.881 248.49 625.501 245.94 622.671 244.1C620.136 242.493 617.265 241.49 614.281 241.17C613.952 241.094 613.61 241.094 613.281 241.17C612.903 241.331 612.575 241.59 612.331 241.92C611.056 243.359 609.92 244.916 608.941 246.57C603.941 255.07 596.831 262.21 590.941 270.11C590.806 270.274 590.707 270.465 590.651 270.67C590.626 270.976 590.703 271.282 590.871 271.54L592.071 273.88C592.741 275.2 593.821 276.73 595.261 276.47C595.909 276.282 596.489 275.911 596.931 275.4L602.311 270.25L607.951 264.86C611.251 261.71 614.611 258.48 616.771 254.44C618.451 257.36 621.441 259.27 623.481 261.94C624.261 262.94 624.901 264.07 625.601 265.15C626.711 266.87 627.981 268.49 629.241 270.15L635.711 278.4C636.531 279.565 637.546 280.58 638.711 281.4C640.306 282.268 642.085 282.745 643.901 282.79C646.331 283.007 648.771 283.093 651.211 283.05C653.079 283.125 654.941 282.784 656.661 282.05C657.518 281.673 658.251 281.06 658.773 280.283C659.295 279.506 659.586 278.596 659.611 277.66C659.511 276.691 659.193 275.758 658.681 274.93C656.341 270.76 653.321 267.24 648.971 265.17Z" fill="#2F2E41"/>
<path id="Vector_122" d="M632.481 247.74C631.454 247.201 630.525 246.495 629.731 245.65C629.371 245.23 629.071 244.76 628.731 244.34C627.804 243.342 626.598 242.646 625.271 242.34C623.958 242.051 622.615 241.92 621.271 241.95C620.369 241.889 619.463 241.998 618.601 242.27C618.171 242.414 617.784 242.663 617.475 242.995C617.165 243.327 616.944 243.731 616.831 244.17C616.795 244.714 616.9 245.257 617.136 245.748C617.373 246.239 617.733 246.66 618.181 246.97C618.962 247.611 619.884 248.056 620.871 248.27C621.675 248.413 622.486 248.51 623.301 248.56C628.081 249.06 632.351 251.66 636.541 254.03C640.221 256.123 643.974 258.07 647.801 259.87C647.949 258.726 648.013 257.573 647.991 256.42C647.991 255.56 647.921 254.24 647.111 253.73C645.959 253.248 644.759 252.889 643.531 252.66C641.063 251.854 638.654 250.878 636.321 249.74C635.001 249.17 633.731 248.47 632.481 247.74Z" fill="#FBBEBE"/>
</g>
<path id="Vector_123" d="M653.391 220.72C658.096 220.72 661.911 216.883 661.911 212.15C661.911 207.417 658.096 203.58 653.391 203.58C648.685 203.58 644.871 207.417 644.871 212.15C644.871 216.883 648.685 220.72 653.391 220.72Z" fill="#FBBEBE"/>
<path id="Vector_124" d="M665.121 229.35C664.441 230.305 663.886 231.343 663.471 232.44C662.471 234.6 660.771 236.44 659.941 238.73C659.111 241.02 659.101 243.96 657.391 245.83C657.049 246.116 656.79 246.489 656.641 246.91C656.634 247.172 656.607 247.432 656.561 247.69C656.311 248.37 655.201 248.4 654.991 249.1C654.931 249.3 654.991 249.52 654.891 249.72C654.721 250.17 654.121 250.24 653.731 250.51C652.901 251.07 653.071 252.37 652.481 253.18C652.223 253.482 651.891 253.71 651.517 253.842C651.143 253.973 650.741 254.004 650.351 253.93C649.575 253.772 648.829 253.492 648.141 253.1C647.893 252.964 647.621 252.88 647.341 252.85C647.009 252.862 646.688 252.973 646.421 253.17C645.667 253.726 645.062 254.459 644.661 255.306C644.259 256.152 644.074 257.084 644.121 258.02C644.236 259.894 644.683 261.733 645.441 263.45C645.525 263.747 645.672 264.024 645.871 264.26C646.169 264.494 646.529 264.634 646.907 264.662C647.284 264.691 647.661 264.606 647.991 264.42C648.643 264.032 649.338 263.72 650.061 263.49C651.381 263.25 652.671 264.16 654.011 264.08C654.987 263.936 655.905 263.532 656.671 262.91C658.016 262.107 659.225 261.094 660.251 259.91C660.831 259.14 661.251 258.27 661.771 257.45C662.433 256.453 663.15 255.495 663.921 254.58L668.841 248.58C669.33 248.01 669.771 247.402 670.161 246.76C670.598 245.884 670.933 244.962 671.161 244.01C671.687 242.425 672.022 240.784 672.161 239.12C672.191 237.744 672.071 236.369 671.801 235.02C671.652 233.676 671.315 232.36 670.801 231.11C669.731 228.85 667.131 227.01 665.121 229.35Z" fill="#2F2E41"/>
<path id="Vector_125" d="M682.241 218.17C682.248 216.651 681.895 215.152 681.21 213.796C680.525 212.44 679.528 211.266 678.301 210.37C678.261 207.671 677.265 205.074 675.491 203.04C673.717 201.006 671.279 199.667 668.611 199.26C668.098 196.701 666.698 194.406 664.657 192.779C662.616 191.152 660.066 190.299 657.457 190.37C654.849 190.44 652.349 191.43 650.399 193.165C648.449 194.899 647.175 197.267 646.801 199.85C643.261 199.05 640.021 200.09 639.431 202.27C638.841 204.45 641.341 207.27 645.071 208.27C646.247 208.599 647.472 208.721 648.691 208.63C649.559 209.91 650.686 210.993 651.998 211.811C653.311 212.63 654.78 213.164 656.311 213.38C656.765 215.442 657.783 217.336 659.253 218.851C660.722 220.367 662.584 221.443 664.631 221.96C665.201 223.327 666.081 224.542 667.201 225.51C667.201 225.78 667.201 226.06 667.201 226.34C667.201 227.287 667.387 228.224 667.75 229.099C668.112 229.974 668.643 230.769 669.313 231.438C669.982 232.108 670.777 232.639 671.652 233.001C672.527 233.364 673.464 233.55 674.411 233.55C675.358 233.55 676.295 233.364 677.17 233.001C678.045 232.639 678.84 232.108 679.509 231.438C680.179 230.769 680.71 229.974 681.072 229.099C681.434 228.224 681.621 227.287 681.621 226.34C681.621 225.24 681.386 224.152 680.931 223.15C681.811 221.639 682.264 219.918 682.241 218.17Z" fill="#F86D70"/>
<path id="Vector_126" opacity="0.1" d="M639.496 202.37C640.086 200.19 643.326 199.15 646.866 199.95C647.286 197.326 648.621 194.935 650.634 193.2C652.647 191.465 655.209 190.498 657.866 190.47H658.596C657.578 190.16 656.52 190.002 655.456 190C652.799 190.028 650.237 190.995 648.224 192.73C646.211 194.465 644.876 196.856 644.456 199.48C640.916 198.68 637.676 199.72 637.086 201.9C636.496 204.08 638.996 206.9 642.726 207.9C643.426 208.094 644.142 208.218 644.866 208.27C641.296 207.2 638.906 204.6 639.496 202.37Z" fill="black"/>
<path id="Vector_127" opacity="0.1" d="M669.561 226.76C669.546 226.487 669.546 226.213 669.561 225.94C668.435 224.977 667.554 223.76 666.991 222.39C664.941 221.875 663.077 220.799 661.607 219.281C660.136 217.763 659.12 215.865 658.671 213.8C657.138 213.588 655.667 213.057 654.353 212.24C653.038 211.424 651.91 210.34 651.041 209.06C650.331 209.119 649.616 209.099 648.911 209C649.787 210.178 650.887 211.17 652.149 211.92C653.41 212.67 654.808 213.163 656.261 213.37C656.715 215.431 657.733 217.326 659.203 218.841C660.672 220.357 662.534 221.433 664.581 221.95C665.151 223.317 666.031 224.532 667.151 225.5C667.151 225.77 667.151 226.05 667.151 226.33C667.119 228.268 667.855 230.141 669.198 231.538C670.541 232.936 672.383 233.745 674.321 233.79C672.907 233.241 671.694 232.274 670.843 231.018C669.993 229.762 669.546 228.277 669.561 226.76Z" fill="black"/>
<path id="Vector_128" d="M454.107 423.496C454.683 423.058 454.676 422.08 454.092 421.31C453.507 420.54 452.566 420.271 451.99 420.709C451.414 421.146 451.421 422.125 452.006 422.895C452.59 423.664 453.531 423.934 454.107 423.496Z" fill="#FBBEBE"/>
</g>
<defs>
<linearGradient id="paint0_linear" x1="526.983" y1="272.12" x2="526.983" y2="100" gradientUnits="userSpaceOnUse">
<stop stop-color="#808080" stop-opacity="0.25"/>
<stop offset="0.54" stop-color="#808080" stop-opacity="0.12"/>
<stop offset="1" stop-color="#808080" stop-opacity="0.1"/>
</linearGradient>
<linearGradient id="paint1_linear" x1="62612.2" y1="66827" x2="62612.2" y2="56640.9" gradientUnits="userSpaceOnUse">
<stop stop-color="#808080" stop-opacity="0.25"/>
<stop offset="0.54" stop-color="#808080" stop-opacity="0.12"/>
<stop offset="1" stop-color="#808080" stop-opacity="0.1"/>
</linearGradient>
</defs>
</svg>
